<?xml version="1.0" encoding="utf-8"?>
<!-- Generator: Adobe Illustrator 25.3.1, SVG Export Plug-In . SVG Version: 6.00 Build 0)  -->
<svg version="1.1" id="Layer_1" xmlns="http://www.w3.org/2000/svg" xmlns:xlink="http://www.w3.org/1999/xlink" x="0px" y="0px"
	 viewBox="0 0 336.6 460.7" style="enable-background:new 0 0 336.6 460.7;" xml:space="preserve">
<style type="text/css">
	.st0{fill:#5B877F;}
	.st1{fill:#8DACA6;}
	.st2{fill:#276257;}
	.st3{fill:#ACC2BE;}
	.st4{fill:#99B5B0;}
	.st5{fill:#CBD9D6;}
	.st6{fill:#5A867E;}
	.st7{fill:#286257;}
	.st8{fill:#2B655A;}
	.st9{fill:#41756B;}
	.st10{fill:#689189;}
	.st11{fill:#4A7B72;}
	.st12{fill:#E9EEED;}
	.st13{fill:#6B938D;}
	.st14{fill:#E7EDEC;}
	.st15{fill:#56847C;}
	.st16{fill:#A8BFBB;}
	.st17{fill:#FEFEFD;}
	.st18{fill:#608B83;}
	.st19{fill:#D6E0DE;}
	.st20{fill:#DBE5E2;}
	.st21{fill:#EEF2F1;}
	.st22{fill:#5F8A82;}
	.st23{fill:#356C61;}
	.st24{fill:#B7CBC7;}
	.st25{fill:#5C8880;}
	.st26{fill:#AFC5C1;}
	.st27{fill:#EDF2F1;}
	.st28{fill:#2E675D;}
	.st29{fill:#E0E7E6;}
	.st30{fill:#A1BAB6;}
	.st31{fill:#7A9E98;}
	.st32{fill:#E8EEED;}
	.st33{fill:#CFDCD9;}
	.st34{fill:#DCE5E4;}
	.st35{fill:#F6F8F7;}
	.st36{fill:#C2D2CF;}
	.st37{fill:#F3F6F6;}
	.st38{fill:#E1E9E7;}
	.st39{fill:#F0F4F3;}
	.st40{fill:#EAF0EE;}
	.st41{fill:#F8FAF9;}
	.st42{fill:#ADC3BE;}
	.st43{fill:#E4EBEA;}
	.st44{fill:#BBCDCA;}
	.st45{fill:#F7F9F8;}
	.st46{fill:#B8CBC8;}
	.st47{fill:#A1BAB5;}
	.st48{fill:#8CABA5;}
	.st49{fill:#CCDAD8;}
	.st50{fill:#E5ECEA;}
	.st51{fill:#B3C8C4;}
	.st52{fill:#C3D3D0;}
	.st53{fill:#FBFCFB;}
	.st54{fill:#AEC3BF;}
	.st55{fill:#F0F4F2;}
	.st56{fill:#F8F9F9;}
	.st57{fill:#9EB8B3;}
	.st58{fill:#FCFDFC;}
	.st59{fill:#CEDBD9;}
	.st60{fill:#E7ECEB;}
	.st61{fill:#CDDAD7;}
	.st62{fill:#E0E8E6;}
	.st63{fill:#B2C7C2;}
	.st64{fill:#E2E9E7;}
	.st65{fill:#DDE6E3;}
	.st66{fill:#EAEFEE;}
	.st67{fill:#FAFBFA;}
	.st68{fill:#6C948C;}
	.st69{fill:#F3F4F3;}
	.st70{fill:#336A60;}
	.st71{fill:#ECF0F0;}
	.st72{fill:#F3F6F5;}
	.st73{fill:#ECF1F0;}
	.st74{fill:#CCD8D5;}
	.st75{fill:#C7D6D3;}
	.st76{fill:#E6ECEB;}
	.st77{fill:#D0DDDB;}
	.st78{fill:#D8E2E0;}
	.st79{fill:#B6C9C5;}
	.st80{fill:#E8EEEC;}
	.st81{fill:#DDE6E4;}
	.st82{fill:#CAD8D6;}
	.st83{fill:#CEDBD8;}
	.st84{fill:#EBF0F0;}
	.st85{fill:#FAFBFB;}
	.st86{fill:#E2E9E8;}
	.st87{fill:#DAE4E1;}
	.st88{fill:#DBE5E3;}
	.st89{fill:#EFF3F2;}
	.st90{fill:#D4DFDD;}
	.st91{fill:#DAE3E2;}
	.st92{fill:#D7E2E0;}
	.st93{fill:#B1C6C2;}
	.st94{fill:#ECF0EF;}
	.st95{fill:#FAFAFA;}
	.st96{fill:#D5E0DE;}
	.st97{fill:#D3DEDC;}
	.st98{fill:#E9EFED;}
	.st99{fill:#F2F5F4;}
	.st100{fill:#E3EAE8;}
	.st101{fill:#C5D4D1;}
	.st102{fill:#C8D7D4;}
	.st103{fill:#DAE3E1;}
	.st104{fill:#F4F7F6;}
	.st105{fill:#F9FAFA;}
	.st106{fill:#B5C8C5;}
	.st107{fill:#BACBC9;}
	.st108{fill:#E6ECEA;}
	.st109{fill:#E6EDEB;}
	.st110{fill:#F1F5F3;}
	.st111{fill:#E1E8E7;}
	.st112{fill:#F1F5F4;}
	.st113{fill:#FBFBFB;}
	.st114{fill:#DBE4E3;}
	.st115{fill:#FCFCFC;}
	.st116{fill:#F5F7F7;}
	.st117{fill:#D1DDDB;}
	.st118{fill:#FCFCFB;}
	.st119{fill:#2F675D;}
	.st120{fill:#F4F7F5;}
	.st121{fill:#F5F7F6;}
	.st122{fill:#EAF0EF;}
	.st123{fill:#F5F8F7;}
	.st124{fill:#F0F3F2;}
	.st125{fill:#DBE4E2;}
	.st126{fill:#EDF1F0;}
	.st127{fill:#EBF0EF;}
	.st128{fill:#E9EFEE;}
	.st129{fill:#FDFDFD;}
	.st130{fill:#D6E1DF;}
	.st131{fill:#DEE6E5;}
	.st132{fill:#F4F6F5;}
	.st133{fill:#EDF2F0;}
	.st134{fill:#F9FAF9;}
	.st135{fill:#B5C9C5;}
	.st136{fill:#BACCC9;}
	.st137{fill:#EFF2F1;}
	.st138{fill:#E3EAE9;}
	.st139{fill:#F7F9F7;}
	.st140{fill:#CFDBD9;}
	.st141{fill:#F4F6F6;}
	.st142{fill:#E2EAE8;}
	.st143{fill:#F7F8F8;}
	.st144{fill:#DFE7E5;}
	.st145{fill:#DEE6E4;}
	.st146{fill:#E5ECEB;}
	.st147{fill:#D3DFDC;}
	.st148{fill:#DEE7E5;}
	.st149{fill:#C7D7D4;}
</style>
<g>
	<path class="st0" d="M227.7,279.1c3.3,1.1,2.4,4.6,3.2,6.7c2.3,6.2,6.4,10.2,11.5,13.9c3.6,2.6,2.7,6.1,0.6,9.3
		c-2.1,3.2-2.7,5.9,1,8.6c2.3,1.7,2.1,4.9,3.4,7.2c3.3,5.7,5,12.9,13.5,13.5c0.9,0.1,2.1,1.5,2.6,2.5c3.4,7.5,11.9,10.4,15.7,17.9
		c1.3,2.6,6.6,2.7,9.3,5.8c3.9,4.5,5.4,12.7,2.6,17.9c-1.8,3.4-3.7,1.6-5.5,0.4c-4.4-2.9-6.5-1-6.7,3.5c-0.4,7.8-4,12.1-11.9,13.4
		c-4.2,0.7-7.6,4-10.7,7c-2.3,2.3-4.2,4.8-0.6,8.2c2.3,2.2,3.5,5.6,5.3,8.4c2.3,3.6-1.5,5.7-1.8,8.5c-0.5,4.2,6.3,1.3,6,5.5
		c-0.2,2.9-0.8,5.7-1.5,8.5c-0.4,1.4-1.7,1.1-2.4,0.3c-1.9-2-4.8-2.9-5-6.6c-0.2-4.6-5.4-5.6-7.3-4.3c-5.2,3.6-8.9-0.8-12.4-1.9
		c-4.1-1.3-5.3-0.6-4.7,2.6c0.7,4-1.2,3.5-3.6,3.6c-4.7,0.3-9.5,0.8-14.2,1.2c-3.8,0.3-6.7,3.4-9,5.3c-3.9,3.3-8.4,3.2-12.3,5.3
		c-1.9,1-3.7,0.9-4.4-1.6c-2-7.3-8.9-6.1-13.9-7.2c-2-0.4-4.3,0.2-6.5-2.2c1.2,7.9,0.6,14.3-6.8,17.8c-1.9-1.5,3-7.7-3.9-5.1
		c-0.3,0.1-1.1-0.3-1.1-0.4c0.4-8.6-9.1-7.9-12.3-13c-0.6-1.1-0.2-2.1,0.4-3c1.4-1.7,3.3-1.1,5.1-1.3c1.8,0.5,3.7,1.1,5.4-0.2
		c0.3-0.4,0.5-0.8,0.7-1.3c0.4-1.8-0.3-3.5-0.6-5.3c-0.2-1.1-0.4-2.2-0.3-3.3c0.4-2.3,0.3-4.6,0.6-6.8c0.6-2.7,1.6-5.3,0.1-8
		c-2.2-4.3-3.5-8.9-3.8-13.8c-0.1-1.8,0.3-3.5,0.9-5.2c0.3-0.8,0.7-1.6,1.3-2.3c2.1-1.6,5.5-0.9,7-3.7c0.3-0.5,0.6-0.9,0.9-1.3
		c1.4-2.2,0.4-5,1.9-7.2c5.8-4.7,3.3-10.9,3.1-16.7c-0.6-2.4-2.1-4-4.5-4.5c-4.1-1.5-2.2-6-4.3-8.5c-0.6-1.6-1.1-3.3-1.4-5
		c-0.3-2.4-1-4.8-1.1-7.3c-0.2-3.5-1.5-5.9-5.3-6.3c-1.2-1.6-1.7-3.5-2.8-5.1c-0.6-1-1.1-2-1.4-3c-1.1-1.1,0.7-4.1-2.5-3.7
		c-1.5,0.6-2.6,0-3.5-1.2c-0.7-1.1-1-2.4-2.3-2.9c-1-0.3-2-0.5-3-0.6c-1.5-0.2-3-0.1-4.5,0.4c-0.4,0.2-0.8,0.4-1.2,0.6
		c-0.7,1.2,0.6,1.6,1,2.3c1.8,5.7-2.5,6.4-6.2,7.6c-1.7,0.3-3.4,1.4-5-0.1c-1.3-2.4-0.4-4.7,0.5-7c1.1-2,0.6-3.8-0.7-5.5
		c-2.6-4.4-2.1-9.5-2.7-14.3c-0.3-2.3,1-3.8,3.3-4.4c1.8-0.3,3.5-1,5.1-1.8c2.1-0.7,4-0.2,5.8,0.9c1.9,1.1,3.4,1.1,4.5-1.1
		c0.8-1.6-0.1-3.9,1.9-5c2.3-1.8,5-3.3,6.2-6.2c0.3-1.3,0.5-2.7,1.2-3.9c1.8-1.6,4.2,0,6-1.2c1.4-0.8,2.5-2,3.5-3.2
		c0.6-0.9,1.1-1.9,1.6-2.8c0.5-0.7,1.2-1.2,2-1.5c1.2-0.3,2.3-0.2,3.4,0.2c1.6,0.7,2.8,2,4,3.2c0.4,0.4,0.8,0.8,1.1,1.2
		c1.2,1.8,2.5,3.5,4.4,4.5c1.3,1,2.8,1.8,3.8,3.2c1.5,2.6,0.5,8,6.3,5.6c0.7-0.3,1.3-0.5,2-0.9c1-1.5-0.7-1.8-1.2-2.7
		c-0.4-0.4-0.7-0.9-0.8-1.5c-0.1-2.3,1.5-3.2,3.3-3.9c3.6-0.9,6.2,1.7,9.4,2.5c2,0.6,2.2,3.9,5,3.3c0.5-0.6,0.8-1.2,1-1.9
		c0.6-1.8,0.4-3.6-0.4-5.3c-1-2.3-0.1-3.9,2-5c3.8-1.9,5,1,6.5,3.4c2.4,2.5,5.4,2,8.4,1.6c1.6-0.2,3.2,0.4,4.8,0.2
		c0.5-0.1,1-0.2,1.6-0.2c1.4-0.1,2.6,0.3,3.6,1.4C225.8,276,226.9,277.4,227.7,279.1z"/>
	<path class="st1" d="M102.7,90.1c-2.6-5.2-4.6-10.3-1.2-16.1c1.5-2.6,2.3-5.3,6.3-2.4c3,2.1,6.7,1.4,9.9-0.4c2.3-1.9,5-1.7,7.7-1.1
		c5.4,1.9,7.6,6.7,10.2,11.2c0.2,1.6,0.7,3,2,4.1c0.4,0.4,0.7,0.7,1,1.1c0.9,1.4,2.2,2.1,3.7,2.4c0.8,0.2,1.5,0.6,2.1,1.2
		c3.2,7.4,10.7,4.1,15.9,6.4c1,0.4,2.4-0.2,3.6,0.1c2.8,1,5.6,2.5,8.7,2c0.8-0.1,1.6-0.2,2.4-0.2c2.4,0.1,3.6,2.2,5.6,3
		c2.2,0.5,4.3-1,6.5,0.1c3.5,1.3,4,5.1,6,7.6c0.8,1.7,1.7,3.2,3.2,4.2c0.4,0.3,0.8,0.7,1.1,1.1c1.7,2.6,4.2,1.7,6.6,1.6
		c2.1,0.8,4.3,1.5,5,4c-0.7,1.7-2.3,2.4-3.3,3.8c-1.5,1.8-2.6,3.9-4.9,4.9c-1.7,0.6-3.4,0.6-5.2,0.6c-2.5,0.2-5.1-1.2-7.5,0.4
		c-0.6,0.5-1.3,1-2.1,1.3c-1.5,1.1-4.3-0.3-4.7,2.7c0.7,3.7,3.4,6.6,4.7,10c0.4,1.6,0.5,3.3,0.9,4.9c0.4,1.6-0.1,3.2,0.2,4.7
		c0.2,0.5,0.4,1,0.6,1.5c0.8,1.7,2,3.3,2,5.3c-0.1,2.2,0.7,4.4,0.9,6.6c-1,2.6-0.8,5.5-2.2,7.9c-0.6,1-1.2,1.9-2.1,2.7
		c-2.2,1.8-4.9,2-7.6,2.2c-3.3,0.2-4.3,2-3.5,5c0.4,1.7,0.5,3.3-0.3,4.9c-0.7,1.5-0.6,2.9,0.4,4.3c0.2,0.5,0.4,1,0.5,1.5
		c0.1,1.6,0.6,3.1,1.1,4.5c0.3,0.8,0.4,1.6,0.3,2.4c-0.1,0.5-0.3,1-0.6,1.5c-0.5,0.7-1,1.3-1.6,1.9c-1.6,1.6-3.5,2.6-5.9,2.5
		c-0.8,0-1.6-0.1-2.3-0.3c-2.5,0.8-2.8,3.5-4.6,4.9c-0.8,0.9-1.8,1.4-2.9,1.7c-2.5,0.6-4.9,1.3-7,2.7c-0.5,0.3-1,0.4-1.6,0.5
		c-2.6,0-5.3-1-7.6,0.9c-3.5,0.6,0.7,1.8-0.2,2.6c-0.7,1.6-2.1,1.7-3.6,1.5c-2-0.6-3.8-1.6-4.6-3.7c-0.1-0.6,0-1.1,0.2-1.7
		c1.7-2,1.9-4.4,1.4-6.9c-0.3-1.8,1.2-3.5,0.6-5.4c-2.2-1.3-5-1.9-6.3-4.6c-0.9-2.2-0.2-4.4,0-6.6c-0.3-1.9-1.7-3.2-2.6-4.8
		c-0.9-2.8-2.3-5.3-4.7-7.2c-1.1-1.8-0.8-4.2-2.5-5.7c-0.7-0.8-1.4-1.7-1.9-2.7c-0.9-1.7-1.4-3.6-2.5-5.3c-2.6-3.5-1.8-6.3,1.7-8.5
		c1.4-1.6,2.8-3.2,1.1-5.4c-2.5,0.4-3.4,3.4-6,3.6c-1.8,0.3-3.5,0.3-5.2-0.4c-2.6-1.3-2.3-4.9-4.8-6.3c-1.8-0.2-3.2,0.4-4.5,1.5
		c-0.8,0.7-1.6,1.5-2.6,1.9c-0.9,0.5-2.5-0.8-2.9,1.1c0.7,1.9,2.6,2.8,3.5,4.5c0.5,1.8-0.3,3.7-0.1,5.5c0.1,0.8,0.2,1.6,0.3,2.3
		c0,1.1-0.1,2.1-0.1,3.2c-0.2,0.5-0.4,1-0.9,1.3c-1.3,0.9-2.8,1.6-4.3,2.2c-0.5,0.1-1.1,0.2-1.6,0.3c-2.7,0.2-5,2-7.7,2.5
		c-0.8,0.1-1.6,0-2.4-0.5c-1.4-1.5,0.1-3.7-1.3-5.2c-0.8-0.8-1.5-1.5-1.7-2.6c-0.6-2.9,3.8-5.1,1-8.2c-2-2.4-5.4-2-7.8-3.7
		c-0.8-0.7-1.4-1.6-2-2.4c-0.7-0.6-1.3-1.2-1.8,0.2c-0.1,1-0.2,2-0.8,2.8c-1.9,0.5-2.9,2-4,3.5c-1.2,1.1-2.6,1.7-4.1,2.1
		c-2.9,0.6-5.7,1.8-8.5-0.2c-3,1.5-4.5,0.8-3.4-2.7c1.6-5.3,0.2-8-5.7-8.4c-3.2-0.2-6.7-0.8-5.8-6c0.8-4.8,2.9-7,7.7-5.3
		c3.5,1.2,4.9,0.4,5.2-3.3c0.4-5,2.5-9.4,4.5-14.1c2.8-6.6,0.9-14.4,3.5-21.3c0.5-1.5-1.5-1.5-2.7-1.7c-1.9-0.3-5.3,0.5-4.7-2.3
		c0.5-2.6-2.5-7,2.8-8c1.1-0.2,1.2-1,1.1-1.8c-0.3-6.4,4.8-7.8,9-7.4c5.4,0.5,10.3-0.7,15.4-1.3c2.6-0.3,5.7-1.5,6.9,2.2
		c1,3.3,7.2,5.7,1.9,10.3c-1.1,1-0.7,2.5,0.6,3.1c1.8,0.9,3,3.4,5.4,2.5c2-0.8,1.9-2.9,2.3-4.8c0.4-2.2-4.5-3.4-1.2-5.6
		c3-2,4.6,1.9,7.1,2.5c0.7,0.1,1.1,1.1,1.7,1.7C101.8,91.9,102.3,91.1,102.7,90.1z"/>
	<path class="st2" d="M158.9,347.4c3.4,1.3,0,5.6,3,7c2.7,0.8,4.2,2.9,5.7,5c3.1,4.8-0.9,10.1,1.1,15.1c0.5,1.1-2.8,2.4-5,2.5
		c-2,2.7,0.8,6-1.2,8.7c-0.4,0-0.9,0.1-1.3,0.1c-1.3,3.6-4.9,2.5-7.4,3.7c0,0.9,0,1.8,0,2.7c-2.2,1-2.9,2.5-1.2,4.6
		c1,4.2,2.1,8.5,3.1,12.7c3,2.9,0.6,5.9,0.1,8.9c-0.3,2.4,0.5,5-0.6,7.4c0.4,0.9,0.8,1.8,1.2,2.6c-2.7,2.2,1.4,4.5-0.1,6.7l0.2,0.4
		c-2.3,2-4.9,0.9-7.4,0.5c-1.3,0.2-2.6,0.4-3.8,0.6c-2,2.8-4.8,3.8-8,4.2c-4.9-1.6-9.9-2.9-14.6-4.9c-6.1-2.6-12.8,0-18.8-2.4
		c-1.6-0.6-4.3,0.4-2.6-3.5c1-2.4-3.2-2.7-4.7-2.6c-3,0.2-5.6,2.5-5.6,5.6c0,1.9,2.3,1.8,4,0.9c1.4-0.7,3.2-0.9,3.5,1
		c0.2,1.3-0.8,2.1-2.8,2.8c-4.4,1.6-8.1,3-12.4-0.2c-1.3-1-3,0.8-4.6,1.4c-3,1.2-6,3.1-9.1,0.3c-1.1-1-2.1-0.5-3.4,0
		c-5.8,2.4-11.4-1.7-11.2-8.2c0.1-2.3,0.6-4.5,1-6.7c0.9-4.9,3.7-9.5,1.7-14.8c-0.7-2,0.7-4.1,1.7-5.9c2.7-4.9,4.9-9.8,5.9-15.4
		c1.5-8.5,5.5-15.8,12.8-21c2-1.5,2.7-4.1,3.4-6.5c0.9-1,1.3-2.4,2.2-3.4c4.6-4.1,4.5-10.6,7.9-15.4c1.3-1.4,1.9-2.9,1.8-4.8
		c0.1-0.8,0.2-1.5,0.3-2.3c0.2-1.9-0.4-3.6-1-5.4c-0.5-1.7-1.2-3.3-0.9-5.1c0.2-0.6,0.4-1.1,0.8-1.5c2.5-1,6,1.9,7.9-2.3
		c0.4-1,2.4-0.3,3,0.9c1.5,2.7,4.4,4.2,5.8,7c0.4,0.6,0,2,1.5,1.2c0.9-0.9,1.6-1.8,2.7-2.4c0.9-0.5,1.9-0.8,2.8-1.2
		c1.3-0.3,1.9-1.6,3-2.2c1.6-0.6,3.6-0.6,4.7-2.4c3.4-0.5,5.5-2,4.8-5.9c-1.4-0.9-2.6-1.8-1.2-3.7c0.5-0.1,1-0.1,1.5-0.2
		c1.8-1.3,4.2,0.7,6-1.1c0.8,0.4,1.6,0.9,2.3,1.3c1.9,0.5,0.7,3.6,3,3.8c0.7,0.2,1.3,1.6,2.1,0.2c2-1.7,2.8-0.5,3.1,1.4
		c0.2,1.2-0.3,2.5,0.9,3.4c0.3,0.6,0.6,1.2,0.9,1.9c0.4,2,2.1,3.4,2.5,5.4c2.6,2.6,2.9-2.1,5.4-1.4c-0.5,5.1,1.8,9.9,2.2,15.1
		C155.7,344.2,158.7,345.5,158.9,347.4z"/>
	<path class="st2" d="M90.1,173.8c0.5,0,1,0,1.6,0c2,0,3.4-1.4,4.9-2.3l0,0c1-1.2,0.5-2.4,0-3.7c-0.4-0.3-0.9-0.6-1.3-0.9
		c1.3-2,1.5-4.1,1.2-6.4c-1.7-1.8-3.3-3.5-5-5.3c1.2-1.9,3.1-0.9,4.6-1.2c0.5-0.8,1.1-1.6,1.6-2.4c1.8-1.3,4.1-0.9,5.9-1.9
		c3.3,1.4,1.6,5.5,4,7.3c2.3,1,4.4,0.7,6.5-0.6c2.9,0.2,1.7-6.1,6-3.8c1.2,2.6,1.5,5.2-0.9,7.4c-3.4,2.1-4,4.7-1.3,7.8
		c0.3,2.1,0.4,4.2,2.4,5.5c0.5,0.7,1,1.4,1.5,2c3,1.5,0.5,5,2.4,6.8c2.5,1.6,3.7,4.1,4.7,6.7c1.3,1.2,2.5,2.4,3.8,3.6
		c-1.8,2.3-3,4.8-2.5,7.9c0,1.8-0.7,3.5-1.3,5.1c-1,2.3-2.6,4-4.4,5.5c-1.8,1.4-3.5,1.2-5.5,0.1c-2.3-1.2-4.8-1.6-5.3,2.2
		c-0.1,0.9-0.3,1.7-0.9,2.4c-2.1,1.4-4.8,1.3-6.9,2.5c-1.9,1.1-5,1.6-3.2,5.1c3.2,0.6,5,2.3,4.4,5.8c-0.3,0.8-0.8,1.7-1.5,1.9
		c-5.3,1.6-7.5,5.9-9.3,10.6c-1.3,3-3.7,4.6-6.9,5.1c-1.6,1-2.9,2.4-4,3.8c-0.9,1.4-0.3,3.1-0.8,4.5c-2.6,3.7-5,1.4-7.3-0.3
		c-2.3-3.3-2.1-8.8-7.7-9.2c-0.4,0.7-0.6,1.4-0.9,2.1c-1.8,4-5,6.4-9.1,7.6c-2.6,0.2-4.6,1.4-6,3.7c-1.7,1.8-4.2,1.6-6.3,2.4
		c-2.4,0.8-5,0.9-7.1,2.5c-2.7,3.1-7.3,4.6-8.1,9.4c-0.4,1.6-1.8,2.8-3,2.3c-3.3-1.3-6.8-0.1-10-1.4c-0.8-1.6-3.4-1.9-2.8-4.7
		c0.5-1.9-1.2-3.6-3.1-4.1c-4.1-0.9-3.5-2.2-2-5.6c1.4-3-2.3-5.8-4.4-7.4c-3.5-2.8-3.6-4.5-1.1-8c2.6-3.5-0.1-6.2-3.2-7.5
		c-1.5-0.7-2.5-1.1-2.6-2.8c-0.2-3.2,2-0.4,2.8-1.1c2.2-1.9,4-4.2,6.8-5.3c0.3-0.1,0.6-1.5,0.5-1.6c-6-3.8-0.2-6.4,1.3-8.7
		c3-4.5,2.8-8.7,0.9-13.2c-1.4-3.5-3-7-4.8-10.3c-1.2-2.3-2.6-4.9-0.1-6.7c2.2-1.6,5.8-3.3,7.9-2c7.1,4.3,12.8-1.8,19.3-1.9
		c2.3,0,4.4-3.7,0.6-5.9c-5.1-3.1-0.1-4.5,1.2-5.4c4.1-2.8,7.9-6.1,12.7-7.8c2.5-1.9,6.4,0.1,8.6-2.8c1.7,0.4,2.8-0.6,3.9-1.5
		c0.7-1.4,2-1.8,3.4-2.1c0.2-1.1,0.3-2.3,0.5-3.4c0.6-2.9,1.8-2.5,3.3-0.7c0.5,0.9,0.9,1.8,1.4,2.7c2.3,2.1,6.1,0.8,8.1,3.6
		c2.1,3.1-1.4,5.9-0.6,8.9c0.3,1.3,1.1,1.5,2.2,1.3c2.5,2-2,4.1,0.1,6c0.9,0.1,1.7,0.2,2.6,0.3C85.5,176.5,87.5,174.3,90.1,173.8z"
		/>
	<path class="st3" d="M208.8,119.9c-1.5-1.2-3.9-1.4-4.8-3.5c-4.1-2.5,0-3.3,1-4.8c1.9-2.8,3.8-5.7,7.8-5.5c2-0.1,3.8-0.6,5.3-1.9
		c1.5-1.2,2.5-3,4.3-4c2.6-1.2,5.2-0.3,7.8,0c3.5,0.6,6.3,2.8,9.4,4.4c1.6,0.3,3.4,0.3,5,0.8c2.3,0.8,4.2,2.5,6.7,2.6
		c1.6,0.5,3.1,0.1,4.7,0.1c2.1,0.2,3.4-1.4,5.1-2.2c1.2-0.4,2.6-0.3,3.6-1.4c0.6-0.6,1.2-1,1.9-1.4c1.9-0.5,4.2,0.1,5.4-2.3
		c2-5.8,5.4-10.6,10.4-14.1c2.4-0.4,3.9,0.9,5.1,2.7c1.2,1.9,2.7,3.1,5.1,2.2c0.9-0.2,1.7-0.2,2.6-0.2c5.9,0.6,5.4,4.1,3.7,8.1
		c-0.1,0.4-0.7,1,0.1,1.2c0.7,0.2,1.2-0.7,1.8-1.1c0.6-0.5,1.3-0.9,2.1-0.9c1.8,0,3.9,0.6,3.4,2.6c-1.5,5.3,0.4,11.5-4.9,16
		c-5.8,5-5.1,8.8,1.3,13.3c4,2.8,7.8,6.1,11.5,9.4c2.6,2.4,2.3,5.5,0.9,8.4c-2.3,4.8-1.3,8.7,3,11.7c0.5,0.4,1.5,0.8,1.5,1
		c-1.3,7,6.2,14.1-0.5,21.1c-3.7,3.8,0.8,6.9,2.3,9.1c2.2,3.2,2.6,5.7,1.2,9c-4.5,2-9.2,3.6-14.2,3.3c-2.4-0.1-4.5,0.4-6.4,1.9
		c-1.9,1-1.9,3-2.5,4.8c-0.3,0.5-0.7,0.9-1.2,1.2c-2.9,1.6-6.2,2.1-9.4,2.7c-3.6,0.3-7,0-10-2.1c-2.3-1.5-4.6-1.3-7-0.1
		c-0.6,0.1-1.2,0-1.7-0.2c-1.5-1.6-1.1-3.8-2.1-5.6c-0.6-3.6-5.4-3.7-5.9-7.3c0.2-0.9,0.7-1.5,1.3-2c2.1-1,2.3-2.5,1-4.3
		c-0.4-1.1-0.6-2.2-0.5-3.3c2.1-5.5-3.7-3.4-5.1-5.4c-1.5-0.7-3.2-0.8-4.9-1.2c-1.1-0.3-2.1-0.9-3.1-1.5c-4.3-2.3-9.6-0.9-13.8-3.6
		c-3.4-2-5.6-4.7-5.2-8.9c1.2-1.9,1.5-4.1,1.2-6.3c0.1-0.6,0.2-1.1,0.3-1.6c0.6-2.7,0.8-5.3-0.1-7.9c-0.4-0.7-0.8-1.3-1.4-1.8
		c-0.8-0.7-1.8-1.3-2.3-2.3c-0.7-1.8-0.2-3.4,0.6-5c0.3-1,2.2-1.7,0.4-3c-1-2.6,0.1-5.1,0.3-7.6c-1.7-4.6-6-3.3-9.4-3.9
		c-0.8-0.1-1.6-0.3-2.4-0.8c-1.3-1.2-2.2-3-3.9-3.8c-1.5-1.5-3.6-2.2-5.3-3.3C209.3,120.9,209,120.4,208.8,119.9z"/>
	<path class="st2" d="M282.5,87.6c-3.7,4.3-7.9,8.3-10,13.9c-1.4,2.8-4.9,0.3-6.4,2.6c-0.3,0.1-0.5,0.3-0.6,0.6
		c-1.5,0.5-3.1,0.3-4.5,1.3c-1.4,1.5-2.8,2.7-5.1,2.3c-1.4-0.1-2.9,0.4-4.3,0c-2.9,0.2-4.6-2.3-7.1-3c-1.4-0.2-2.9-0.1-4.3-0.1
		c-4.2-0.7-6.8-5.3-11.5-4.6c-2.2-0.1-4.7-2.6-6.5,0.8c-1.4,0.9-1.2,3.3-3.3,3.7c-2.1,0.3-3.7,2.2-6,2c-4.4-0.8-6.2,2-7.5,5.5
		c-3,0.7-5.5,4-9,1.3l0,0.1c-1.8-0.8-2.6-2.5-3.8-3.8c-2.7-1.9-1.9-6.8-6.1-7.5c-2.1-4.3-4.6,1.9-6.8-0.2c-1.5-1.2-2.9-2.5-4.4-3.7
		c-1.7-2.1,0.3-3,1.3-4.3c1.9-1.6,3.1-3.9,5.1-5.4c1.3-1,2-2.4,2.5-3.9c0.5-1.5,0.8-3-0.5-4.2c-2.8-1.6-4.7-3.9-5.5-7.1
		c-0.3-2.9,1.8-3.8,3.8-4.8c1.1-0.5,1.9-1.4,2.2-2.6c3.5-3.4,6.7-7,11-0.8c1.9,2.8,7.3,1.5,8.9-1.7c4.6-9.4,5.1-9.8,15.7-11.2
		c2.4-0.3,2.4-0.3,6.1,3.8c-0.3-4.1,0.3-7.4,3.7-9.4c0.3-0.2,0.7-0.8,0.9-0.8c7.1,2.2,7.9-6.8,13.3-7.5c3-0.2,6,0.2,8.7-1.3
		c6.5-2.3,3.9,4.3,6.1,6.2c0.4-0.4,0.9-0.5,1.5-0.4c1.8,1.3,4,2,4.9,4.2c1.1,1.8,3,2.9,4.3,4.4c1.8,2,2.3,3.2,5.4,1
		c4.9-3.5,6.8-2.1,6.8,4c0,1.6,0.6,2.4,1.6,3c3.2,2,3.5,4.5,1.9,7.6c1,0.5,0.5,1.8,1.3,2.5c3.4,2.4,6.9,4.1,11.4,4.1
		c3,0,3.9,4.2,4.4,6.5c0.8,4.1,1.9,8.1,3.6,11.9c1.6,3.7-0.5,4.9-3,6.2c-0.5,0.5-1,1-1.5,1.5c-0.5,0.3-1.1,0.2-1.5-0.2
		c-0.6-0.9-0.6-1.9-0.3-3c1.4-4.5-0.4-5.7-4.6-4.6c-0.8,0.1-1.6,0.2-2.5,0.2c-3,1.1-3.8-1.4-5.1-3.2
		C286.2,88.1,285.2,85.6,282.5,87.6z"/>
	<path class="st4" d="M95.1,335.6c-0.2,0.5-0.3,0.9-0.5,1.4c-1.8,1.3-0.3,3.8-1.9,5.2c-3.1,5.3-2.5,12.5-8.7,16.1
		c-1.3,1.1-2.5,0.9-3.8,0c-3.9-3.4-8.7-4.5-13.7-4.5c-3.1,0-6.4-0.6-7.8-2.9c-2.4-4-6.1-5-9.9-6.3c-1.1,0.2-1.4-0.4-1.4-1.4
		c0.6-1.6,2.5-2.3,2.7-4.2c-2.1-3.7-4.3-7.1-4.1-11.8c0.2-3.6-5.4-5.7-11.7-5.1c-2.6,0-4.7,1.4-6.6,3.1c-1.6,0.8-3.2,1.4-5.1,1
		c-2.3-1.6-5.9-1.2-7.4-4.2c-0.2-1.9,1.4-2.9,2.2-4.3c4.6-7.5,4.5-7.3-2.7-12.5c-4.8-3.5-8.1-8.6-6.8-14.8
		c1.2-6.1,3.9-11.6,11.4-12.4c0.7-0.1,1.4-0.8,2.1-1.3c1.1-1.8,2.6-1.5,4.2-0.8c4.5,1.9,6.3-0.2,6.9-4.4c4.3-0.8,3.5-6.8,7.7-7.6
		c2.4-1,5-1.2,7.2-2.7c2-1,4.7,0.1,6.1-2.4c1.1-3.1,4-3,6.4-3.7c4.6-0.8,6.4-5.5,10.1-7.6c0.6-0.2,1.2-0.2,1.8-0.2
		c3.8,0.7,3.6,4.3,4.9,6.7c1.5,2.4,4,4,5.6,6.2c0.9,2,1.3,4-0.5,5.7c-1.9,1.1-4.1,2-4.1,4.7c-1.6,4,3.4,6,2.9,9.7
		c-0.5,1.7-1.8,2.9-3,4c-0.4,0.4-0.8,0.7-1.3,1c-2.1,1-2.8,3-3.7,4.9c-0.3,0.5-0.6,0.9-0.9,1.3c-0.9,1.1-2.2,2.1-1.2,3.8
		c2.1,3.2,4.7,4,8.1,1.9c0.5-0.2,1.1-0.4,1.6-0.6c1.7-0.5,3.4-1.1,5.2-0.5c1.9,1,3.4,2.5,4.4,4.4c0.7,3.8,2.1,7.3,3.5,10.9
		c0.2,1.2-0.3,2.3-0.9,3.3c-3,3.1,0.7,6.3-0.2,9.5c-0.2,1.7,0.5,3.3,1,4.9C94.3,331.2,94,333.6,95.1,335.6z"/>
	<path class="st5" d="M270.3,211.6c0.3,0,0.6-0.1,0.9-0.1c2.3-1.4,4.8-2.6,7.1-0.4c3,2.9,6.7,2.3,10.2,2.4c3.4-1.1,7.4-0.4,10.2-3.2
		l-0.1,0.1c1.5-1.4-0.3-3.7,1.3-5.1c2.5-3.2,5.2-3.7,9.5-3.2c4,0.6,8.3-2.8,12.9-1.8c1.6,1,3.1,2.5,4.8,2.8
		c8.5,1.6,8.6,9.4,9.2,14.8c0.8,7.7-1.4,15.6-5.7,22.5c-2.4,3.8-4.6,3.9-6.9,0c-2.3-4-3.9-8.7-10-8.3c-1.4,0.1-2.8-0.8-3.7,0.9
		c-0.8,1.5,0.1,2.4,1,3.2c2.7,2.6,2,2.8-1.2,5.2c-4.6,3.5-10.9,4-14.5,8.9c-1.3,1.8-3.4,1.1-5.2,1.3c-3.4,0.5-7.2,0.1-7.9,5
		c-0.5,4-4.4,0.3-6,2.4c-3.5,4.7-10.1,5.8-13.2,11.1c-0.3,0.6-1.7,1.2-2.1,1c-5-3-9.3,1.1-13.6,2.1c-5.7,1.3-7.7,7.2-9.2,12.7
		c-4.3-1.6-3.3-9-9.4-8.1c-2-0.4-3.5-1.4-4.3-3.3c-0.9-1.4-2.6-2.1-3.3-3.7c-0.8-2-2.6-4-0.7-6.3c2.2-2.7,4.9-3.5,8.1-2.3
		c2-2,5.6-2.2,6.4-5.6c-0.5-2.4-0.9-4.7-0.5-7.1c0.2-0.5,0.6-0.9,1-1.2c2-1.2,4.7-1.2,5.9-3.6c1-1.8,3.2-2.5,3.9-4.5
		c-0.2-1.7-1.6-2.5-2.7-3.6c-0.4-0.3-0.8-0.7-1.2-1c-1.2-1.2-2.9-1.3-4.4-2.1c-1.9-1.3-3.8-2.7-5.6-4.2c-2.1-2.6-2.2-5.7-2.2-8.8
		c1.9-3.4,1.5-6.9,0.6-10.5c0-4.4,2.4-7.2,6.3-8.2c4.3-1.1,8.2-2.8,12.1-4.7c5-2.4,9.6-0.8,14.1,1.6c1.6,2.6,5.8,2.8,6.4,6.5
		C269.1,207.4,268.1,209.9,270.3,211.6z"/>
	<path class="st6" d="M182.9,89.9c-2.6,0.9-2.3,4.9-5.4,5.2c-3.3,0.1-2.3,3.7-4.1,5c-3.4,0.1-6.7-0.2-9.4-2.5c-6.2-2.9-8-8-7.1-14.4
		c-0.2-2.4-1.3-1.9-2.6-0.8c-2.7,1.9-5.4,3.9-8.3,5.6c-1.6,0.1-3,1-4.6,1.3c-1.9-0.2-2.7-1.8-3.7-3.1l-0.1,0
		c-1.4-0.9-2.1-2.3-2.3-3.9c-3.2-3.5-5.1-8.1-8.9-11.2c-2.6-1.9-6,0.9-8.5-1.6c-2.7-1.4-4.3-3.6-5.5-6.4c-0.5-1.1-0.7-1.7,0.5-2.5
		c3.9-2.3,4.2-3.5,0.4-5.8c-2.3-1.3-2.1-2.7-1.8-4.5c0.7-3.8,0.2-6.4-4.5-4.8c-1.4,0.5-2.5,0.3-3.2-0.9c-1-1.7,1.2-1.7,1.5-2.5
		c2-4.5,7-2.5,9.8-5c0.6-2,2.3-3.9,1.3-6.2c-2.9-5.5-7.4-9.9-9.9-15.7c-1.9-4.2-2.9-6.5,3.4-5.9c5.9,0.6,11.8,0.3,16.7,4.8
		c2.5,2.3,5.7-0.4,7.9-1.6c2.8-1.5,4.1-0.5,6.4,0.6c3,1.5,4.4,5.1,9.1,4.9c3.4-0.1,3.7,11.1,0.4,14.4c-1.1,1.1-3.2,1.2-3.5,3.4
		c3.9,1.5,13.5-7.1,10.2,6.6c5.5-6.1,8-6.1,16.6,0.5c2.7,2,4.8,2.5,7.1,0.3c2.3-2.2,5.7-4.3,7.3-1.5c1.7,2.7,2.2,7.2-0.6,10.5
		c-1.5,1.7-3.3,3.2-5.2,4.5c-5.8,3.9-5.8,3.8-0.1,8.3c0.3,0.2,0.4,0.7,0.6,1.1c-1.7,1.9,1.7,2.2,1.2,3.7c-2.1,0.6-4.6,0.8-5.1,3.6
		c1,2.9,1.5,6.2,5.2,7.1c1.6,1.4,1.6,2.9,0.5,4.6C184.7,87,183.7,88.4,182.9,89.9z"/>
	<path class="st7" d="M22.7,325.5c1.7-0.5,3.4-0.9,5.2-1.4c1.7-2.2,4.3-2.6,6.7-3.5c7.9-2.3,13.5,1.8,12.6,9.8
		c-0.5,4.3,5.4,4.6,4.6,8.7c-1.2,1.4-3.2,2-3.9,3.9c-0.1,0.8,0.1,1.3,0.9,1.4c-1.3,3.3-7.1,3.5-9.7,0.2c-2.1-2.7-3.9-5.2-7-0.7
		c-0.9,1.3-3.3,1.2-4.3-1.3c-0.7-1.9-1.9-3.6-2.8-5.5c-2.3-4.9-5.2-9.3-9.6-12.4C18.2,322.6,20.4,324.5,22.7,325.5z"/>
	<path class="st8" d="M260,43.7l-0.6,0c0,0-0.6,0-0.6,0c0.7-1.8-1-5,2.8-5.1c-0.3-2.6-0.3-5.2-0.9-7.7c-0.3-1.1-0.7-1.8,0.4-2.4
		c1.7-1.2,3.5-2.2,5.7-1.9c1.2-0.2,1.7,2.8,3.4,0.8c1.9-2.2,4.7-2.2,6.4-0.8c2.3,1.8-0.5,3.4-1.4,5c-2.6,4.5,3.5,4.1,3.9,6.8
		c0.6,1.5-0.1,1.7-1.4,1.5c-4.4-0.4-8,0.3-8.6,5.8c-0.2,1.9-1.6,1.2-2.7,0.5C264.1,45.5,261.6,45.6,260,43.7z"/>
	<path class="st9" d="M286.5,70c-1.1-0.5-1.4-1.4-1.3-2.5c4.4-0.8,4.3-3.5,2.6-6.9c1.9-0.3,4.1,3.9,5-0.8c0.4-1.9,1.6-0.4,2.1,0.1
		c1.3,1.2,3.3,2,3.1,4.3c-0.1,1.5-1.2,1.9-2.5,2.1C292.1,66.6,288.6,66.7,286.5,70z"/>
	<path class="st10" d="M193.1,37.5c-3.4,0.5-5.8-1.2-6.7-3.8c-0.6-1.6,0.8-3.6,3.3-3.3c3.5,0.4,5.8,2.3,6.4,5.6
		C196.5,38.4,194,37.2,193.1,37.5z"/>
	<path class="st11" d="M267.8,27.5c-2.3,0-4.3,1.8-6.7,1.1c0.6-1.9-0.4-4.1,1.1-5.9c1.4-1.8,3.4-2.8,5.3-2.4
		c2.8,0.7-0.3,2.5,0.2,3.8c0.4,1.1,0.8,2.3,1.2,3.4C268.5,27.9,268.2,28,267.8,27.5z"/>
	<path class="st12" d="M33,271.8c0,4.9-2.8,7.3-7.1,5.7c-1.5-0.6-2.7-1.8-4.5-0.9c-0.8-0.8-1.6-1.6-2.4-2.3c3.9-2.9,8.4,1.7,12.4-1
		C30.9,271.6,31.7,271.5,33,271.8z"/>
	<path class="st13" d="M94.1,12.4c-0.4-3.3,0.1-6.3,2.6-8.7c0.3,0,0.5-0.1,0.8-0.1c-1.4,3.2-1.2,5.9,2.4,7.1
		c-1.3,3.3-3.6-0.2-4.9,1.5C94.8,12.7,94.5,12.8,94.1,12.4z"/>
	<path class="st14" d="M252.6,37.4c-2.2,5.2-5.5,3-8.7,1.3c0.5-0.5,1.1-1,1.6-1.5c1.4-2.6,3.6-1.7,5.8-1.3
		C251.7,36.5,252.2,36.9,252.6,37.4z"/>
	<path class="st15" d="M104,19.9c-0.1,2.5-1.5,2.8-3.1,2.6c-1.4-0.2-3.1-0.4-3.1-2.3c0-2,1.9-2,3.2-2.1
		C102.6,17.8,103.9,18.5,104,19.9z"/>
	<path class="st16" d="M39.7,85.4c-0.7,1.1-1.6,1.9-2.9,1.9c-1.2,0.1-2.1-0.8-2-1.8c0.2-1.4,1.5-1.8,2.8-1.8
		C38.7,83.8,39.6,84.1,39.7,85.4z"/>
	<path class="st1" d="M251.2,36c-1.9,0.4-3.8,0.9-5.8,1.3c-1.4-1.9-2.8-0.3-4.3,0c-1-0.4-1.8-1-1.1-2.3
		C243.8,35.4,247.7,33.8,251.2,36z"/>
	<path class="st17" d="M137.2,440.7c2.7-1.4,5.4-2.8,8-4.2c-0.5,1.1-0.9,2.2-1.4,3.3C141.9,441.5,139.7,442,137.2,440.7z"/>
	<path class="st18" d="M287.3,58.3c-1.1-1.6-4.4-1-3.5-4.3c0.2-0.8,0.3-1.6,1.4-1.1C287.4,54,288.3,55.6,287.3,58.3z"/>
	<path class="st19" d="M116.5,31.1c3.5,2.9,1.8,4.7-1.3,6.2c-0.4-0.4-0.9-0.8-1.3-1.3c-0.8-1.7,0.4-2.7,1.4-3.7
		C115.7,32,116.1,31.5,116.5,31.1z"/>
	<path class="st20" d="M22.7,325.5c-2.5,0.7-4.7-1.9-7.3-0.8c-0.1-0.9-0.1-1.9-0.2-2.8C17.3,324.2,21.8,321.2,22.7,325.5z"/>
	<path class="st21" d="M57.8,161.5c-1.6,4.7-5.7,2-8.6,2.8c-0.1-0.4-0.1-0.9-0.2-1.3C51.9,162.5,54.8,162,57.8,161.5z"/>
	<path class="st22" d="M94.7,21.3c2.4,1.3,1.7,3.2,3,5.1C93.8,25.6,93.6,23.9,94.7,21.3z"/>
	<path class="st23" d="M240.1,35c0.4,0.8,0.7,1.5,1.1,2.3c-1.4,0.8-3.1,2.8-4.4,0.7C236.3,37,237.5,34.4,240.1,35z"/>
	<path class="st24" d="M260,43.7c2.3,0.4,4.5,1.2,6.3,2.6c-0.4,0.4-0.7,0.8-1.1,1.1C263.4,46.2,260,47.2,260,43.7z"/>
	<path class="st25" d="M115.3,32.4c0.4,1.6-0.7,2.6-1.4,3.7c-1.4,0-2.8-0.3-2.5-1.9C111.7,31.9,113.7,32.3,115.3,32.4z"/>
	<path class="st26" d="M94.1,12.4c0.3-0.1,0.6-0.1,0.9-0.1c-0.1,2-0.5,3.9-1.8,5.8C92.6,15.8,92.3,13.9,94.1,12.4z"/>
	<path class="st27" d="M267.8,27.5c0.4,0,0.7,0,1.1,0c0.4,0,0.8,0,1.2,0c1.7,1.1,2.1,3.2,0.5,3.6C268.3,31.7,268.3,29,267.8,27.5z"
		/>
	<path class="st28" d="M277.6,40c0.5-0.5,0.9-1,1.4-1.5c1.9,1.6,1.3,4.2,0,4.5C276.8,43.6,278.1,41.1,277.6,40z"/>
	<path class="st29" d="M118,69.6c2.7,1,6-0.8,8.5,1.6c-2.9,0-5.8,0-8.7-0.1C117.8,70.6,117.9,70.1,118,69.6z"/>
	<path class="st30" d="M52.6,78.9c2.2-1.8,3.8-1.5,5.8-0.9C56.7,79.1,55.2,79.9,52.6,78.9z"/>
	<path class="st31" d="M97.5,3.6c-0.3,0.1-0.5,0.1-0.8,0.1c-0.2-1.8,0-3.3,2.1-3.7c0.3-0.1,1,0.3,1,0.5C100,2.2,99,3.1,97.5,3.6z"/>
	<path class="st32" d="M225.1,274.3c1.3,1.2,2.5,2.5,3.8,3.7c-0.4,0.4-0.8,0.7-1.2,1.1c-2.2-0.2-3.3-1.5-3.6-3.6
		C224.3,274.9,224.6,274.5,225.1,274.3z"/>
	<path class="st33" d="M184.1,69.9c-0.9-1.1-2.9-1.8-1.2-3.7c0.5,0,0.9,0,1.4,0C185.1,67.5,186.3,68.8,184.1,69.9z"/>
	<path class="st34" d="M102.7,90.1c0.4,1,2,2.2,0.5,3.1c-1.8,1.1-2.3-0.7-2.8-2C101.2,90.8,102,90.4,102.7,90.1z"/>
	<path class="st1" d="M258.3,28.7c0.8,2.2-0.5,3.1-1.3,4.4C255.9,31.3,256.6,30.1,258.3,28.7z"/>
	<path class="st35" d="M80.3,358.2c1.3,0,2.5,0,3.8,0c0.1,1.9-1.3,2.1-2.6,2.5C81.1,359.9,80.7,359,80.3,358.2z"/>
	<path class="st36" d="M80.4,298c-0.4,0-0.9,0.1-1.3,0.1c-3.6,1.9-6.5,1.1-8.9-2.2c-1.5-2.3,0.5-3.7,1.4-5.4l-0.1,0
		c3.3-0.8,1.7-5.6,5.1-6.3l-0.1,0c1.6,0,2.7-0.8,3.6-2.1c2.2-1.6,0.9-3.6-0.2-4.6c-2.6-2.5-2.5-5.6-2.5-8.7c0.5-2,1.9-2.7,3.8-2.7
		c3.7-1.8,1-5,1.7-7.5c-0.1-1.6,2.3-2.5,1.2-4.4c-0.1-1.3-1.7-2.5,0-3.8c1.9-1.1,3.3-2.9,5.1-4.1c3,0.7,4.7-0.9,6.1-3.2
		c1-2.5,3.1-4.4,3.1-7.3c0-2.3,1.9-2.5,3.5-2.7c2.7-0.4,3.8-2.2,4.6-4.4c-0.6-2.7-1.8-4.5-5-3.4c-1.8-4.7,1.8-6.2,4.8-7.7
		c1.8-0.9,4-0.8,6-1c2.3-0.9,1-2.8,1.2-4.2c1.7-2.4,3.8-3.1,6-0.7c2,2.1,3.5,1.1,5.1-0.4c1.6-1.6,3.3-3.2,4.2-5.3
		c2.7-5.3,6.9-1.4,10.4-1.8c1.9,2.8-2.8,3.9-1.6,6.5c-0.6,2.6-0.2,5.4-2.4,7.5l0-0.1c-0.9,2.6,1.5,2.7,2.8,3.7
		c3.7,2.7,5.5,0.6,6.9-2.7c3.9-3.2,5.6-0.2,7.2,2.7c1.1,1.5,2.8,2.5,4,4c1,1.2,2.5,1.9,3.8,2.8c0.4,0.3,0.7,0.8,1,1.3
		c0.6,1.6,0,3.2-0.2,4.7c0,1,0.2,2.1,0.3,3.1c-0.1,2.4-2.1,2.9-3.8,3.7c-0.5,0.2-1,0.4-1.4,0.7c-2.4,2.2,0,5.5-1.8,7.8
		c-0.2,0.5-0.5,1-0.8,1.4c-1.3,1.4-1.7,3.1-1.1,4.9c1,1.6,3.7,1.1,4.1,3.4c0.5,2.9-1.2,5.6-1.1,8.5c0.3,1.1,0,2.1-0.9,2.8
		c-1.8,0.7-3.2,1.9-3.7,3.8c-2,2.5-4.1,0.6-6.2,0.1c-1.8,1.4-0.7,3.1-0.4,4.7c-1.4,3.4-4.1,5.2-7.4,6.2c-2,1-2,1-0.9,4.2
		c-0.7,4.1-2.1,6.4-6.3,2.8c-1.4-1.2-3.2-2-5.2-1.8c-0.4,2.2-4-1-3.7,2.2c-1.7,0.3-4.4,0.2-3.5,2.8c1.8,4.9-0.1,10.6,3.4,15
		c0.6,1.7,0.1,3.4,0.1,5.1c-0.7,2.4-1.6,4.8-1.4,7.4c-0.3,0.4-0.6,0.8-1,1.2c-0.4,0.9-1.2,1.7-1.5,2.6c-0.6,1.1-1.7,0.9-2.7,1
		c-1.6-0.5-2,1.1-3,1.6c-0.5,0.2-0.9,0.3-1.4,0.1c-1.8-3.6-7.7-3.3-7.1-10.2c-2.5,6.1-2.5,6.1-9.4,3.9c-1.4-2-2.7-4-2.3-6.7
		c0.6-2.2,4.8-3.4,1.6-6.5c-1.4-3.3-2.5-6.7-3.1-10.2c-1.1-1.2-1.7-2.7-3.3-3.4C83.5,295.6,82,296.9,80.4,298z"/>
	<path class="st2" d="M155.4,240.5c0.4,0,0.8,0,1.2-0.2c1.2-1.1,5.3,0.9,3.7-3.3c-1.2-0.5-1.3-1.5-1.3-2.6c2.1-1.4,2.4-3.2,1.3-5.3
		l0.2,0c-1.6-1.1-3.4-1.9-4.6-3.4c-1.2-2.1-4.2-2.2-5-4.7c0-1.5-0.8-3.1,0.7-4.3l-0.1,0.1c2.1-2.3,5.6-1.7,7.7-3.8
		c0.9,0.1,1.9,0.2,2.2-1c2-1.4,3.5-3.4,5.3-5.1c0.7-0.1,1.4-0.1,2.1-0.2c1.8,1.3,3.5,0.5,5.3-0.1c1.8-0.6,1.4-2.6,2.4-3.6l0,0.1
		c1-1.2,2.3-1.8,3.9-2c4.5,0.4,6.4,3.5,7.9,7.3c0.2,1.5,0,3.1,1,4.4c1.5,1.4,3.3,0.9,5.1,1.1c2.1,0.1,4.2-0.1,6.3,0.2
		c4.5,1.3,6,4.4,5.7,8.8c-0.5,1.7-1.6,3.4-0.3,5.2c0.7,1.7,1.4,3.3,3.6,3.4c1.4,0.1,2.8,0.1,4.1,0.4c1.1,0.3,2.1,0.8,3.1,1.3
		c2,1.1,4.2,1.3,6.3,2.1c2.7,0.8,4.5,3.1,7.2,3.8c1.6,0.5,3.1,0.6,3.3-1.7c0.2-1.2,0.4-2.3,1.2-3.2c0.5-0.4,1.1-0.6,1.7-0.6
		c2.1,0.6,4.4,0.4,6,2.3l0-0.1c1.9,1.5,3.6,3.2,5.1,5.1c0.3,3.8-5,1.1-5,4.5c-1.5,3.3-5.2,2.5-7.6,4l-0.2-0.1c-0.1,3-0.2,6,1,8.8
		c-1.3,2.9-5.1,2.6-6.6,5.3c-3.7-2.8-6.1-0.6-8.2,2.3c-0.9,2.1,1,3.2,1.5,4.8c-0.4,1.6-0.7,3.3-2.5,4.1l0.1-0.1
		c-1.7,1.1-3.5-1.8-5.2,0.1c-3.4,1.3-6.7,1.3-9.6-1.2c-1.7-1.4,0.8-8.7-5.3-3.8c-2,0.7-2.6,1.8-1.2,3.6c1.1,2.1,0.9,4.2,0.1,6.3
		c0,0.8,0,1.7,0,2.5c-4,1.4-4.3-3.1-6.6-4.3c-3.3,0.3-5.5-3.1-8.8-2.5c-1.9,0.9-5.5,0.6-3.1,4.5c0.3,0.1,0.5,0.1,0.8-0.1
		c1,1.6,3.6,2.8,1.1,5.1c-0.7,0-1.5,0.1-2.2,0.1c-5.3,2.5-5.9-1.2-6.4-5c-0.2-2.2-2.2-2.5-3.6-3.5c-2.7-1-3.8-4-6.1-5.5l0.1,0.1
		c-0.9-1.3-1.8-2.6-3-3.6c-1.5-1.4-3.7-0.7-5.2-1.8c-2.4-1.8,1.3-4.2-0.6-6c-0.5-1.2-1.3-1.5-2.4-0.7c-1.9,1.4-2.5,0.5-2.6-1.4
		c1-2,0.4-4.6,2.2-6.4c0.3-0.3,0.4-0.7,0.3-1.1C156.3,247.2,153.8,243.3,155.4,240.5z"/>
	<path class="st37" d="M173.8,278c1.8,2.4,0.6,7.8,6.3,6.4c-5.3,3-6.1,2.3-7.7-6.2C172.7,277.6,173.2,277.6,173.8,278z"/>
	<path class="st38" d="M192.7,277.1c3.4-0.3,2.7,5.1,6.3,4.6c-4.5,2.5-5.6-0.4-6.2-4L192.7,277.1z"/>
	<path class="st39" d="M192.7,277.1c0,0,0.1,0.6,0.1,0.6c-3.8,1.8-6.4-2.4-10-1.8c-0.3-0.3-0.4-0.6-0.3-1c0.1-0.3,0.2-0.5,0.3-0.5
		C186.6,273.1,189.3,276.3,192.7,277.1z"/>
	<path class="st40" d="M200,269.3c0.9-2.2,2.9-3.5,4.8-2.6c3.3,1.5-0.5,4.3,0.5,6.4C202.9,272.8,204.9,266.1,200,269.3z"/>
	<path class="st41" d="M155.2,259.1c3.4,1.2-0.7,4,1.2,5.5c0.7,0.6,0.7,1.2,0,1.8c-0.5,0.5-1,0.9-1.5,1.4
		C152.5,264.8,155.1,262,155.2,259.1z"/>
	<path class="st42" d="M140.6,315.8c-5.1,2-1.7-2.8-3-3.8C142.6,310,139,314.9,140.6,315.8z"/>
	<path class="st43" d="M149.1,436c2.4-1.3,5,0.3,7.4-0.5C154.2,438.9,151.8,438.8,149.1,436z"/>
	<path class="st44" d="M162.7,385.8c-0.2-2.3-0.1-4.6-0.7-6.8c-0.6-2.2,0.6-1.9,1.9-1.9C163.4,380,165.5,383.2,162.7,385.8z"/>
	<path class="st40" d="M163.9,270.4c4-0.7,3.7,4.1,6.4,5c-0.5,0.7-1.1,0.7-1.7,0.2C165.4,275.4,165.3,272.4,163.9,270.4z"/>
	<path class="st45" d="M220.1,274.3c0.5-1.6,1.1-3.1,2.5-4.1c0.9,1.4,1.7,2.7,2.6,4.1c-0.3,0.4-0.7,0.8-1,1.2
		C223.1,274,221.5,274.3,220.1,274.3z"/>
	<path class="st14" d="M153.9,389.6c2-2.3,5.7-0.9,7.4-3.7C160.9,391.2,156.9,389.3,153.9,389.6z"/>
	<path class="st46" d="M155.4,418.4c0.5-2.9,1.7-5.8,0.4-8.8c3.8,2.7,1.9,5.8,0.6,8.8C156.1,418.9,155.7,418.9,155.4,418.4z"/>
	<path class="st47" d="M156.3,435.1c1.1-2.2-5.4-4.6,0.1-6.7C155.6,430.6,159.1,432.9,156.3,435.1z"/>
	<path class="st48" d="M117.6,323.2c0.5,0,0.9,0,1.4,0c1.7-0.6,3.4-1.1,5.2-1.7c-0.2,3.5-2.9,2.8-5.1,3
		C117.9,324.8,117.4,324.4,117.6,323.2z"/>
	<path class="st49" d="M146.7,320.8c-3.1-0.2,0.4-5.8-4.1-4.8c0.9-2.1,2.1-3.3,3.4-0.4C146.7,317.1,146.5,319,146.7,320.8z"/>
	<path class="st50" d="M182.7,274.4c0,0.5,0,1,0.1,1.5c-1.1,0.9-3,1.3-2.4,3.5c-1.5,0-2.4-1-2-2.2
		C179.1,275.4,180.6,274.2,182.7,274.4z"/>
	<path class="st51" d="M167.7,359.5c-1.9-1.7-3.8-3.3-5.7-5C165.2,354.6,167.2,356.2,167.7,359.5z"/>
	<path class="st52" d="M152.7,396.8c-1.3-0.7-2.5-1.4-1.7-3.2c0.6-1.4,1.6-1.7,2.9-1.3C152.9,393.6,152.2,395.1,152.7,396.8z"/>
	<path class="st53" d="M150.4,274.4c-0.5-2.9,0.9-4,3.7-3.8C152.8,271.9,151.6,273.1,150.4,274.4z"/>
	<path class="st54" d="M182.2,284.3c1.2-2-1.3-3.2-1.1-5.1c1.7,0.8,3.6,1.6,3.5,3.8C184.6,284.4,183.2,284.3,182.2,284.3z"/>
	<path class="st55" d="M120.3,292.8c-0.5-0.6-1-1.1-1.5-1.7c1.6-1.1,3.5-0.3,5.2-0.5C123.2,292,122.2,293.1,120.3,292.8z"/>
	<path class="st56" d="M168.6,275.6c0.6-0.1,1.1-0.1,1.7-0.2c1.8,0,3.1,0.6,3.4,2.6c-0.5,0.1-1,0.1-1.4,0.2
		C170.6,278.1,169.3,277.2,168.6,275.6z"/>
	<path class="st57" d="M158.9,347.4c-1.4-1.7-4.9-2.8-1.2-5.6C158.1,343.7,158.5,345.6,158.9,347.4z"/>
	<path class="st58" d="M135.5,289.6c-1.7-1.2-1.9-2.9-1-4.6c0.4-0.8,1.3-0.4,1.8,0.4C133.8,286.3,137.5,288.6,135.5,289.6z"/>
	<path class="st59" d="M155.4,418.4c0.3,0,0.7,0,1,0c-0.4,2.5,1.2,5.2-1.1,7.4C155.3,423.3,155.3,420.9,155.4,418.4z"/>
	<path class="st60" d="M120.4,315.7c-1.6-1.7-0.7-3.4-0.1-5.1C122.3,312.3,122,314,120.4,315.7z"/>
	<path class="st61" d="M135.2,310.6c-1.4,3.5-4.2-0.2-6,1.1C130.9,309.7,133.2,311.1,135.2,310.6z"/>
	<path class="st62" d="M127.7,311.9c0.4,1.2,0.8,2.4,1.2,3.7c-1.5,0.3-2.9-0.2-3.4-1.6C125.1,312.4,126.5,312,127.7,311.9z"/>
	<path class="st63" d="M150.1,328.1c-1.4-1.6-3.5-2.8-2.5-5.4C149.6,323.9,150.6,325.7,150.1,328.1z"/>
	<path class="st64" d="M143.8,279.2c-1.3-1.7-2.1-3.3,0.4-4.7C144.1,276.1,143.9,277.6,143.8,279.2z"/>
	<path class="st65" d="M199,279.2c0-2.1-0.1-4.2-0.1-6.3C201,275,201.1,277.1,199,279.2z"/>
	<path class="st66" d="M215,274.3c1.7-2.6,3.5-1.1,5.2-0.1C218.5,277.5,216.7,273.2,215,274.3z"/>
	<path class="st55" d="M161.6,266.7c1.7,0.7,2.7,1.9,2.4,3.9c-1.8-0.7-3-2.1-4.1-3.7C160.4,266.2,161,266.1,161.6,266.7z"/>
	<path class="st67" d="M161.6,266.7c-0.6,0.1-1.1,0.1-1.7,0.2c-1.2-0.2-2.3-0.3-3.5-0.5c0-0.6,0-1.2,0-1.8
		C157.9,266.1,160.5,264.5,161.6,266.7z"/>
	<path class="st68" d="M187.7,208.6c-3.1-1.6-3.3-6.3-7.3-6.9c-2,0-3.1-1.1-3.8-2.9c-0.1-1.4-1.3-2.5-1.3-3.9c0-0.4-0.1-0.7-0.3-1.1
		c-2.6-1.8-0.7-3.5,0-5.2c1.3-2.4-0.2-4.5-0.6-6.8c1.9-5.3,6.9-2.4,10.3-3.9c2.6-0.1,2.4-2.9,3.8-4.1c1.6-2.8,2.7-5.7,1.2-8.9
		c-0.1-1.4-0.2-2.7-0.1-4.1c1.4-3.4-2.2-4.6-3.1-6.9l0.1,0.1c-0.9-1.8,1.9-3.2,0.6-5c-0.8-1.5-0.1-3.6-1.8-4.9
		c-1.8-3.7-5-6.7-5-11.2c1.4-2.4,4.4-1.2,6.2-2.8c0.5-0.5,1-0.9,1.4-1.4c2-1.4,4.2-0.1,6.2-0.5c2.8,0.6,5.5,1.2,8.1-0.7
		c1-1.2,2.6-2,3.2-3.6c1-1.8,2-3.4,4.4-3.1c1.4,0.9,2.8,1.7,4.3,2.5c1.6,1.4,3.7,2.2,4.8,4.2c0.8,0,1.5,0,2.3,0.1
		c3.5,1.9,9,0,10.8,5.3c-1.1,2.8-1.9,5.5-0.6,8.4c1.3,0.8,0,1.7,0,2.5c-1.9,0.9-2,2.6-1.9,4.4c0.2,2.2,2.3,1.1,3.2,1.9
		c0.4,0.4,0.8,0.9,1.2,1.3c0.7,3.3,1,6.6-0.2,9.9l0.1-0.1c-1.5,1.9,0.4,4.4-1.1,6.2c-0.7,4.2,1.5,6.9,4.8,8.9
		c3.9,3.4,9,2.3,13.5,3.5c0.9,0.5,1.7,1,2.6,1.5c1.2,1.3,3,0.5,4.4,1.3c2.4,2,6.4,2.3,7,6.3c0,1.3,0.1,2.5,0.1,3.8
		c3.2,2.9,0,3.6-1.6,4.9c-0.3,0.3-0.7,0.6-1,0.9c-9.7-4.4-17.5,3.2-26.3,4.6c-2.9,0.4-5.4,3.2-4.9,7c0.3,3.4,1.6,6.8-1,9.9
		c1.5,2.8,0.4,6.3,2.3,9c1.4,1.4,4.3,2.1,2.4,5c0,1.1,0.1,2.3,0.1,3.4c-0.8,2.7-3.8,1.3-5.2,2.9c-3.5,0.6-4.5-3.5-7.5-3.9
		c-1.2-3-4.3-1-6.1-2.4c-0.9-0.4-1.7-0.9-2.6-1.3c-1.7-1-3.6-1.2-5.5-0.8c-2-0.7-1.7-2.8-2.6-4.2c-0.9-1.2-2-2.3-0.6-3.8
		c-0.5-3.5-0.3-7.4-4.8-8.6c-2.3-1.5-4.9-0.3-7.3-0.8c-1.3-1.1-3.1-0.7-4.4-1.6C188.3,211.5,186.7,210.3,187.7,208.6z"/>
	<path class="st69" d="M157.7,82.5c0.4,0.5,1.2,1.1,1.1,1.3c-3.1,6.4,2.5,9.5,5.2,13.7c-5.3,2-10.1-1.6-15.3-1.4
		c-3.5,0.2-4.7-2.8-5-6c0.2-1.2,0.4-2.3,1.6-2.9c2.6-2.4,5.4-4.5,8.7-6C155.4,81.2,156.5,82,157.7,82.5z"/>
	<path class="st70" d="M109,120.3c-2.7-1.9-3.6-4.9-5-7.7c2.4-1.9,4.2-0.1,6.1,1c1.4,0.5,3.1,0,4.1,1.6c0.9,1.7,1.1,3.4,0,5
		C112.5,121.1,110.7,120.9,109,120.3z"/>
	<path class="st39" d="M196.5,113.8c3.2-0.1,6.1-1.1,8.9-2.4c1.1-0.1,1.8,0.2,1.2,1.5c0.3,2-5.1-0.1-2.5,3.5
		C200.3,119,197.5,119.1,196.5,113.8z"/>
	<path class="st71" d="M186.5,178.8c-3.8,1-8.8-1.6-11.2,3.7c0.4,1.1,1.2,2.3-0.8,2.7c-2.8-4.8-0.8-7,4.2-7.5
		c2.6-0.3,5.1-0.8,7.7-1.3C187.1,177.2,187.1,178,186.5,178.8z"/>
	<path class="st35" d="M139.2,204c-3.3,1.3-7.7-1.8-10.2,2.6c-0.5-0.2-0.9-0.6-1-1.2c-0.8-2,1.4-3.2,1.3-5c0.7-0.8,1.5-0.8,2.3-0.1
		C133.5,202.7,137,202.1,139.2,204z"/>
	<path class="st72" d="M151.5,216.7c0,1.5,0,3.1,0,4.6c0.3,0.5,0.3,1-0.1,1.5c-1.5-2.1-2.5-5.4-6.3-3.5c-0.2,0-0.5,0-0.7,0
		c-0.9-0.2-1.8-0.5-2.2-1.5C145,214.2,148.3,215.7,151.5,216.7z"/>
	<path class="st38" d="M77.8,169c-2.3-3.1,0.3-5.9,0.6-8.8l0,0C85.4,163.6,77,166,77.8,169z"/>
	<path class="st32" d="M190.4,164.9c1.5,3.3,1.8,6.4-1.1,9.2c-0.6,0.5-1.1,0.5-1.6-0.1c2.2-1.9-0.6-5.6,2.5-7.2
		C189.6,166.1,189.6,165.5,190.4,164.9z"/>
	<path class="st73" d="M145.2,219.2c-0.6,6.9-3.8,5.5-7.6,2.5c0.5-0.5,1-0.6,1.6-0.1c1.2-0.1,2.6,0.5,3.3-1
		C143,219.3,143.8,218.6,145.2,219.2L145.2,219.2z"/>
	<path class="st74" d="M110.1,113.7c-2-0.3-4-0.7-6.1-1c-0.5-0.1-1-0.2-1.4-0.3c-0.5-0.8-0.6-1.6,0.2-2.4
		C105.6,110.5,108.9,109.9,110.1,113.7z"/>
	<path class="st75" d="M107.7,157.7c-4.9-0.6-0.8-5.8-3.8-7.5c-0.4-0.1-0.6-0.3-0.5-0.6c0.1-0.3,0.2-0.4,0.3-0.4
		c3.8,1,2.7,4.8,3.9,7.3c0.3,0.3,0.4,0.5,0.3,0.8C108,157.6,107.9,157.7,107.7,157.7z"/>
	<path class="st76" d="M128.9,189c-1.7-2-3.3-4.1-5-6.1c-0.3-0.3-0.4-0.7-0.3-1c0.1-0.3,0.2-0.5,0.4-0.5
		C127.8,182.5,128.9,185.4,128.9,189z"/>
	<path class="st77" d="M131.6,200.3c-0.8,0-1.5,0.1-2.3,0.1c-0.7-3.4,0.3-6.1,3.5-7.8C132.5,195.2,130.8,197.5,131.6,200.3z"/>
	<path class="st78" d="M202.8,127.7c-2.3,2-4.7,3.5-7.7,1.3c-0.4-0.2-0.5-0.5-0.4-0.7c0.1-0.3,0.3-0.4,0.4-0.4
		c2-0.1,3.9-0.2,5.9-0.3C201.7,127,202.3,127.1,202.8,127.7z"/>
	<path class="st73" d="M186.4,130.1c-1.5,2.2-4.1,2-6.2,2.8C180.5,128,184.4,131.1,186.4,130.1z"/>
	<path class="st79" d="M96.5,160.6c1.9,2.6,2.3,4.9-1.2,6.4C95.2,164.8,94.9,162.5,96.5,160.6z"/>
	<path class="st39" d="M78.4,160.2C78.4,160.2,78.4,160.2,78.4,160.2c-2.2-2.3-6.5-0.1-8.1-3.8C73,157.6,77.2,155.6,78.4,160.2z"/>
	<path class="st80" d="M135.3,217.9c0.7-2.5,0.6-5.3,2.4-7.5C139.1,213.7,138.9,216.4,135.3,217.9z"/>
	<path class="st81" d="M90.1,173.8c-2.4,1.2-3.8,5-7.4,2.7C85.3,176,86.7,172.3,90.1,173.8z"/>
	<path class="st82" d="M159.2,212.9c-1.4,3.6-4.9,3-7.7,3.8C153,213.3,156.4,213.7,159.2,212.9z"/>
	<path class="st83" d="M107.7,157.7c0-0.4,0-0.8,0-1.2c2.1,0,4.3,0,6.4,0C112.5,159.5,110.3,159.3,107.7,157.7z"/>
	<path class="st84" d="M186.4,153.9c1.5,2,5.9,2.3,4,6.4c-0.5,0.5-1.1,0.5-1.5-0.1C189.4,157.6,186.3,156.4,186.4,153.9z"/>
	<path class="st85" d="M166.7,206.8c-0.6,2.9-2.3,4.6-5.3,5.1C162.9,209.9,163.5,207,166.7,206.8z"/>
	<path class="st73" d="M80.1,176.3c-1.9,0.2-2.8-0.4-1.6-2.3c0.7-1.2,1.9-2.1,1.5-3.7C83.6,172.2,79.8,174.3,80.1,176.3z"/>
	<path class="st86" d="M175.2,207.6c-2.2-0.1-4.6,1.5-6.4-1c2.6,0.4,4.5-1,6.3-2.6C176.1,205.2,176.1,206.4,175.2,207.6z"/>
	<path class="st87" d="M96.2,154.1c-1.1,2-3.1,0.8-4.6,1.2C91.6,149.6,94.4,153.7,96.2,154.1z"/>
	<path class="st88" d="M179.8,102.4c2.3,0.2,4.7-5.4,6.8,0.2C184.4,100.2,181.9,106,179.8,102.4z"/>
	<path class="st89" d="M195.1,127.9c0,0.4,0,0.8,0,1.1c-2.4-0.1-4.8-0.2-7.3-0.2C189.8,124.5,192.8,128.9,195.1,127.9z"/>
	<path class="st90" d="M185.2,144.2c3.8,0.2,2.1,3,2.3,4.9c-0.4,0.6-0.7,0.6-1-0.1C184.4,147.8,185.6,145.8,185.2,144.2z"/>
	<path class="st91" d="M177.3,198c0,2,2.4,2.1,3.1,3.7c-0.9,1.8-2.5,1.1-3.9,1.3c-0.1-0.8-0.1-1.6-0.2-2.5
		C175.9,199.4,175.2,198.1,177.3,198z"/>
	<path class="st92" d="M119.2,160.1c1.3-2.3,0.7-4.9,0.9-7.4C122.4,155.5,123,158.1,119.2,160.1z"/>
	<path class="st93" d="M114,120.1c0.1-1.6,0.2-3.2,0.2-4.9c2,1.3,3.5,2.7,0.9,4.9C114.7,120.7,114.3,120.7,114,120.1z"/>
	<path class="st94" d="M210.1,121.7c-2.4-0.1-3.4,1.3-3.9,3.4c-2.3,0-1.6-1.4-1.1-2.6c0.7-1.7,2.1-2.3,3.8-2.5
		c0.5,0.1,0.9,0.2,1.4,0.3c0.3,0.4,0.4,0.7,0.3,1C210.3,121.5,210.2,121.7,210.1,121.7z"/>
	<path class="st38" d="M205.1,122.5c0.4,0.9,0.7,1.7,1.1,2.6c-0.5,1.7-2.1,2-3.3,2.7c-0.6-0.1-1.2-0.1-1.8-0.2
		C202.4,125.8,203.7,124.2,205.1,122.5z"/>
	<path class="st95" d="M145.3,87.3c-0.1,1.2-0.4,2.3-1.6,2.9c-0.7-0.1-1.5-0.2-2.2-0.2c-0.5-0.2-0.6-0.5-0.5-0.8
		c0.1-0.3,0.3-0.4,0.4-0.4C143,89,142.6,84.2,145.3,87.3z"/>
	<path class="st96" d="M175.4,189.2c0,1.6-1.7,3-0.4,4.6c-4.3-0.8-2.4-2.8-1-4.8C174.6,188.6,175,188.6,175.4,189.2z"/>
	<path class="st17" d="M175.4,189.2c-0.5-0.1-0.9-0.1-1.4-0.2c0.1-1.3,0.3-2.6,0.4-3.9c0.3-0.9,0.5-1.8,0.8-2.7
		C176.9,184.7,177.1,187,175.4,189.2z"/>
	<path class="st97" d="M124,181.4c0,0.5,0,1-0.1,1.4c-2.9-1.8-0.5-5.3-2.2-7.4C125.6,176.3,123.4,179.4,124,181.4z"/>
	<path class="st98" d="M120.2,173.4c-4.7-0.1-3.9-2.7-2.4-5.5C119.7,169.3,119,171.7,120.2,173.4z"/>
	<path class="st99" d="M186.5,149c0.3,0,0.7,0.1,1,0.1c2.8,2.3,0.6,3.6-1,5C183.5,152.3,187.6,150.6,186.5,149z"/>
	<path class="st100" d="M96.6,167.9c1,0.6,2.4,0.8,2.3,2.4c-0.1,1.3-1.2,1.4-2.3,1.3C95.5,170.4,96,169.1,96.6,167.9z"/>
	<path class="st89" d="M96.6,171.6c-1.1,1.9-2,4.3-4.9,2.3C93,172.4,94.5,171.3,96.6,171.6z"/>
	<path class="st72" d="M145.2,219.1c-0.9,0.5-1.8,0.9-2.7,1.4c-1.4-0.8-2.8-1.7-0.2-2.8C143.4,217.9,144.6,218,145.2,219.1z"/>
	<path class="st12" d="M139.2,221.5c-0.5,0-1.1,0.1-1.6,0.1c-1.7-0.7-4.8-0.5-2.3-3.8C136.6,219.1,137.9,220.3,139.2,221.5z"/>
	<path class="st66" d="M103.8,149.3c0,0.3,0.1,0.6,0.1,0.9c-1.8,1.5-4.1,1.3-6.2,1.5C99.1,149.1,101.8,150,103.8,149.3z"/>
	<path class="st101" d="M173.3,100.1c0.6-2.3-0.3-5.9,4.1-5c-0.6,1.2-2.9,1.5-2.1,3.6C174.7,99.1,174,99.6,173.3,100.1z"/>
	<path class="st102" d="M177.3,198c-0.3,0.8-0.7,1.6-1,2.4c-1.1-1.7-2.3-3.4-1-5.5C176.5,195.6,177.1,196.7,177.3,198z"/>
	<path class="st103" d="M114,120.1c0.4,0,0.8,0,1.2,0c-1.9,3.5-4,1-6.1,0.2C110.7,120.3,112.3,120.2,114,120.1z"/>
	<path class="st104" d="M188.9,160.2c0.5,0,1,0.1,1.5,0.1c0,1.5-0.1,3.1-0.1,4.6c-0.1,0.6-0.2,1.3-0.3,1.9
		C188.5,164.8,188.2,162.6,188.9,160.2z"/>
	<path class="st105" d="M192.7,110.1c2.5,0,2.9,2.1,3.8,3.8C193.7,114.1,192.9,112.4,192.7,110.1z"/>
	<path class="st90" d="M68.9,153.8c-1.4-1.1-2.4-0.2-3.3,0.7c-1.3-1.2-0.8-2.2,0.6-2.8C67.9,151,68.8,152,68.9,153.8z"/>
	<path class="st41" d="M102.8,110c-0.1,0.8-0.1,1.6-0.2,2.4c-1.4-0.5-3.3-1.2-2.7-2.9C100.3,108.3,101.9,109.2,102.8,110z"/>
	<path class="st104" d="M175.2,207.6c0-1.2-0.1-2.5-0.1-3.7c0.5-0.4,0.9-0.8,1.4-1.1C175.7,204.3,179.5,207.1,175.2,207.6z"/>
	<path class="st106" d="M141.5,88.9c-0.1,0.4-0.1,0.8,0,1.2c-2.4,0-3.7-1.2-3.8-3.7C139,87.2,140.2,88,141.5,88.9z"/>
	<path class="st41" d="M187.6,174c0.5,0,1.1,0.1,1.6,0.1c-1.3,1.3-0.7,3.8-2.8,4.7c0-0.8-0.1-1.6-0.1-2.4
		C186.5,175.4,186.5,174.5,187.6,174z"/>
	<path class="st107" d="M135.3,82.4c0.8,1.3,1.6,2.6,2.3,3.9C135.5,85.9,133.9,85,135.3,82.4z"/>
	<path class="st96" d="M65.1,157.8c-0.6,1.6-2.3,1.4-3.4,2.1C61.5,157.2,62.5,156.3,65.1,157.8z"/>
	<path class="st72" d="M91.5,315.6c-0.5,2.7,0.9,5.1,1.4,7.7c0,0.4-0.1,0.7-0.3,1.1c-0.3,0.6-0.6,0.6-0.9,0
		c-0.2-3.3-5.8-6.6-0.2-10.1c0.4,0.3,0.5,0.6,0.4,0.9C91.8,315.5,91.6,315.6,91.5,315.6z"/>
	<path class="st35" d="M109.4,329.6c0.3,0.2,0.6,0.2,1,0.1c0.7,0,1.2,0.3,1.4,1.1c-1,1.1-1.8,3.3-3.6,2.1
		C107.2,332.1,107.8,330.3,109.4,329.6z"/>
	<path class="st108" d="M117.6,323.2c0.5,0.4,1,0.8,1.5,1.2c1.4,3.1-0.9,2.5-2.6,2.5C115.2,325.2,116.7,324.3,117.6,323.2z"/>
	<path class="st109" d="M95.1,335.6c-2.6-1.4-1.7-4.1-2.2-6.2c0.3,0,0.5,0,0.8,0C95.5,331.1,95.9,333.2,95.1,335.6z"/>
	<path class="st110" d="M92.8,342.1c0.2-1.9-1.1-4.3,1.9-5.2C95,339,95.7,341.2,92.8,342.1z"/>
	<path class="st12" d="M93.7,329.4c-0.3,0-0.5,0-0.8,0c-1.9-1.3-1.3-3.2-1.2-5c0.3,0,0.6,0,0.9,0C93,326.1,93.3,327.7,93.7,329.4z"
		/>
	<path class="st56" d="M111.8,330.8c-0.5-0.4-1-0.7-1.4-1.1c0.6-1.8,1.1-3.6,3.5-1.8C113.2,328.9,112.5,329.8,111.8,330.8z"/>
	<path class="st35" d="M33,271.8c-0.5,0.5-1,1-1.6,1.5c-1.6-2.7-3.5-5.6,2.1-5.1c1.6,0.1,1.7-0.5,1.7-1.5c0-3.5,2.5-3.7,5-4
		c0.6,0.5,0.7,1.1,0.2,1.8C37,266,37.8,271.8,33,271.8z"/>
	<path class="st27" d="M106.4,228.6c0.1,1.8-0.4,4.4-1.5,4.5c-7.3,0.4-5.9,8-9.7,11.1c-0.7-0.9-0.7-1.8-0.1-2.7
		C95.6,234.3,101.3,231.7,106.4,228.6z"/>
	<path class="st111" d="M125.2,211.6c-1.8,2.7-3.9,4-6.3,0.9c-2-2.5-3.4-1.3-5,0.4c-0.4,0.6-0.9,0.6-1.3,0c-1.8-1.3-1.2-2.5,0.4-3.2
		c2.4-1,5.4-2.6,7.1,0.1c1.6,2.4,2.4,1,3.7,0.4C124.7,210.4,125.1,210.9,125.2,211.6z"/>
	<path class="st39" d="M114,216.7c-1.4,1.7-3.4,1.1-5.1,1.2c-4.5,0.4-7.1,2.6-7.5,7.3c-2.6-1-2.8-2.2-1.1-4.5
		c3.1-4.4,7.5-5.2,12.3-5.4C113.4,215.4,113.9,215.9,114,216.7z"/>
	<path class="st112" d="M76.5,254.2c-1.6-2.2-2.1-5.2-4.9-6.4c-1.9-0.6-2.5-2.3-3.6-3.7c0.6-1.6,2.6-3.5,3.2-1.8
		c1.4,4.3,8.1,5.4,6.6,11.2c0,0.2,0.1,0.4,0.2,0.6C77.4,254.8,77,254.8,76.5,254.2z"/>
	<path class="st113" d="M70.2,247.9c-2.8,3.1-5,7.1-9.8,7.6c-1.3,0.4-1.6-0.2-1.3-1.3c3.8-1.5,6.5-4.4,9-7.4
		C69.1,246.5,69.8,247.1,70.2,247.9z"/>
	<path class="st39" d="M76.5,254.2c0.5,0,1,0,1.4-0.1c2,1.1,4.1,3.7,6.1,0.1c1.9,1.3,0.2,2.5-0.1,3.7c-1,0.6,0.1,3.1-2.3,2.4
		C78.8,259.3,77.3,257,76.5,254.2z"/>
	<path class="st73" d="M40.4,264.5c-0.1-0.6-0.1-1.2-0.2-1.8c1.4-3,4.4-1,6.4-2.1c1.2-0.5,1.4,0.1,1.1,1.1
		C45.9,264.2,43.1,264.3,40.4,264.5z"/>
	<path class="st114" d="M59,254.3c0.4,0.4,0.9,0.9,1.3,1.3c-1.7,1.8-5.1,0.9-6.2,3.8c-0.8-0.1-0.9-0.8-1.1-1.4
		C53.5,254.3,56.1,253.9,59,254.3z"/>
	<path class="st115" d="M125.2,211.6c-0.4-0.5-0.9-0.9-1.3-1.4c1.4-1.6,2.7-3.2,4.1-4.8c0.3,0.4,0.7,0.8,1,1.2
		C128.8,209.1,127.2,210.5,125.2,211.6z"/>
	<path class="st116" d="M95.2,241.5c0,0.9,0,1.8,0.1,2.7c-1.4,2.5-2.9,4.6-6.2,2.6c-0.6-0.5-0.6-1.1-0.1-1.6
		C92.2,246.1,93.5,243.4,95.2,241.5z"/>
	<path class="st109" d="M53,258c0.4,0.5,0.7,0.9,1.1,1.4c-1.4,2.7-3.9,2.4-6.4,2.3c-0.4-0.4-0.7-0.8-1.1-1.1
		C48.2,258.3,51.4,260.1,53,258z"/>
	<path class="st32" d="M88.9,245.2c0,0.5,0.1,1.1,0.1,1.6c-1.2,1.8-2.5,3.6-5,3.6C84.8,247.9,86.7,246.4,88.9,245.2z"/>
	<path class="st117" d="M70.2,247.9c-0.7-0.4-1.4-0.7-2.1-1.1c0-0.9-0.1-1.8-0.1-2.7c2.3,0.2,2.7,2.2,3.6,3.7
		C71.1,247.9,70.6,247.9,70.2,247.9z"/>
	<path class="st118" d="M114,216.7c-0.5-0.5-0.9-1-1.4-1.4c0-0.8,0-1.5,0-2.3c0.4,0,0.8,0,1.3,0C114.4,214.2,116,215.4,114,216.7z"
		/>
	<path class="st119" d="M265.2,154.2c-2.7-1.1-0.9-3.6-1.5-5.3c-1.3-5.6,2.9-6.2,6.5-7.3l-0.1,0.1c6.2-2.2,6.5,4.3,9.8,6.5
		c-0.1,2.5,4.6,2.5,3,5.8c-0.3,0.3-0.4,0.6-0.3,1c-1.1,1.6-2.3,1.2-3.6,0.3c-0.8-0.7-1.6-1.2-2.7-1c-1.7,0.1-3.3,0.5-4.9,0.4
		C269.2,154.8,267.2,154.8,265.2,154.2z"/>
	<path class="st113" d="M279.1,149c-3-2.5-3.8-7.6-9-7.4c5.5-3.1,7.6-1.7,11.3,7.4c0.3,0.6,0.2,1.3-0.5,1.4
		C279.9,150.5,279.4,149.8,279.1,149z"/>
	<path class="st35" d="M288.9,214.1c-3.9,0.1-8,0.9-11-2.4c-2.3-2.5-4.4,1.1-6.6-0.1c2-3,4.6-3.2,7.3-1.3c3.1,2.3,6.6,2.8,10.3,2.7
		c0.4,0.2,0.5,0.5,0.4,0.7C289.1,214,289,214.1,288.9,214.1z"/>
	<path class="st120" d="M282.5,87.6c0.4-4,1.7-2.4,3.8-1c2.5,1.7,2.4,5.9,6.2,6.2c-2.2,1.8-4,1.3-5.3-1.1
		C286.1,89.7,285.2,87.6,282.5,87.6z"/>
	<path class="st118" d="M294.9,92.5c1.6-2.1,3.7-1.6,5.3-0.4c1.8,1.3,1.2,3.1,0.1,4.9c-0.5,0.7-0.1,2-0.1,3c-1,1.2-2,2.9-2.8-0.1
		C298.3,96.9,301.3,93.1,294.9,92.5z"/>
	<path class="st21" d="M251.1,180c-4.8-0.1-10.1,1.8-13.5-3.5C241.7,179.4,247.3,176.3,251.1,180z"/>
	<path class="st121" d="M228.5,99.9c5-1.9,7.4,3.6,11.5,4.3c0.3,1.1-0.3,1.7-1.2,2.1c-2.9-1.7-5.8-3.4-8.7-5.1
		C229.6,100.8,228.8,100.7,228.5,99.9z"/>
	<path class="st104" d="M231.7,132.7c-2.6-3.7-7.9-1.5-10.6-5c4.2,0.6,9.6-1.3,11.3,5C232.2,132.6,231.9,132.6,231.7,132.7z"/>
	<path class="st122" d="M265.1,189.1c-1.8-3.1-5.8-3.3-7.7-6.2c0.5-0.7,1.1-0.8,1.7-0.2C261.8,184.1,266.6,183.7,265.1,189.1z"/>
	<path class="st39" d="M206.6,112.9c-0.4-0.5-0.8-1-1.2-1.5c0.4-5.8,4.5-5.3,8.5-4.9c0.4,0.2,0.6,0.5,0.4,0.7
		c-0.1,0.2-0.3,0.4-0.4,0.4C209.6,106.8,207.7,109.3,206.6,112.9z"/>
	<path class="st123" d="M288.9,214.1c0-0.4,0-0.7,0-1.1c3.3-0.9,6.7-1.8,10-2.7c-0.2,1.1,0.3,3.2-1.1,2.8
		C294.5,212.3,291.8,214.4,288.9,214.1z"/>
	<path class="st124" d="M270.2,141.5c-2.5,2.2-6.6,2.9-6.5,7.3C262.3,143.1,263.5,141.8,270.2,141.5z"/>
	<path class="st121" d="M245.2,104.1c2.1,1.2,4.1,2.4,6.2,3.7c0.4,0.2,0.6,0.4,0.4,0.7c-0.1,0.2-0.3,0.3-0.4,0.3
		c-3,1.8-4.3-1.4-6.3-2.3C244.4,105.6,244.4,104.9,245.2,104.1z"/>
	<path class="st112" d="M279.1,149c0.8,0.2,1.5,1.4,2.3,0c1.4,0.9,3.7,0.9,3.6,3.4c0,1.4-1.1,1.4-2.1,1.5
		C283.3,150.9,277.8,152.6,279.1,149z"/>
	<path class="st43" d="M270.3,211.6c-4.3-1.3-2.9-3.8-1.3-6.4C270.9,207,269.7,209.5,270.3,211.6z"/>
	<path class="st40" d="M228.5,99.9c0.5,0.4,1.1,0.9,1.6,1.3c-2.6,0.7-5.3-1.1-7.9,0.1C223.3,96.2,226.1,98.7,228.5,99.9z"/>
	<path class="st21" d="M266.1,104c0.8-4.2,4.6-1,6.4-2.6C272.3,106.9,268.2,102.9,266.1,104z"/>
	<path class="st125" d="M245.2,104.1c0,0.8-0.1,1.6-0.1,2.3c-2.1-0.1-4.1-0.1-6.2-0.2c0.4-0.7,0.8-1.4,1.2-2.1
		C241.8,104.1,243.5,104.1,245.2,104.1z"/>
	<path class="st126" d="M218.8,127.6c-3,0.6-3-2.9-5-3.7c0.5-0.5,0.9-0.5,1.4,0C218.2,123.4,219,125,218.8,127.6z"/>
	<path class="st67" d="M215.3,123.9c-0.5,0-0.9,0-1.4,0c-1.8,0.2-3-0.8-3.8-2.3c0-0.5,0.1-1,0.1-1.4
		C211.9,121.5,214.9,120.8,215.3,123.9z"/>
	<path class="st127" d="M231.7,132.7c0.3,0,0.5,0,0.8,0c-0.3,2.9-0.7,5.9-1,8.8C228.9,138.4,230.1,135.5,231.7,132.7z"/>
	<path class="st35" d="M297.5,99.9c0.9,1.5,1.9,0.3,2.8,0.1c0.4,0,0.7,0,1,0.2c-0.3,3.6-3.2,2.9-4.8,2.1
		C294.8,101.5,296.8,100.6,297.5,99.9z"/>
	<path class="st128" d="M233.8,161.5c0.1-3.3,0.1-6.6,0.2-9.9C235.7,154.9,235.9,158.3,233.8,161.5z"/>
	<path class="st32" d="M261.3,105c1.3-2.1,2.7-1.2,4.2-0.3c-0.5,3.4-2.6,1.6-4.3,1.5c-0.3-0.3-0.3-0.5-0.2-0.8
		C261.1,105.1,261.2,105,261.3,105z"/>
	<path class="st129" d="M261.3,105c0,0.4-0.1,0.8-0.1,1.1c-1.1,2-2.3,3.8-5,3c-0.4-0.3-0.5-0.7-0.3-0.9c0.2-0.3,0.3-0.4,0.5-0.4
		C258.7,108,259.6,105.8,261.3,105z"/>
	<path class="st130" d="M263.6,197.8c0.8-1.5,3.3-2.5,1.6-4.9c1.3,0,2.4,0.5,2.2,2.1C267.1,197.1,265.6,197.8,263.6,197.8z"/>
	<path class="st81" d="M265.2,154.2c2.5,0,4.9,0,7.4,0c0.3,0.3,0.4,0.5,0.3,0.8c-0.1,0.2-0.2,0.4-0.3,0.4
		C270,155.7,267.4,156.3,265.2,154.2z"/>
	<path class="st131" d="M232.8,167.6c0.1-2.1-1.1-4.5,1.1-6.2C233.1,163.4,236.3,166.1,232.8,167.6z"/>
	<path class="st50" d="M213.9,107.6c0-0.4,0-0.7,0-1.1c1.6-0.8,2.9-2.5,5.1-1.5C217.7,106.7,216.1,107.7,213.9,107.6z"/>
	<path class="st132" d="M278.9,155.1c1.2-0.1,2.4-0.2,3.6-0.3c-0.2,1.3-0.8,2.4-2.3,2C279.6,156.7,277.8,156.9,278.9,155.1z"/>
	<path class="st73" d="M300.1,205.3c-0.2,1.8,0.7,3.8-1.3,5.1C298.7,208.6,297.2,206.4,300.1,205.3z"/>
	<path class="st128" d="M272.6,155.3c0-0.4,0.1-0.8,0.1-1.2c1.2-1.6,2.4-1.2,3.6,0C275.2,155.2,274.2,156.3,272.6,155.3z"/>
	<path class="st133" d="M259.1,182.7c-0.6,0.1-1.1,0.2-1.7,0.2c-1.8,1-2.9,0.2-3.6-1.4C255.6,181.7,257.6,180.8,259.1,182.7z"/>
	<path class="st37" d="M256.4,107.8c0,0.4-0.1,0.9-0.2,1.3c-1.6-0.3-3.3,0.9-4.9-0.3c0-0.3,0-0.7,0-1
		C253,107.8,254.7,107.8,256.4,107.8z"/>
	<path class="st134" d="M232.8,150.3c-1.7,0.8-3.8,2.6-3.9-1.3c0.5-0.7,0.9-0.7,1.4,0C231.3,148.9,232.3,149.1,232.8,150.3z"/>
	<path class="st76" d="M230.3,148.9c-0.5,0-0.9,0-1.4,0c0.3-1.9-1.1-4.8,2.6-5C230.6,145.5,229.9,147.1,230.3,148.9z"/>
	<path class="st62" d="M183.9,81.3c-4.4-0.8-5.9-3.5-5-7.7c1.2,3,3.8,4.7,6.3,6.5C185.6,81.4,185.1,81.6,183.9,81.3z"/>
	<path class="st135" d="M183.9,81.3c0.4-0.4,0.8-0.8,1.2-1.2c1.8,1.6,1.9,3.3,0.3,5.1c-0.4,0.5-0.8,0.5-1.2-0.1
		C184.8,83.8,184.6,82.5,183.9,81.3z"/>
	<path class="st136" d="M184.3,85.1c0.4,0,0.8,0,1.2,0.1c0.2,2.1-0.2,4-2.5,4.7C183.4,88.3,183.8,86.7,184.3,85.1z"/>
	<path class="st67" d="M77.8,269.3c0.6,3.2,1.4,6.2,3.7,8.9c1.4,1.6,2.6,4.2-1.2,5c-0.8-0.9-0.7-1.8,0-2.7c-0.8-3.5-5.8-5.5-3.5-10
		C76.9,269.9,77.3,269.5,77.8,269.3z"/>
	<path class="st45" d="M89,299.2c1.5,3.7,3.3,7.3,3.8,11.3c0.6,0.5,0.6,1-0.1,1.4c-3-3.2-4-7-3.8-11.3c-0.4-0.3-0.5-0.7-0.3-1
		C88.8,299.4,88.9,299.2,89,299.2z"/>
	<path class="st67" d="M76.5,284.2c-0.4,1.6-2.2,2.4-1.6,4.8c0.9,4-1.7,2.3-3.4,1.6C72.4,287.8,72.3,284.2,76.5,284.2z"/>
	<path class="st137" d="M70.3,295.6c2.5,2.3,5.5,2.9,8.8,2.5c-4.7,4.8-7.5,1.4-10.1-2.5C69.4,295.2,69.8,295.1,70.3,295.6z"/>
	<path class="st138" d="M81.7,260.4c0.8-0.8,1.5-1.6,2.3-2.4c-0.4,3,1.8,6.8-2.5,8.6c0-0.3,0.1-0.6,0.1-0.9
		C82.7,263.9,81.7,262.2,81.7,260.4z"/>
	<path class="st17" d="M81.5,265.7c-0.1,0.3-0.1,0.6-0.1,0.9c-1.7,0.2-3,1.1-3.6,2.7c-0.3,0.4-0.7,0.8-1,1.2
		C76,266.5,77.9,265.2,81.5,265.7z"/>
	<path class="st21" d="M80.2,280.5c0,0.9,0,1.8,0,2.7c-0.8,2.1-2.1,2.2-3.8,1.1C77.3,282.5,78.6,281.4,80.2,280.5z"/>
	<path class="st139" d="M70.3,295.6c-0.4,0-0.9,0-1.3,0c-2.6-3.4,1.3-3.6,2.6-5.1C71.1,292.2,70.7,293.9,70.3,295.6z"/>
	<path class="st138" d="M89,299.2c0,0.5-0.1,1-0.1,1.5c-1.3-1.2-2.6-2.5-3.8-3.7c0.1-0.8,0.9-0.8,1.3-1.3
		C88.1,296.3,89,297.4,89,299.2z"/>
	<path class="st140" d="M34.7,320.7c-1.8,1.9-4.3,2.7-6.7,3.5C28.9,320.6,31.8,320.6,34.7,320.7z"/>
	<path class="st14" d="M47.9,343.1c0-2.6,1.2-4,3.9-3.9C51.6,341.5,49.7,342.2,47.9,343.1z"/>
	<path class="st141" d="M86.4,295.7c-0.4,0.4-0.9,0.9-1.3,1.3c-1.6,0.3-3.1,0.7-4.7,1C81.6,295.1,84.1,295.5,86.4,295.7z"/>
	<path class="st53" d="M92.7,312c0-0.5,0.1-1,0.1-1.4c4.4,2.9,0.2,3.7-1.3,5.1c0-0.4,0-0.9,0-1.3C91.9,313.5,92.3,312.8,92.7,312z"
		/>
	<path class="st134" d="M221,265.4c3.5-6.8,4.4-7,7.8-2.6c0.4,0.3,0.5,0.5,0.4,0.8c-0.1,0.3-0.2,0.4-0.3,0.4
		C225.9,262.3,223.4,263.7,221,265.4z"/>
	<path class="st58" d="M228.9,264.1c0-0.4,0-0.8-0.1-1.3c1.1-3,4.1-3.5,6.4-4.8c0.2-0.6,0.6-1,1.1-1.2c1.9,1.5,0.7,3-0.6,3.2
		C232.9,260.6,231.3,262.9,228.9,264.1z"/>
	<path class="st99" d="M236.4,256.7c-0.4,0.4-0.8,0.8-1.1,1.2c-1.9-2.9-2.5-5.9-0.4-9C237,251.3,235.2,254.3,236.4,256.7z"/>
	<path class="st98" d="M230.4,220.3c0.3-3.3,0.7-6.6,1-9.9C232.8,213.8,234.3,217.3,230.4,220.3z"/>
	<path class="st142" d="M242.6,235.6c-2.3,0.3-4.2-1-6.2-1.8c0-0.7,0.3-1,1-0.9C239.4,233.2,242.3,231.8,242.6,235.6z"/>
	<path class="st67" d="M235,249.1c1.9-2.6,5.5-1.9,7.6-4C241.6,249.3,238.1,248.8,235,249.1z"/>
	<path class="st67" d="M237.4,232.9c-0.3,0.3-0.7,0.6-1,0.9c-0.4,0.2-0.8,0.3-1.3,0.5c0.1-2.1-1.8-3.2-2.4-5
		C235.3,229.2,236.6,230.7,237.4,232.9z"/>
	<path class="st123" d="M247.6,240.6c-2.7-0.7-4.1-2.7-5.1-5.1C245.3,236.1,247.1,237.7,247.6,240.6z"/>
	<path class="st143" d="M157.7,82.5c-1.8,1.2-2.7-0.1-3.7-1.2c0.9-1.4,2.5-2.8,3.8-2.3C159.5,79.7,157.1,81.3,157.7,82.5z"/>
	<path class="st62" d="M155.4,240.5c0.4,3.4,2.3,7.2-2.6,9C155.4,247,150.2,242.2,155.4,240.5z"/>
	<path class="st56" d="M151.5,222.7c0-0.5,0.1-1,0.1-1.5c1.1,2,4.6,1.1,4.9,4.1c0.4,1.2,0,1.7-1.3,1.3
		C154,225.3,152.8,224,151.5,222.7z"/>
	<path class="st144" d="M155.2,226.6c0.4-0.4,0.8-0.9,1.3-1.3c1.2,1.4,4.1,0.8,4,3.7C158.3,229.1,156.5,228.4,155.2,226.6z"/>
	<path class="st145" d="M152.5,250.5c-0.6,2.2,0,4.8-2.2,6.4C150.8,254.7,148.6,251.6,152.5,250.5z"/>
	<path class="st146" d="M160.3,236.9c1.7,0.5,1.7,2,0.9,2.9c-1.2,1.4-3,0.7-4.7,0.4C157.4,238.8,160.3,239.5,160.3,236.9z"/>
	<path class="st21" d="M160.3,229c2,2.4,2.6,4.4-1.3,5.3C159.4,232.5,159.9,230.8,160.3,229z"/>
	<path class="st147" d="M230.1,240.5c0.5-3.2,3.9-1.1,5.2-2.9C235.7,242.5,232.6,241,230.1,240.5z"/>
	<path class="st148" d="M206,227.9c2.8-0.1,1,3.3,3,3.8c0.3,0.2,0.4,0.4,0.3,0.6c-0.1,0.2-0.2,0.3-0.3,0.3
		C203.9,233.5,205.3,230.5,206,227.9L206,227.9z"/>
	<path class="st114" d="M192.6,214.3c2.6,0.1,5.4-1.2,7.7,1.1c-2.6,0.3-5.1,0.4-7.7-0.3C192.7,214.8,192.7,214.6,192.6,214.3z"/>
	<path class="st87" d="M192.6,214.3c0,0.3,0,0.5,0,0.8c-1.4-1.5-3.8,1.8-4.9-1c0.4-0.4,0.5-1.2,1.2-1.3
		C190.3,213,191.9,212.7,192.6,214.3z"/>
	<path class="st149" d="M216.5,234.2c2.1,0.7,5.4-1.8,6.1,2.4C220.9,235,217.7,237.1,216.5,234.2z"/>
	<path class="st83" d="M208.9,232.7c0-0.3,0-0.6,0-0.9c2.2-1.9,3.6-0.5,4.9,1.2C212.2,232.8,210.5,232.7,208.9,232.7z"/>
	<path class="st125" d="M206,227.9C206,227.9,206.1,227.9,206,227.9c-1.2-0.5-3-0.5-3.3-2.1c-0.3-1.6,1.3-1.7,2.5-1.9
		C205.4,225.3,205.7,226.6,206,227.9z"/>
	<path class="st86" d="M189,212.8c-0.4,0.4-0.8,0.9-1.2,1.3c-0.1-1.8-2.6-3.7-0.1-5.5C188.1,210,188.6,211.4,189,212.8z"/>
</g>
</svg>
