<?xml version="1.0" encoding="utf-8"?>
<!-- Generator: Adobe Illustrator 25.3.1, SVG Export Plug-In . SVG Version: 6.00 Build 0)  -->
<svg version="1.1" id="Layer_1" xmlns="http://www.w3.org/2000/svg" xmlns:xlink="http://www.w3.org/1999/xlink" x="0px" y="0px"
	 viewBox="0 0 682.5 570.6" style="enable-background:new 0 0 682.5 570.6;" xml:space="preserve">
<style type="text/css">
	.st0{fill:#43BEC8;}
	.st1{fill:#E8E8E8;}
	.st2{fill:#F39A21;}
	.st3{fill:#F4D3A0;}
	.st4{fill:#43BFC8;}
	.st5{fill:#EDB592;}
	.st6{fill:#F0C499;}
	.st7{fill:#C2E8ED;}
	.st8{fill:#F3CE9E;}
	.st9{fill:#EFBE96;}
	.st10{fill:#EFBB94;}
	.st11{fill:#F2C99B;}
	.st12{fill:#CCCCCC;}
	.st13{fill:#0E8062;}
	.st14{fill:#EAA68B;}
	.st15{fill:#D50A0A;}
	.st16{fill:#E89F87;}
	.st17{fill:#ECAF8F;}
	.st18{fill:#E79783;}
	.st19{fill:#AE0201;}
	.st20{fill:#ECB592;}
	.st21{fill:#3B8BB8;}
	.st22{fill:#497CCE;}
	.st23{fill:#E3857E;}
	.st24{fill:#E28E7E;}
	.st25{fill:#ECF6F8;}
	.st26{fill:#E99F87;}
	.st27{fill:#249497;}
	.st28{fill:#067D63;}
	.st29{fill:#DBDBDB;}
	.st30{fill:#37A7AC;}
	.st31{fill:#F3BD20;}
	.st32{fill:#F2BC20;}
	.st33{fill:#256157;}
	.st34{fill:#256056;}
	.st35{fill:#FC9F14;}
	.st36{fill:#232323;}
	.st37{fill:#262626;}
	.st38{fill:#363636;}
	.st39{fill:#303030;}
	.st40{fill:#292A2A;}
	.st41{fill:#DB6B6D;}
	.st42{fill:#010101;}
	.st43{fill:#2E2E2E;}
	.st44{fill:#101010;}
	.st45{fill:#060606;}
	.st46{fill:#333333;}
	.st47{fill:#EBB490;}
	.st48{fill:#1F1F1F;}
	.st49{fill:#E8A589;}
	.st50{fill:#EDF1F0;}
	.st51{fill:#393939;}
	.st52{fill:#313131;}
	.st53{fill:#EAAC8D;}
	.st54{fill:#141414;}
	.st55{fill:#EDBE96;}
	.st56{fill:#266056;}
	.st57{fill:#050B0A;}
	.st58{fill:#171717;}
	.st59{fill:#F1B917;}
	.st60{fill:#E3907F;}
	.st61{fill:#F0C99B;}
	.st62{fill:#EFCD9D;}
	.st63{fill:#3F3F3F;}
	.st64{fill:#DE897C;}
	.st65{fill:#FD7EAF;}
	.st66{fill:#F3BA94;}
	.st67{fill:#F1AE8D;}
	.st68{fill:#F5C598;}
	.st69{fill:#F6CA9B;}
	.st70{fill:#CDCDCD;}
	.st71{fill:#D9D9D9;}
	.st72{fill:#FEFEFE;}
	.st73{fill:#ECC5D5;}
	.st74{fill:#DFDFDF;}
	.st75{fill:#343434;}
	.st76{fill:#484848;}
	.st77{fill:#1C5A4E;}
	.st78{fill:#3B3B3B;}
	.st79{fill:#D5D5D5;}
	.st80{fill:#828282;}
	.st81{fill:#F39920;}
	.st82{fill:#F2D19F;}
	.st83{fill:#FCFCFC;}
	.st84{fill:#F2D29E;}
	.st85{fill:#AA3720;}
	.st86{fill:#3960AA;}
	.st87{fill:#EDB68E;}
	.st88{fill:#F1AA8D;}
	.st89{fill:#4CC0C6;}
	.st90{fill:#020202;}
	.st91{fill:#040404;}
	.st92{fill:#0F1110;}
	.st93{fill:#222222;}
	.st94{fill:#FDFDFD;}
	.st95{fill:#282828;}
	.st96{fill:#0B0B0B;}
	.st97{fill:#2F2F2F;}
	.st98{fill:#749993;}
	.st99{fill:#70968E;}
	.st100{fill:#F39A20;}
	.st101{fill:#E9A389;}
	.st102{fill:#EAA98C;}
	.st103{fill:#EBAE8E;}
	.st104{fill:#F0C89B;}
	.st105{fill:#EEBE96;}
	.st106{fill:#ECB892;}
	.st107{fill:#EFC499;}
	.st108{fill:#3986A5;}
	.st109{fill:#398CAA;}
	.st110{fill:#3B96B1;}
	.st111{fill:#3B87B7;}
	.st112{fill:#E1A48B;}
	.st113{fill:#E6B491;}
	.st114{fill:#DCA57B;}
	.st115{fill:#3A83B6;}
	.st116{fill:#EFC298;}
	.st117{fill:#F1C89B;}
	.st118{fill:#EDB892;}
	.st119{fill:#EEBD95;}
	.st120{fill:#ECB08F;}
	.st121{fill:#43BDC7;}
	.st122{fill:#EAA98E;}
	.st123{fill:#EAA88C;}
	.st124{fill:#E7A289;}
	.st125{fill:#99D12D;}
	.st126{fill:#E1F1F3;}
	.st127{fill:#E0EFEC;}
	.st128{fill:#E69484;}
	.st129{fill:#EEC299;}
	.st130{fill:#EEBA94;}
	.st131{fill:#E0F3F5;}
	.st132{fill:#D60B09;}
	.st133{fill:#819811;}
	.st134{fill:#6188CA;}
	.st135{fill:#AB3D28;}
	.st136{fill:#F2BA17;}
	.st137{fill:#286258;}
	.st138{fill:#286358;}
	.st139{fill:#E5EAE7;}
	.st140{fill:#E8EEED;}
	.st141{fill:#3C3D3C;}
	.st142{fill:#EEF2F1;}
	.st143{fill:#205D52;}
	.st144{fill:#8DABA5;}
	.st145{fill:#2B2B2B;}
	.st146{fill:#323333;}
	.st147{fill:#383837;}
	.st148{fill:#3F3E3D;}
	.st149{fill:#F1B18D;}
	.st150{fill:#0B0C0B;}
	.st151{fill:#0E0E0E;}
	.st152{fill:#090909;}
	.st153{fill:#BDB59F;}
	.st154{fill:#000100;}
	.st155{fill:#F5C297;}
	.st156{fill:#CACACA;}
	.st157{fill:#1F2020;}
	.st158{fill:#D0D0D0;}
	.st159{fill:#CECFCF;}
	.st160{fill:#D1D1D1;}
	.st161{fill:#CFCFCF;}
	.st162{fill:#EF5293;}
	.st163{fill:#1C1C1C;}
	.st164{fill:#252525;}
	.st165{fill:#DD7572;}
	.st166{fill:#E49581;}
	.st167{fill:#E69D85;}
	.st168{fill:#E07E77;}
	.st169{fill:#CBCBCB;}
	.st170{fill:#A8A9A9;}
	.st171{fill:#A1A1A1;}
	.st172{fill:#C3C3C3;}
	.st173{fill:#0D0E0E;}
	.st174{fill:#161616;}
	.st175{fill:#191A1A;}
	.st176{fill:#C9C9C9;}
	.st177{fill:#CECECE;}
	.st178{fill:#FBFBFB;}
	.st179{fill:#ABABAB;}
	.st180{fill:#ACADAC;}
	.st181{fill:#DE4489;}
	.st182{fill:#F668A0;}
	.st183{fill:#F4629D;}
	.st184{fill:#F667A0;}
	.st185{fill:#F15C98;}
	.st186{fill:#F4639D;}
	.st187{fill:#F15795;}
	.st188{fill:#F3609B;}
	.st189{fill:#FAE8F0;}
	.st190{fill:#F0BCD0;}
	.st191{fill:#E9D1DB;}
	.st192{fill:#EBBACE;}
	.st193{fill:#FC80AF;}
	.st194{fill:#E69381;}
	.st195{fill:#F3D29F;}
	.st196{fill:#F2CD9D;}
	.st197{fill:#F7D09F;}
	.st198{fill:#F7DCC6;}
	.st199{fill:#F3609C;}
	.st200{fill:#46BEC7;}
	.st201{fill:#FAF4EF;}
	.st202{fill:#DD860C;}
	.st203{fill:#E69D14;}
	.st204{fill:#C47E70;}
	.st205{fill:#82A615;}
	.st206{fill:#F0CE9D;}
	.st207{fill:#E5BA87;}
	.st208{fill:#C97E6F;}
	.st209{fill:#E89F86;}
	.st210{fill:#FAFAFA;}
	.st211{fill:#3980A1;}
	.st212{fill:#5A91AC;}
	.st213{fill:#ECB390;}
	.st214{fill:#E1A477;}
	.st215{fill:#F0C89A;}
	.st216{fill:#E39181;}
	.st217{fill:#D2D2D2;}
	.st218{fill:#D3D3D3;}
	.st219{fill:#D4D4D4;}
	.st220{fill:#F89F15;}
	.st221{fill:#EFB18C;}
	.st222{fill:#F2BB93;}
	.st223{fill:#070808;}
	.st224{fill:#111111;}
	.st225{fill:#E1867B;}
	.st226{fill:#070606;}
	.st227{fill:#080808;}
	.st228{fill:#1C1D1D;}
	.st229{fill:#3EA5BB;}
	.st230{fill:#272828;}
	.st231{fill:#2A2A2A;}
	.st232{fill:#191919;}
	.st233{fill:#0A0B0B;}
	.st234{fill:#131313;}
	.st235{fill:#3D9CB5;}
	.st236{fill:#F56AA1;}
	.st237{fill:#418FAC;}
	.st238{fill:#EDB9CE;}
	.st239{fill:#3F3D3C;}
	.st240{fill:#E9D3DC;}
	.st241{fill:#ECBACE;}
	.st242{fill:#EAD4DD;}
	.st243{fill:#EACEDA;}
	.st244{fill:#ECB5CB;}
	.st245{fill:#EBC6D5;}
	.st246{fill:#EACED9;}
	.st247{fill:#E79983;}
	.st248{fill:#E9E3E3;}
	.st249{fill:#E6BE8B;}
	.st250{fill:#121313;}
	.st251{fill:#3FAEC1;}
	.st252{fill:#292929;}
	.st253{fill:#ECB483;}
	.st254{fill:#E9A970;}
	.st255{fill:#D2D5D5;}
	.st256{fill:#161717;}
	.st257{fill:#0E0F0F;}
</style>
<g>
	<path class="st0" d="M223.6,122.1c5.2-6.7,12.9-9.3,20.2-12.5c0.5,0.5,1,1,1.4,1.6c8.9,15,22,18.8,37.6,10.8c3.8-2,7.5-4.2,10-7.8
		c0.3-0.4,0.6-0.8,0.9-1.2c1-1.1,1.9-2.2,2.8-3.3c0.4-0.3,0.8-0.6,1.2-0.7c16.2,0.8,24.3,12.3,32.1,24.2c2.2,3.4,4.3,6.9,6.5,10.4
		c0.4,0.6,0.8,1.3,0.5,2c-2.9,6.2-3.7,13.1-5.9,19.5c-6.3,2.4-11.8,6.4-17.7,9.6c-2.4,1.3-4.5,3.6-7.7,2.9c-0.5-0.2-0.9-0.5-1.3-0.9
		c-2.3-3.3-3.6-7.2-5.3-10.8c3.3,6.2,2.6,13.5,5,19.9c1.4,5,1.7,10.3,3.1,15.3c0.2,0.5,0.3,1.1,0.4,1.6c0.2,2.2,0.1,4.4,0.9,6.6
		c0.4,2.3,0.6,4.5,0.1,6.8c-0.4,1.4-1.4,2.4-2.6,3.2c-3.3,1.6-6.6,3.3-9.9,4.9c-1.5,0.6-3,1-4.6,0.4c-3.2-1.9-6.4-2.3-9.3,0.7
		c-0.6,0.5-1.2,0.8-1.9,1.1c-2.8,1-3.2,4.1-5.2,5.8c-2.7,1.8-5.9,2.3-8.8,3.5c-3.7,1.1-7.3,2.4-11.3,2.4c-3.7-0.9-7.3-1-10.8,0.7
		c-3.1,0.9-6,2.3-9,3.4c-2.8,0.9-5.6,2-8.3,3.1c-1.7,0.7-3.6,1.9-5-0.6c-0.3-9.1,1.2-18.1,1.7-27.2c1.2-5.8,0.8-11.7,1.4-17.5
		c1.8-16,0.6-32-1.3-47.9c-0.4-3-0.3-6-1-9c-0.5-3.2-1.1-6.5-1.5-9.7c-0.1-1.7-0.1-3.3,0.3-5C221.8,126.2,223.4,124.4,223.6,122.1z"
		/>
	<path class="st1" d="M330,165.1c1-7.5,3.3-14.7,6.3-21.6c0.7-0.3,1.3-0.7,2-1c1.9-1,2.9-3.1,4.5-4.4c14.9-12.6,35.5-9.1,47.6,2.8
		c7.3,4.6,9.3,11.5,8.5,18.8c0.1,1.5,1.2,0.7,0.6,1c-0.2,0.1-0.3,0-0.3-0.4c0-5.6-1-11.3,1.1-16.7c4.9-1.1,7.7,2.3,10.1,5.4
		c7.6,9.7,5,20.9-6.4,29.1c-2.9,0.8-5.8,1.9-8.9,2c-0.3,0-0.6,0-0.9-0.1c-1.2,1.7,0.7-4.5-1.4-0.5c-0.3,0.6-0.7,1.2-1,1.8
		c-0.8,1.3-1.7,2.4-2.5,3.7c-3.2,4.4-6.8,8.2-12.2,9.8c-1.1-0.1-2-0.6-2.8-1.3c-3.3-3.2-4.8-7.7-7.8-11c-1.8-2.8-2.6-6-4.3-8.8
		c-1.2-2.6-2-5.3-3.3-7.8c-1.4-3.7-2.4-7.4-3.1-11.3c-0.8-2.6-0.1-5.3-0.9-8.3c-3.7,1.2-6.3,3.9-9.1,6.2c-1.9,1.8-3.8,3.6-5.6,5.5
		c-1.6,1.6-2.8,3.7-4.3,5.4c-1,1.3-1.6,2.8-2.4,4.2c-1.1,1.2-1.6,3.2-3.9,2.9c-1.1-1.3-1.1-2.8-0.7-4.3
		C329.2,165.7,329.5,165.3,330,165.1z"/>
	<path d="M240.7,52.1c0-4.8-2.6-8.8-3.6-13.3c-2.4-10.9-0.3-15.8,10.1-19.7c6.5-2.4,12-6,16.9-11c3.4-3.5,7.3-6.4,12.1-7.7
		c7.4-2,13.2,1.8,14.3,9.4c0.2,1.4-0.1,2.7,1.1,4c9.2,9.9,7.6,20.7,2.7,31.8c-0.4,0.5-0.8,0.5-1.3,0.1c-1.2-1.8-1.4-3.8-1.8-5.8
		c-0.2-1.6,0-3.3-0.5-4.9c-0.2-0.4-0.3-0.9-0.4-1.3c-0.4-1.4-0.8-2.7-1.6-3.8c-1.7-2.8-3.8-2-5.9-0.5c-5.7,4.1-12.2,6.5-19.1,7.9
		c-2.6,0.5-5.2,0.5-7.8,0.4c-3.7-0.2-5.3,1.2-4.3,4.9c0.2,2.5-0.4,4.9-1.3,7.2c-1,2.2-2.2,4.3-3.9,6c-2.5,1.3-3.8-0.6-5.1-2.2
		C241,53.1,240.8,52.6,240.7,52.1z"/>
	<path class="st2" d="M176.6,123.2c0.6-4.4,1.1-8.8,1.7-13.3c0.6-4.5,1.9-8.8,5.5-11.9c2.1-1.8,4.4-3.1,7.4-2
		c2.9,1.1,3.8,3.7,4.1,6.4c0.3,2.8,0.2,5.7,0.3,8.6c0,0.3,0.1,0.5,0.1,0.8c0.5,2.9-0.5,5.2-2.6,7.2c-2.8,2.5-3.6,5.5-2.3,9.1
		c1.5,4.1-0.7,8.2-1.7,11.9c-1.1,3.9-2.7,8.1-5,11.7c-3.6,2-7.2,4.2-11.1,0.8c-0.9-2-0.1-4,0.3-5.9c0.9-2.7,0.5-5.6,0.7-8.3
		c0-0.6,0.1-1.1,0.2-1.7C175.6,132.2,173.1,127.1,176.6,123.2z"/>
	<path class="st3" d="M292.1,65.2c-0.5,8.5-2.6,16.3-8.8,22.6c-4,4.2-9.1,4.8-14.4,4.3c-5.3-1.1-10.4-2.6-13.6-7.4
		c-0.1-0.6-0.1-1.1,0.2-1.6c6-3.4,11.9-7,18.3-9.7c3.1-1.3,6.1-2.9,9-4.7c2.3-1.4,4.6-5.1,7.8-1.1c0.1-0.3,0-0.7,0-1
		C290.6,65.7,291,65,292.1,65.2z"/>
	<path class="st4" d="M291,106.1c2.3,0.9,4.5,1.9,6.8,2.8c0,0-0.3,0.4-0.3,0.4c-1,1.5-2.2,2.7-3.2,4.2l0,0
		c-10.9,13.5-28.6,16.7-42.4,7.8c-4.6-3-7-7.8-6.1-12.3c1-0.6,2.1-1.1,3.1-1.7c1.3,0.5,1.5,1.8,2.1,2.8c0.7,1.5,1.4,3,2.7,4.2
		c9.1,6.1,19,5.7,28.5-1.1c1.5-1.6,3.3-2.7,4.8-4.3C288.3,107.8,289.2,106.3,291,106.1z"/>
	<path class="st5" d="M247,66.3c-0.4-0.3-0.8-0.6-1.2-1c-0.1-1.9-0.3-3.7-0.1-5.6c0.1-2.8,1.9-3.8,4.3-4.8
		c13.9-6.1,27.7-12.3,40.2-21c0.3-0.2,0.7-0.1,1,0l0,0c0.8,1.6,0.3,3.3,0.4,5c0.6,3.3-0.8,5.5-3.6,7c-13,6.7-26.1,13.1-38.9,20.2
		C248.4,66.4,247.7,66.5,247,66.3z"/>
	<path class="st6" d="M251.4,78c-0.9-1.7-2.1-3.3-2.2-5.3c2.6-2.7,5.5-4.8,8.9-6.6c9.8-5.4,20.1-9.7,29.9-15.1
		c2.7-1.5,6-2.8,6.6,2.3c0.1,1.4,0,2.7-0.7,3.9c-0.3,0.4-0.7,0.7-1.3,0.8c-1.7-0.2-3.1,0.4-4.5,1.2c-11.5,6.9-24.6,10.8-35.6,18.8
		C252.1,78.3,251.7,78.2,251.4,78z"/>
	<path class="st7" d="M176.6,123.2c-0.6,4.6-0.1,9.3-1.5,13.9c-4.7,2.8-7.8-0.1-10.8-3.1c-0.3-0.4-0.6-0.9-0.8-1.4
		c-0.6-2.1-0.1-4,0.7-6.2c-1.6,2-1.9,4.6-4.3,5.8c-0.8,0.2-1.5,0.1-2.1-0.5c0.8-3.9,2.5-7.2,5.3-10.2c3.2-3.4,5.9-3.7,9.4-0.6
		C173.6,121.9,175.2,122.4,176.6,123.2z"/>
	<path class="st8" d="M292.1,65.2c-1,1.4-1.3,2.6-4.2,2.4c-4-0.2-6.8,4.6-10.9,5.9c-7.6,2.3-13.5,8.2-21.4,9.9
		c-1.1,0.3-1.4-0.4-1.5-1.3c-0.6-4.8,3.4-6.4,6.4-7.4c9.8-3.3,17.6-10.2,27.2-13.7c1.5-0.5,2.7-1.8,4.5-1.5c1.6,1.2,1.1,2.9,1.1,4.5
		C292.8,64.5,292.5,64.8,292.1,65.2z"/>
	<path class="st9" d="M293.3,53.4c0.1-4.3-3.1-2.6-4.1-1.6c-4.8,4.9-11.9,5-17.3,9.1c-3.9,3-9.5,4.8-14.4,7.1
		c-2.4,1.1-4.4,1.9-5.6,4.3c-0.7,1.3-1.8,0.8-2.8,0.4c-0.8-1.3-1.2-2.7-1.1-4.3c1.6-2.9,4.9-3.6,7.5-4.9
		c11.3-5.6,22.2-12.1,33.9-17.1c1.3-0.6,2.5-1.4,4-0.6c0.2-0.1,0.4-0.2,0.6-0.1c0.1,1.5,0.1,3.1,0.2,4.6
		C295.1,51.7,295.6,53,293.3,53.4z"/>
	<path class="st10" d="M293.6,45.8c-15.1,7.6-30.3,15.1-45.4,22.7c-0.4-0.7-0.8-1.4-1.2-2.1c6.9-5.5,15.1-8.9,23-12.7
		c6.1-2.9,11.5-7,17.9-9.3c2.2-0.8,3.6-2.3,3.2-4.9c0.3-0.5,0.7-0.5,1,0C292.6,41.6,293.1,43.7,293.6,45.8z"/>
	<path class="st11" d="M292.2,59.8c-10.4,4.4-19.2,11.8-30,15.4c-3,1-7.3,2.5-7.6,7.2c-0.3,0.4-0.6,0.4-0.9,0
		c-0.7-1.5-1.5-2.9-2.2-4.4c5.1-5.4,12-8,18.4-11.2c6.4-3.2,13.2-5.6,19.2-9.7c1.4-0.9,2.7-2.5,3.2,0.6
		C292.8,58.4,292.7,59.1,292.2,59.8z"/>
	<path class="st12" d="M389.9,141.4c-10.3-7.6-21.3-12.2-34.4-8.6c-4.8,1.3-8.6,4.3-12.8,6.5c-1,0.3-1.4-0.1-1.1-1.1
		c7.7-7.9,17.1-11,27.9-10.7c8.4,2.2,16.3,5.3,21.5,12.9C391.2,141.3,391,141.7,389.9,141.4z"/>
	<path class="st13" d="M198.5,111.2c2.8-1.9,5.5-6.7,8.8-0.4c0.5,0.9,1.6,0,2.3-0.5c0.7-0.6,2.1-1.1,2.3-0.3
		c0.6,3.1,4.8,5.4,4.5,6.8c-1.2,5,2.9,11.1-2.8,15c-0.7,0.5-1.4,0.5-2.2,0.2c-1.1-5.3-5-9.4-6.5-14.6c-0.6-2.2-1.5-4-4-4.4
		C199.9,112.6,199,112.2,198.5,111.2z"/>
	<path class="st14" d="M252.3,101.5c0.1-1.5-0.1-3,1.1-4.2c5.6,1.9,26.9,0.4,31.3-2.2c1.2,1.3,1.7,2.8,2.1,4.4
		c1.2,2.2-0.4,2.9-2,3.4c-2.5,0.8-5,2.2-7.6,2.2c-6.2,0.1-12.3,0.3-18.5,1C256.1,106.3,251.9,106.5,252.3,101.5z"/>
	<path class="st15" d="M222.2,133c0.5,3.4,1.1,6.8,1.6,10.2c-3.2,5.1-8.4,3.7-13.1,3.9c-2.8-6.2-1.6-10,4.2-13.7
		c0.6-0.2,1.3-0.4,1.9-0.6C218.7,131.7,220.5,131.1,222.2,133z"/>
	<path class="st16" d="M284.7,95c-1.4,5.8-6.7,3.9-9.6,3.7c-6.5-0.6-12.8,1-19.1,1.3c-2.9,0.2-2.3-1.4-2.5-2.8
		c0.1-5,0.1-9.9,0.2-14.9c0.3,0,0.6,0,0.9,0c0.4,0.3,0.7,0.7,1.1,1c0,0.3,0.1,0.7,0.1,1c0.5,2.8,0.1,5.7,0.5,8.5
		c3,2.7,6.7,1.8,10,1.4c5.8-0.6,11.8-0.8,17.4-2.5C284.6,92.7,284.7,93.9,284.7,95z"/>
	<path class="st17" d="M252.3,101.5c1.8,3.9,5.3,3.8,8.6,3.1c4.4-0.9,8.6-1.3,13.1-0.9c4.7,0.3,9.2-0.8,12.8-4.2
		c1.9,1.4,1.8,3.9,3.1,5.6c-1,4.4-4.9,2-7,2.3c-9.9,1.7-19.9,1.1-29.9,1.2c-1.7,0-4,0.3-2.9-2.8
		C250.9,104.3,251.6,102.9,252.3,101.5z"/>
	<path class="st18" d="M283.7,91.8c-0.3,1.5,0,4-2.4,3.1c-6.3-2.4-11.9,2.5-18,1.2c-2.9-0.6-6.3,0.7-8.7-1.9c2-3.1,5.2-3.2,8.3-3.3
		c1.9-0.1,3.8,0.5,5.7,0.1c5.3,0.8,10-1.4,14.9-3.1C283.5,89.1,283.6,90.5,283.7,91.8z"/>
	<path class="st19" d="M215,133.4c-3.7,3.6-5,8-4.5,13c-0.7,1.2-1.8,1.2-3,0.9c-2.5-1.3-4.6-3.1-6.3-5.3c-1.2-3.5,0-6.3,2.2-8.9
		c2.4-2.1,5-3.2,8.2-1.8c0.6,0.1,1.2,0.3,1.8,0.4C214,132.3,214.5,132.9,215,133.4z"/>
	<path class="st20" d="M250.2,105.8c0.2,0.9,0.3,1.6,1.6,1.6c10-0.3,20.1,0,30.1-1.1c2.5-0.3,5.7,0.6,8.1-1.2c0.4,0.3,0.7,0.7,1.1,1
		c-1,1.1-2,2.3-3,3.4c-5.2,1.1-10.3,2.1-15.7,1.1c-5.6-1.1-11,2.3-16.7,1.2c-1.9-0.4-3.9,0-5.5-1.4c-0.4-1-0.8-2-1.1-3
		C249.4,106.8,249.8,106.3,250.2,105.8z"/>
	<path class="st21" d="M245.8,108.9c0.8,8.8,9,15.7,18.8,16.4c10.8,0.7,20-2.5,27.6-10.3c0.6-0.6,1.4-1,2.1-1.6
		c-0.8,4-4.1,5.7-7,7.5c-11.2,7.1-22.6,9-34.6,1.8c-5.1-3.1-7.7-7.6-8.9-13.3C244.5,109.3,245.2,109.1,245.8,108.9z"/>
	<path class="st22" d="M144.8,144.8c-2.9-4.3,1.8-4.5,3.5-6.3c3.2-1.1,6.5-2.2,9.7-3.3c2.5-2.1,4.3-1.4,5.5,1.3
		c-0.2,0.9-0.9,1.3-1.7,1.7c-2.5,0.6-4.8,1.8-7.1,3C151.5,142.7,148.1,143.5,144.8,144.8z"/>
	<path class="st23" d="M293.3,53.4c1.2-0.8,1-2,1.1-3.2c4.4,3.4,4.3,6.5-0.1,12.7c-2.6-1.3-1.3-3.4-0.9-5.2
		C293.2,56.3,293.3,54.9,293.3,53.4z"/>
	<path class="st24" d="M247,59.8c-0.3,1.9,0.8,4-1.2,5.5c-0.7-0.7-1.4-1.3-2.2-2c-1.3-3.5-4.6-6.7-2-10.9c1.9,0.2,1.4,4,4.2,2.8
		C247.4,56.5,245.7,58.5,247,59.8z"/>
	<path class="st25" d="M163,137.1c-0.8-3-3.2-1.6-5-1.9c0-1.2,0-2.3-0.1-3.5c0.7,0,1.4,0,2.1,0c1.8-1.3,3.2-0.7,4.3,1.1l0,0
		c1.8,3.1,4.9,6.1,1.6,10c-0.9,0.2-1.7-0.1-2.2-0.9C163,140.4,162.5,138.8,163,137.1z"/>
	<path class="st26" d="M241.7,52.4c0.7,3.6,1.3,7.3,2,10.9c-2.7-3.3-7.3-6.1-3-11.3C241.1,52.1,241.4,52.2,241.7,52.4z"/>
	<path class="st27" d="M222.2,133c-1.8-0.1-3.6-0.2-5.4-0.2c1.5-2.5,3-5,4.5-7.5c1.9-0.1,1.6,1,1,2.1
		C222.3,129.3,222.3,131.2,222.2,133z"/>
	<path class="st28" d="M198.5,111.2c0.9,0.1,1.8,0.2,2.3,1.1c-0.1,2.4-1.8,2.3-3.4,2.1c-1.5-0.2-2.8-0.9-2.1-2.9
		c0.2-0.1,0.2-0.3,0.2-0.5C196.5,111.1,197.5,111.2,198.5,111.2z"/>
	<path class="st29" d="M341.6,138.1c0.4,0.4,0.7,0.7,1.1,1.1c-1,1.7-2.2,3.1-4.3,3.2C339.2,140.8,339.7,138.9,341.6,138.1z"/>
	<path class="st30" d="M222.4,127.4c-0.1-0.8-0.2-1.7-1-2.1c0.7-1.1,1.5-2.1,2.2-3.2C224.9,124.2,223.3,125.8,222.4,127.4z"/>
	<path class="st9" d="M293.2,57.7c0.3,1.7-0.7,3.7,0.9,5.2c-0.3,0.4-0.7,0.8-1,1.2c-1.5-1.1-0.9-2.8-1-4.3c0-0.7,0-1.4,0-2.1
		C292.5,57.7,292.9,57.7,293.2,57.7z"/>
	<path class="st31" d="M596.1,327c0.1,15.7,0.3,31.4,0.4,47.2c0,1.8-0.1,3.6-0.1,5.3c-2.2,0.3-2.1-1.5-2.4-2.8
		c-0.4-1.9-0.3-3.9-0.2-5.9c0.7-21.4-1.7-42.8-1.1-64.3c0-0.9,0-1.7-0.3-2.6c-3.2,4.8-3.2,4.8-9,0.8c-0.4,3.3-1.1,6.1-4.1,8
		c-1.7,1.1-0.8,3.2-0.5,5c0.3,1.7-0.2,3.3-1.9,4c-1.9,0.8-3-0.5-4-1.8c-2.1-2.9-5.5-5.5-1.3-9.5c1.5-1.4,0.5-3.7-0.7-6
		c-1.1,2.4-2,4.9-5.1,4.1c-3.3-0.8-2.7-3.7-3.4-6c-0.7-2.4,1.7-4.4,0.5-6.7c0.4-0.7,0.8-1.5,1.2-2.2c1.2-0.5,1.3-2.2,2.5-2.5
		c3.8-1.2,3-3.5,1.7-6c0.2-1,0.8-2.4-0.4-2.9c-1.9-0.7-2.3,1.1-2.9,2.3c-6.8,13.1-13.5,26.2-20.3,39.3c-2,3.9-4.2,7.8-6.3,11.7
		c-0.5-0.8-0.5-1.7-0.5-2.6c0-22.9,0-45.7,0-68.6c0-0.7,0.3-1.4,0.1-2.1c-0.1,22.5-0.1,45-0.1,67.5c0,1.9-0.5,3.9,0.5,5.8
		c0,0.9-0.3,1.7-1.3,2.2c-1.3-1.1-0.6-2.6-0.6-3.9c-0.1-22.5,0-45,0-67.6c0-0.7,0.1-1.5,0-2.1c-0.3-1.6,1-4.4-1.5-4.3
		c-2.3,0-1.5,2.8-1.5,4.5c0,33.8,0,67.6,0,101.3c0,1.4,0,2.8,0,4.3c-2.2-0.1-2.1-1.9-2.7-2.9c-8.3-16-16.5-32.1-24.8-48.1
		c-0.9-1.8-1.3-5-4.8-3.3c-0.9,0.3-0.7,1-0.8,1.7c-0.8,3.9-2.4,4.7-5.1,2.1c-2.1-2-3.2-1.6-4.5,0.5c-1.3,2.1-2.8,3.9-5.6,2.9
		c-2.6-1-3.2-3.1-3-5.6c0-0.5,0.1-1.1-0.4-1.8c-1.8,1-2.9,2.9-2.7,4.7c1.2,11.3-3.6,22.1-2.4,33.4c0.5,4.9,0.3,10-0.1,15
		c-0.1,1.4-0.4,2.8-1.9,3.9c-2.5-1.7-2-4.3-2-6.7c-0.1-16.6,0.1-33.2-0.2-49.8c0.3-4.4-0.9-9,1.1-13.3c0.2-12.7,0.4-25.3,0.6-38
		c0.6-28,19.5-51.1,46.7-57.5c32.4-7.5,64.6,12.3,72.4,44.6c0.4,1.6,0.8,3.1,1.2,4.7c0.4,22.5,0.9,44.9,1.4,67.4
		C595.5,324.7,595.9,325.9,596.1,327L596.1,327z"/>
	<path class="st32" d="M473.6,315.9c0,18.3,0,36.6,0,54.8c0.4,0,0.8,0,1.2,0c0-6.9,0.6-13.9-0.1-20.7c-0.9-8.3,2.3-16.1,2.5-24.2
		c0.1-3.8-1.4-7.8,1.8-11.5c1.1-1.3,1.2-2.8,3.3-1.9c1.7,0.7,3,1.9,1.6,3.7c-2,2.5-1.2,4.5,1.3,5.6c3,1.3,3.3-1.3,4-3.4
		c0.6-2.1,2.7-2.8,4.7-3c3.2-0.4,1,2.2,1.7,3.3c0.5,0.8,0.9,1.5,2.1,1.2c2.4-0.6,1.9-2.7,2.2-4.4c0-0.1,0.2-0.4,0.3-0.3
		c0.3,0.1,0.6,0.3,0.9,0.4c5.2,10.3,10.4,20.7,15.6,31c2.7,5.3,4.9,10.8,8.1,15.7c7.6,11.2,9.4,23.4,8.8,36.6
		c-0.7,15.9-0.2,31.8-0.2,47.7c0,1.7,0,3.5,0,5.2c-0.4,0.1-0.8,0.2-1.1,0.4c-3.7-7.2-7.5-14.3-11.2-21.5c-5.1-9.8-10-19.7-15.2-29.5
		c-0.8-1.5-1.2-4.8-3.5-3.7c-2.6,1.2,0.1,3.4,0.8,4.9c9.4,18.5,18.8,36.9,28.4,55.3c1.4,2.6,1.9,5.3,1.9,8.2
		c-0.1,12.3-0.2,24.7,0.1,37c0.1,4.1-0.9,5.7-5.3,5.5c-7.7-0.3-15.4,0.1-23.1,0.1c-11.5,0.6-22.9,0.5-34.4,0.1
		c-3.2-5.7-1.9-11.8-1.4-17.7c1.5-18.1,0.4-36.2,0.7-54.3c-0.6-2.5,0.4-5.1-0.1-7.6c-0.3-16.3,1.4-32.6,1.1-49
		c0-2.6,0.6-5.2,0.2-7.8c-0.1-16.2-0.1-32.4,0-48.7C471,320.7,470.3,317.5,473.6,315.9z"/>
	<path class="st32" d="M562.7,295.7c1.2,0.1,2.5-0.1,3.9,1.3c-5.2,1.8-2.5,5.7-2.4,9c0.1,1.7,1.7,1.5,3,1.5c1.7,0,1.4-1.1,1.2-2.2
		c-0.3-1.7,0-3.6,1.9-3.8c3-0.4,1.6,2.5,2.4,3.7c3.1,4.3,0.8,6.8-2.9,9c0.5,2.5,4.5,1.9,4,5.2c-0.2,1.1,1.1,2.4,2.6,1.6
		c1.3-0.6,1.8-2.1,1-3.2c-3.3-4.1-0.5-6.2,2.7-7.8c1.8-0.9,2.1-1.6,0.9-3.1c-1.3-1.7-0.5-3.3,0.9-4.1c1.8-1,3.4,0.1,4.4,1.8
		c0.6,1,0.5,2.9,2.3,2.2c1.3-0.5,2.3-1.7,1.7-3.4c-0.4-1.1-1.2-2.7,1-2.7c1.2,0,2.4,0.8,2.7,2.2c0.1,0.9,0.1,1.8,0.1,2.7
		c-0.6,22.8,1.8,45.6,1.1,68.5c-0.1,1.9-0.7,4,1.1,5.5c1.4,9.6,0.6,19.2,0.9,28.8c0.3,10.3,0.4,20.7,0.5,31.1c-1,2.4-3.3,2.5-5.3,3
		c-8.2,2.3-15.4,6.5-22.2,11.6c-2.8,2.1-3.4,4.1-0.8,7c4.5,5,8.7,10.4,13.3,15.3c1,1,2,2.1,2.7,3.3c0.8,1.5,2.6,3.1,1,4.7
		c-1.3,1.3-3-0.1-4.4-0.8c-7-3.9-14-7.8-20.9-11.9c-3.7-2.2-5.8-2-8.1,1.9c-5.3,9.1-7.9,19-9.2,29.3c-0.2,1.7,0.1,3.6-1.4,5
		c-4.9,1.2-6.4-0.4-6.4-5.6c0.3-21.3,0.5-42.5,0-63.8c-0.2-9.1,1.9-17,6.2-24.9c8.5-15.7,16.5-31.7,24.7-47.6c0.5-0.9,1-1.9,1.3-2.9
		c0.1-0.6-0.1-1.5-0.5-1.9c-0.9-0.8-1.7-0.1-2.2,0.7c-1.3,2.3-2.5,4.7-3.7,7.1c-7.8,15-15.7,30.1-23.5,45.1
		c-1.9-1.9-1.2-4.4-1.2-6.6c-0.2-20.5,0.3-40.9-0.3-61.4C544.9,329,553.8,312.3,562.7,295.7z"/>
	<path class="st33" d="M473.6,315.9c-1.4,13.5-0.5,27-0.9,40.4c-0.2,5.5-0.3,11-0.4,16.5c-0.6,3.7-2.2,7-4.3,10
		c-1,1.4-2,3.2-4.1,1.3c-1.7-2.2-1.3-4.7-1.3-7.2c-0.1-11.9,0.1-23.9-0.1-35.8c-0.1-0.4-0.3-0.7-0.6-0.9c-0.3,0.4-0.5,0.7-0.5,1.2
		c-0.1,21,0.1,41.9,0,62.9c0,2.5,0.3,5-0.7,7.3c-3,2.7-3.5-0.5-4.4-2.1c-5.7-10.1-10.4-20.7-16-30.7c6.2,11.4,11.8,23.2,17.8,34.7
		c1.2,2.4,2.6,4.7,3.2,7.3c0.4,14.4,0.2,28.9,0.2,43.3c0,1.8,0,3.6-1.3,5c-3.1,0.6-3.2-2.3-4-3.9c-5.1-9.5-9.9-19.1-15-28.6
		c6.2,11.6,12,23.5,18.3,35c0.9,1.6,1.7,3.2,1.7,5c0.4,9.3,0.3,18.5,0.1,27.8c0,2.3-0.9,4-3.8,4c-13-0.1-26.1,0-39.1-0.1
		c-0.6,0-1-0.3-1.3-0.8c0.2-11.7,0.3-23.4,0.5-35.2c0-1.4,0.3-2.8-0.8-4c4.4-1.9,4-6.1,4.6-9.8c0.4-2.3,0.5-4.6,0.7-6.9
		c1.9-12.3,2.9-24.8,4.5-37.1c1.8-13.8,3.3-27.6,4.9-41.5c1.1-9.2,2-18.5,3.3-27.7c-0.8-8.7-3.3-17-4.8-25.6c-0.4-2.3-1.6-4.9,0.6-7
		c7.2-6.6,15-11.6,25.1-12c3.6,0.9,7.1,0.8,10.7,0c2.5-0.5,4.7,0.6,7,1.1C473.4,306.8,473.5,311.4,473.6,315.9z"/>
	<path class="st34" d="M542.5,507.8c0-13.5,3.8-26,10.9-37.5c1.7-2.7,3.1-3.2,5.9-1.4c8.8,5.3,17.8,10.2,27.8,15.9
		c-1.6-4-4.1-6-6.1-8.3c-4.6-5.4-9.2-10.9-14.1-16.1c-2.2-2.4-2.3-3.7,0.3-5.9c8.9-7.5,19.3-12,30.4-15.1c7.4-1.1,14.9-1.6,22.4-0.9
		c7,0.7,7,0.7,6.4,7.4c-0.1,1.1-0.2,2.1-0.3,3.2c-0.9,4-0.8,4.3,1.1,5.3c0.9-1.3,1.7-2.7,2.6-4c6.4-9.1,6.4-9.1,16.1-3.8
		c12.6,6.8,12.6,6.8,4,18.1c-5.3,7-10.6,13.9-15.9,20.9c-0.2,0.2,0,0.6,0,1c2.2,1,3.3-0.9,4.6-1.8c8.3-5.9,16.6-11.9,24.7-17.9
		c2.5-1.9,4-2.4,6.3,0.7c7.9,11.2,8.1,11.1-4,17.6c-3.3,1.8-6.7,3.4-10,5.1c0.2,2.7,1.8,1,2.9,1c6-0.6,11.9-1,17.8-1.9
		c2.7-0.4,3.9,0.5,4.7,2.8c0.4,3.4,0.6,6.7,1.2,10.1c0.8,4.5-0.3,6.1-5.4,6.1c-27.7-0.3-55.3-0.1-83-0.1
		C576.7,508,559.6,507.9,542.5,507.8z"/>
	<path class="st32" d="M28.3,478c-3.5-3-7.1-5.9-10.6-9.1c-7.7-7-13.2-15.2-9-26c4.4-11.4,13.6-17.2,25.5-18.5
		c9.9-1.1,19.2,1.6,28,6c7.7,3.8,15.1,8.1,22.7,12.2c1.7,0,1.9,1.4,2.3,2.5c4,12.2,12.1,21.6,20.4,30.9c8.6,9.7,18.1,18.6,26.4,28.5
		c1.1,1.3,2.7,2.4,2.4,4.5c-14.2,0-28.4,0-42.7,0c-4.6-1.2-8.1-4.3-12-6.7c-15.5-9.6-31.6-17.9-49.6-21.9
		C30.6,480.1,29.1,479.8,28.3,478z"/>
	<path class="st32" d="M186.5,509.1c-11.1,0-22.1,0-33.2,0c-2.2-3.3-0.3-6.5,0.2-9.7c0.5-3.3,1.1-6.6,2.1-9.8
		c7-23.3,17.6-44.8,33.3-63.6c5.3-6.3,11.2-12,17.3-17.5c5.5-5,12.4-6.8,19.6-7.8c4.2,3.7,5.3,9,7.3,13.9c1,4.5-0.8,8.9-0.8,13.3
		c-2,9.7-2.9,19.6-4.5,29.4c-1.3,3.5-0.2,7.4-2.1,10.8c-0.4,1-1,1.9-1.5,2.9c-3.4,6-6.8,11.9-10.5,17.6c-5.7,5.4-12.7,9.2-18.7,14.3
		C192.4,505.1,190.2,508.2,186.5,509.1z"/>
	<path class="st34" d="M136.5,509.1c-11.3-12.3-22.7-24.6-34-36.9c-7.9-8.6-14.1-18.3-17.6-29.5c-0.1-3.4-0.6-6.8-0.2-10.1
		c0.9-9,6.8-14.3,16-14.5c0.7-0.4,1.5-0.2,1.9,0.3c6,7.5,14.3,11.6,23.1,14.8c0.8,2.1,1.6,4.1,4.5,3.5c1.9,4.5,1.2,9.4,2.2,14
		c1.4,6,2.6,12.1,4,18.1c0.5,2,1.3,4.1-0.1,6.2c-2.9,1.5-4.2-0.9-5.9-2.4c-5.4-4.7-9.3-10.8-14.6-15.6c-2.6-2.4-5.2-4.3-8.7-4.9
		c-1.8-0.3-3.7-0.8-5,0.9c-1.3,1.8,0,3.4,1,4.9c6.1,9,14.3,14.8,25.1,16.8c1.4,0.3,2.9,0.2,4.2,0.7c4.2,0.5,6.4,2.9,7.3,7
		c1.6,7.2,4.3,14.2,6.6,21.3c0.6,1.8,1.5,3.6,0.6,5.6C143.6,509.1,140,509.1,136.5,509.1z"/>
	<path class="st34" d="M28.3,478c23,4.9,43.4,15.6,62.6,28.7c1,0.7,1.9,1.6,2.9,2.3c-24.9,0.1-49.7,0.5-74.6,0.1
		c-8.3-0.1-14.1-5.8-17.6-13.1c-2.8-6-2-11.8,2.9-16.7C12.3,475.3,20.4,477.4,28.3,478z"/>
	<path class="st35" d="M324.6,443.5c0.2-14.4-0.6-28.8-1.2-43.2c-1.4-31.3-2.7-62.6-4.2-94c-0.3-6.6-1.2-13.2-6.3-18.2
		c0.8-2.7,2.7-1.9,4.4-1.2c1.4,0.6,2.4,1.9,3.6,2.9c2.3,2.1,4.1,4.5,5.1,7.5c1.5,5.5,2.2,11.3,2.2,17c0,20.7,1.8,41.3,2.5,62
		c1,29.9,2.2,59.9,3.4,89.8c0.4,11.8,0.3,23.5,0.9,35.3c0.9,18.9,1.3,37.8,0.8,56.7c0.2,1.8-0.2,3.4-1.3,4.9
		c-0.3,2.3-0.9,4.5-3.8,4.1c-3.2-0.4-2.9-3.1-2.9-5.4c0-36.9-1.3-73.8-2.3-110.7C325.2,448.4,325.6,445.9,324.6,443.5z"/>
	<path d="M216.8,522.7l-0.2-0.3l0.2-0.2c1.5-2-0.1-4.5,1.1-6.6l0,0c4,1.3,2.4,4.6,2.1,7c-0.8,5.9-0.6,11.7,0.2,17.6
		c0.4,2.8,1.5,4.3,4.4,4c1.5,0.2,2.8,0.9,4.2,1.4c1.3,1.1,2.4,2.7,4,3.4c3,1.4,3.6,3.6,2.4,6.5c0,16.2-2.5,18-17.1,11.3
		c-11.6-5.4-23.1-11.2-34.6-16.8c-1.1-0.5-2.4-0.8-3-2.2c1-2.2,3.1-1.3,4.6-1.5c6.6-0.7,13.2-1.2,19.7-1.7c5-0.3,9.7-1,9.8-7.6
		c1.5-2.1-0.1-4.6,1-6.7c0.1-0.6,0.1-1.2,0.2-1.9C217,526.7,216,524.5,216.8,522.7z"/>
	<path d="M308.2,535c2.2,4.5,5.3,8.4,7,13.2c1.5,4.3,0.1,7.2-4.2,8.1c-16.3,3.4-32.6,6.1-49.1,8.1c-0.4,0.1-0.9-0.4-1.8-0.8
		c7.6-8.3,17.8-13.3,24.5-22.2c1.1-3,3.9-3.2,6.4-4c1.5-0.4,3-0.6,4.4-1.1c2.4-0.8,4.9-1.3,7.3-2.1C304.6,534,306.7,532.3,308.2,535
		z"/>
	<path class="st36" d="M270.6,508.2c-2.2-4.1-4.1-8.4-5.3-12.9c0.2-2.9-2.2-5.5-0.9-8.5c0.9-10,2.5-20.6-0.2-29.7
		c-4-13.5-1.1-26.9-3.4-40.2c-0.4-2.5,1.1-4.9,0.4-7.4c-0.2-0.9-0.3-1.7-0.2-2.6c0.6-2.6,0.9-5.3,1.6-8c0.1-0.5,0.2-1.1,0.4-1.6
		c0.6-1.6,0.8-3.2,1.2-4.9c1-1.8,0.3-5.5,4.4-4.3c1.7,2.1,1.5,4.7,1.5,7.2c0.1,7.3,0,14.6,0,21.9c0,5.1-0.4,10.3,2.5,15
		c0.9,1.5,0.6,3.5,0.6,5.2c0,21.4,0,42.7,0,64.1C273.3,504.1,274.1,507.1,270.6,508.2z"/>
	<path class="st37" d="M270.6,508.2c1.7-1.4,1.1-3.3,1.1-5c0-22.3,0-44.6,0-66.8c0-2.2,0.6-4.6-2.3-5.9c-1.6-0.8-0.9-2.9-0.9-4.5
		c0-10.9,0-21.7-0.1-32.6c0-1.9,0.7-4-1.3-5.4c-0.3-0.4-0.5-0.9-0.6-1.4c0-2.1,0.7-4.1,0.9-6.2c0.7-2.6,1.2-5.3,2.2-7.9
		c0.8-1.2,1-3,3.1-2.6c1.9,1.2,2.4,3.1,2.5,5c0.5,10.4-0.2,20.9,0.7,31.3c-2.9,4.9-0.1,9.4,1,14c0.5,2.1,0.9,4.2,1.3,6.2
		c-2,5.1-1.7,10.4-1.7,15.7c0,22.3,0.1,44.6-0.1,66.8c0,2.8,1.2,6.2-2.5,7.9C272.2,514.2,271.5,511.2,270.6,508.2z"/>
	<path class="st38" d="M423.2,452.4c-0.4,4.4-0.8,8.8-1.1,13.2c-0.2,4.2-3.6,2.4-5.6,3.1c0,0-0.5,0.1-0.5,0.1l-0.4-0.2
		c-0.9-8-0.5-16-0.5-24c0-28.7,0-57.3,0-86c0-2.3-0.2-4.6,0.3-6.9c1.6-2.6-1.7-2.3-2.2-3.7c0-0.6,0.3-1.1,0.8-1.4
		c2.7-1.1,5.5-0.9,8.3-0.5c1,0.3,1.9,0.7,2.2,1.8c-1.6,3.9-1.8,7.9-1.8,12.1c0,30.5,0,61,0,91.5
		C422.8,451.8,423.1,452.1,423.2,452.4z"/>
	<path class="st39" d="M413.4,348.3c1,0.7,2.9-1.1,3.4,1.1c-2.3,1.9-1.6,4.6-1.6,7c0,35.3,0,70.5,0,105.8c0,2.2,0.8,4.7-1.5,6.4
		c-6.1,0.4-12.2,0.8-18.3,1.1c-3.8,1.6-7.6,1.9-11.5,0.2c-0.8-3.3,2-2.4,3.5-2.9c1.9-0.1,3.7,0,5.6-0.1c0.9-0.1,1.8-0.1,2.7,0
		c3.5,0.1,7,0,10.6,0.1c1.2,0,2.1-0.1,1.8-1.7c-0.5-3.4-0.4-6.8-0.4-10.2c0-33.1-0.1-66.2,0-99.3c0-2.2-0.1-4.3-0.7-6.3
		C408.4,345.8,410.9,346.8,413.4,348.3z"/>
	<path class="st40" d="M274.1,516.7c1.5-1.7,0.9-3.7,0.9-5.6c0-25.8,0.1-51.6,0-77.4c0-3.1,0-6,3.4-7.4c2.1,4.8,3.1,10,4.2,15.1
		c-1.1,26.8-0.2,53.6-0.6,80.4c0,2.7,1.2,6.2-2.6,7.8C277,525.5,275.5,521.2,274.1,516.7z"/>
	<path class="st41" d="M382.4,513.5c-4.2,15-11.2,29.4-9.6,45.7c0.1,0.8-0.4,1.6-0.6,2.4c-2.4-1.2-2-3.6-1.9-5.5
		c0.4-4.5-0.9-7.8-5.2-9.5c-0.1-9.1,0.2-18.1,1-27.1c0.6-6.9,1.6-13.8,1.3-20.7c-0.1-2.1-0.6-4.3,1.5-5.9c2.8-0.5,3.6,1.8,4.7,3.4
		c2.7,3.7,4.7,7.8,7.5,11.5C381.7,509.6,384,511.1,382.4,513.5z"/>
	<path class="st42" d="M416.8,532.9c0.3,0.2,0.6,0.4,0.8,0.7c8.2,12.1,8.2,12.1-4.1,19.8c-6.3,4-12.6,7.9-19,11.9
		c-1.1,0.7-2.3,2-3.8,0.8c-1.6-1.3-0.3-2.6,0.3-3.8c2.9-6.7,5.9-13.3,8.9-19.9c0.7-1.8,2.2-2.8,3.7-3.7c1.2-0.9,2.8-1.3,4.1-2.1
		c0.5-0.4,1.1-0.7,1.7-1c1-0.4,2.1-0.8,3-1.4C413.8,533.3,415,531.9,416.8,532.9z"/>
	<path class="st43" d="M279.4,529.6c1.6-1.6,1-3.7,1-5.6c0-24.2,0.1-48.4,0-72.6c0-3.6,0.1-7,2.3-10c2.2,6.4,4,12.9,5.3,19.5
		c-1.2,24.5-0.2,49-0.7,73.5c0,2.4,0.4,5.8-4,5.1C281.9,536.2,280.7,532.9,279.4,529.6z"/>
	<path class="st42" d="M365,545.9c6.5-0.3,7.9,3.2,7,8.9c-0.4,2.2,0,4.6,0.1,6.9c-12.6,0.4-25.2,0.9-37.8,1.3c0-1.5,0-3,0-4.4
		c5.4-6.4,12.5-10.2,19.8-14c2.3-0.3,4.6-0.2,6.9-0.3C362.5,544.4,364,544.5,365,545.9z"/>
	<path class="st34" d="M186.5,509.1c7.7-8.3,17.2-14.3,26.2-20.9c3.1-2,5.1-6.5,10.1-4.5c0.5,0.8,0.7,1.6,0.7,2.6
		c-0.7,7.2-2.7,14.2-3,21.5c-0.1,1.5,0,3.3-2.2,3.7c-0.5-3.1-2.9-2-4.6-2C204.6,509.2,195.6,509.1,186.5,509.1z"/>
	<path class="st44" d="M235.3,555.6c-0.1-2.6-0.3-5.1-3.5-5.5c-2.8-0.3-2.6-3-3.9-4.4c-2-1.9-0.5-4-0.3-6c0.6-2.6,2.1-5,1.7-7.8
		c0-0.5,0.1-1,0.3-1.4c1.4-2.2,2.1-4.6,1.9-7.3c0-0.5,0.1-0.9,0.3-1.4c1.4-2,1.8-4.3,2.3-6.6c0.4-1.7,0.9-3.3,1.1-5
		c0.3-1.8,0.9-3.5,1.2-5.3c0.5-1.6,0.9-3.2,1.6-4.7c0.7-0.9,1.1-2.2,2.6-1.8c2.4,2.3,2.5,5.4,2.7,8.4c0.2,3.5,0.1,7.1,0.1,10.7
		c0,3.2-0.4,6.5,0.6,9.7c-1.2,5.1-2.4,10.2-3.6,15.3C239.2,547.1,238,551.6,235.3,555.6z"/>
	<path class="st34" d="M157.2,488.8c-1.3,6.7-2.6,13.5-3.9,20.2c-1.4,0-2.8,0-4.1,0c-2.6-2.1-2.7-5.3-3.8-8.1
		c-2.4-6.5-4.3-13.2-6.2-19.9c-0.6-1.9-0.9-3.8-0.3-5.8c3.5-2.4,5.8-6.6,10.7-6.8C152.8,475,156.7,481.3,157.2,488.8z"/>
	<path class="st45" d="M218.3,511.3c1.4-8.5,2-17.2,4-25.7c1.4-1.9-1-4.1,0.5-6c0.4-0.6,0.9-0.7,1.6-0.4c2.6,3.7,2.6,8,2.6,12.3
		c0.1,12.1,0,24.2,0.1,36.3c0,2.1-0.3,4.3,0.7,6.3c1.3,1.8,0.3,3.7,0.3,5.6c-1,1.6,0.3,4.2-2.5,5c-1.3,1.2-2.5,2.5-4.5,1
		c-1.5-1.1-2.2-2-2.4-4.2c-0.7-7.2-1.3-14.3,0.3-21.5c0.3-1.5,0.5-3.2-1.1-4.4C218.1,514.2,218.2,512.7,218.3,511.3z"/>
	<path class="st46" d="M413.6,468.6c0-13.4,0-26.7,0-40c0-24.6,0-49.3,0-73.9c0-2.3-1-5.4,3.2-5.2c0.1,38.7,0.1,77.3,0.3,116
		c0,1.6-0.9,2.1-1.4,3.2C415,468.6,414.3,468.6,413.6,468.6z"/>
	<path class="st47" d="M383.5,469.5c4,0.1,7.9,0.2,11.9,0.3c-0.4,1-0.8,2-1.2,3c-4.5-0.4-9-0.9-13.6-0.7c-1.6,0-3.3,0-4.9-0.2
		c-1.1-0.5-2.5-0.3-3.4-1.3c6.5,3.5,10.2,9.6,14.7,14.9c6.6,7.7,12.1,16.3,20.2,22.7c1.9,4.6,4.7,8.9,5.5,13.9
		c-2.5,1.6-3.6-0.5-4.8-1.9c-11.9-13.7-23.8-27.4-35.8-41c-2.3-2.7-5.5-5.2-4.9-9.6c2.2-2.1,5-1.3,7.6-1.5c2.1,0,4.2,0,6.3,0.2
		C382,468.4,382.9,468.7,383.5,469.5z"/>
	<path class="st48" d="M265.3,487.8c-1.1,2.5,2.4,5,0,7.5c-0.4-0.6-0.9-1.2-1.3-1.8c-2.8-2.9-4.2-6.4-4.7-10.3
		c0.4-2.1,0.9-4.2,0.5-6.3c-0.3-1.3,0.2-2.3-2.2-2.2c-2.8,0.1-2.2-3.1-2.2-5.1c-0.2-11.2,0.1-22.5-0.5-33.7
		c-0.1-0.5-0.2-1.1-0.2-1.6c0-1.9,0.7-3.7,0.9-5.6c0.3-1.7,0.8-3.3,1.2-4.9c0.6-1.3,1.1-2.9,3.1-2.5c2.8,4.9,1.1,10.4,1.6,15.6
		c0.6,5.8,0.1,11.7,0.2,17.6c0,0.8-0.6,2.7,1,2.3c4.5-1.2,3.3,2.1,3.2,4C265.6,469.7,266.5,478.8,265.3,487.8z"/>
	<path class="st49" d="M416.8,532.9c-1.5,0.7-2.9,1.4-4.4,2.1c-0.6,0.6-1.4,0.8-1.9,0.1c-8.2-12.3-18.9-22.6-28.2-34
		c-7-8.5-14.3-16.8-21.5-25.1c-1.9-2.2-4-4.2,0.1-6.1c1.1-0.3,2.1-0.3,3.1,0.2c17,20.4,34.6,40.3,51.9,60.5
		C416.3,531.4,416.5,532.1,416.8,532.9z"/>
	<path class="st50" d="M416.9,507.9c13.2,0.1,26.4,0.1,39.6,0.3c2.7,0,3.3-1,3.2-3.4c-0.1-8.9,0-17.8,0.1-26.7c0-2-0.9-3.4-1.7-4.9
		c-6.4-12.5-12.9-25.1-19.2-37.6c-0.5-1.1-2.2-2.5-0.2-3.5c1.6-0.7,1.9,1.2,2.4,2.2c5.9,11.6,11.8,23.2,17.7,34.7
		c1.8,1.8,3.4,3.8,3.9,6.4c0.2,1.3-0.2,2.4-1.2,3.2c-0.5,8.9,0.1,17.9-0.3,26.9c0.6-9.1-0.5-18.2,0.6-27.2c3.1,0.4,2.5,3,2.7,4.9
		c0.3,5,0.4,10,0,14.9c-0.4,5,0.8,8.7,6.2,9.9c11.4,0.1,22.7,0.2,34.1,0.3c-1.7,1.5-3.7,0.8-5.6,0.9c-12.3,0.5-24.6,0.5-36.9,0.4
		c-14.6-0.1-29.2,0.1-43.8-0.6C418,509.1,417.4,508.3,416.9,507.9z"/>
	<path class="st51" d="M303,535.1c-2.4,1.4-5,1.8-7.6,2.1c-3-0.5-2.6-3.1-2.6-5c-0.2-11.3-0.1-22.5-0.1-33.8c0-2.9,1-5.1,3.8-6.4
		c1,2.9,2.1,5.8,3.1,8.7c1.1,4.9,2.3,9.9,3.4,14.8c0.2,0.3,0.5,0.7,0.3,1c-1.9,3.5-0.9,7.2-1.1,10.8
		C302.1,529.9,302.6,532.5,303,535.1z"/>
	<path class="st52" d="M283.2,539.4c3.6-0.6,2.4-3.5,2.5-5.5c0.1-19.5,0-38.9,0.1-58.4c0-5-1.2-10.1,2.2-14.6
		c1.6,3.7,2.5,7.7,3.3,11.7c-0.9,16-0.5,32-0.5,48c0,5.9-0.2,11.8,0.5,17.6c-2.2,1-4.4,2.1-6.6,3.1
		C284.1,540.7,283.7,540.1,283.2,539.4z"/>
	<path class="st53" d="M416,530.6c-5.5-2.3-8.9-7.3-12-11.7c-3.8-5.6-8.8-10-12.9-15.3c-7.7-9.9-16.3-19.1-24.6-28.5
		c-1.2-1.4-2.2-2.7-2.4-4.6c1-0.9,2.1-0.9,3.2-0.1c6.9,9.5,14.8,18.2,22.7,26.9c6.5,7.2,12.6,14.8,18.9,22.2
		c1.1,1.3,1.8,2.6,3.7,2.5C414,524.8,415.5,527.5,416,530.6z"/>
	<path class="st54" d="M243.8,527.2c-2.9-3.9-2-8.3-2.1-12.7c-0.1-5.4,0.8-10.9-2-16c-0.7-0.5-1-1.3-1-2.1c0.2-2.7,1.5-5.1,1.9-7.7
		c0.6-1.8,0.9-3.7,1.3-5.6c1.3-2.4,0.1-6.2,4.1-6.9c1.4,1.4,1.5,3.2,1.5,5c0.2,9.9-0.3,19.8,0.7,29.7
		C245.5,516,247,522.2,243.8,527.2z"/>
	<path class="st55" d="M407.2,508.2c-3.9-0.6-6.2-3.4-8.4-6.1c-7.2-8.7-14.3-17.5-21.4-26.3c-1.6-1.9-3.3-3.7-5.8-4.6
		c1.2-1,2.4-0.4,3.5-0.5c4,0.1,6.6,2.1,9.2,5.2c6.5,7.9,13.7,15.2,19.8,23.5C405.4,502.3,407.1,505,407.2,508.2z"/>
	<path class="st56" d="M260,483.5c1.3,3.3,2.7,6.7,4,10c-3.9,5.4-7.6,11-14.6,12.8c-2.2-4.3,0.5-7.8,1.9-11.5
		c1.5-3.8,2.3-7.8,2.9-11.9c0.3-2.1,0.5-4.9,3.2-4.7C260.1,478.4,260.6,480.9,260,483.5z"/>
	<path class="st57" d="M139.7,475.2c0.2,8.2,3.9,15.5,5.9,23.2c0.9,3.6,2.4,7.1,3.6,10.6c-0.7,0-1.4,0.1-2.1,0.1
		c-3.4-8.5-6.2-17.1-8.4-25.9c-1-4-2.5-6.7-6.8-7.1c0.8-1.3,2.2-0.7,3.3-1c0.3-0.4,0.9-0.9,0.8-1.2c-2.8-12.4-5.5-24.8-6.9-37.5
		c-0.8-0.6-0.9-1.4-0.6-2.3c0.8-0.9,1.7-1.8,2.9-0.7c1.6,4,1.8,8.4,2.9,12.6c1.5,9.3,3,18.6,5.8,27.7
		C140.2,474.2,140,474.7,139.7,475.2z"/>
	<path class="st58" d="M252.4,495.3c-1.5,3.5-2.5,7.2-3,11c0,1.6,0,3.2-1.2,4.6c-3.9-7.3-1.7-15.2-2.3-22.9c-0.3-4,1-8.1-0.9-12
		c-0.1-0.2-0.3-0.4-0.5-0.6c-0.2-1.9,0.3-3.6,0.6-5.4c1-2.1,0.3-5.4,3.9-5.7c2.7,3.3,2.5,7.2,2.7,11.1
		C252.1,481.9,251.5,488.6,252.4,495.3z"/>
	<path class="st59" d="M536.9,346.1c2.1,1.6,1.3,3.9,1.3,6c0.1,20.7,0.1,41.4,0.2,62c-0.3,0.6-0.4,1.7-0.8,1.8
		c-2,0.5-1.2-1.2-1.2-1.9c-0.1-6.6,0-13.2,0-19.8c0-14.3,0-28.6,0-42.9C536.3,349.6,535.8,347.7,536.9,346.1z"/>
	<path class="st60" d="M408.2,537.1c-1.4,0.7-2.8,1.4-4.3,2.2c-3.1,0.2-3.4-3-5.2-4.4c-2-1.6-2.9-4.4-5.6-5.2
		c-3.6-5.4-7.2-10.8-10.7-16.2c-0.7-1.8-1.5-3.6-2.2-5.3c1.8-1.3,3,0,4,1.2C392.3,518.6,400.5,527.6,408.2,537.1z"/>
	<path class="st61" d="M404,499.6c-8.3-6.3-13.7-15.2-20.8-22.7c-2.5-2.6-4.8-5-8.2-6.1c1.8,0,3.5,0,5.3-0.1c3.9,0.1,6.5,2,8.6,5.2
		c2.9,4.6,6.9,8.1,10.7,11.9C401.4,491.6,403.3,495.4,404,499.6z"/>
	<path class="st62" d="M399.6,487.8c-5.1-1.7-7.8-5.9-10.7-9.8c-2.3-3-4.3-6.4-8.5-7.3c4.6,0.7,9.7-2.1,13.9,2
		C396,477.8,397.8,482.8,399.6,487.8z"/>
	<path class="st63" d="M303,535.1c-2.5-0.3-2.3-2.3-2.3-4c0-3.5,0.5-7.2-0.2-10.6c-0.6-2.8,3.6-2.5,2.4-5c2.2,6.4,4.2,12.8,5.2,19.5
		C306.5,534,304.8,535.3,303,535.1z"/>
	<path class="st64" d="M393.1,529.7c0.3-2.4,1.4-1.5,2.3-0.4c2.9,3.3,5.7,6.7,8.5,10c-1.4,1-2.7,2-4.1,3
		C398.8,537.4,394.9,534.1,393.1,529.7z"/>
	<path class="st32" d="M568.1,285c4.7,3.8,4.7,4.8-0.5,6.5c-1.5,0.5-1.6,2.9-3.6,2.1C565,290.5,566.1,287.5,568.1,285z"/>
	<path class="st45" d="M218,515.6c-0.2,2.2,1,4.6-1.1,6.6C216.9,519.9,216.8,517.6,218,515.6z"/>
	<path class="st45" d="M215.8,530.4c-0.1,2.3,1,4.8-1,6.7C214.7,534.8,214.7,532.5,215.8,530.4z"/>
	<path class="st45" d="M216.8,522.7c0,2,0.8,4.1-0.9,5.9C215.9,526.5,215.8,524.5,216.8,522.7z"/>
	<path class="st65" d="M421.7,347.1c-2.6,0.1-5.3,0.3-7.9,0.4c-3.9,0.8-4.5-2-4.9-4.7c-1.8-13.6-3.9-27.1-5.4-40.7
		c-0.7-6.6-2.6-13.2-2.1-18.9c-0.5,7.1-2.2,15.1-3.5,23.2c-0.5,3.1-1.5,5.9-3.7,8.1c-2.9,2.9-6.3,4.6-10.5,4
		c-3.3-0.7-6.6-1.2-9.8-2.3c-2.2-0.8-4.7-0.8-6.8-2.1c-2.3-1.6-5.1-2.3-7.7-3.5c-3.4-1.6-7-2.7-10.3-4.4c-2.2-1.1-3.8-0.3-5.6,0.5
		c-1.5-2.8-3.9-4.3-6.8-5.4c-2.6-1-5.5-1.5-7.2-4.1c-0.6-3.2,1.8-5.4,2.5-8.1c0.8-1.7,0.5-3.7,1.9-5.2c1.9-0.7,3.8-0.1,5.7-0.2
		c2.2,0,4.3,0.6,6.5,1c4,0,7.9,1.2,11.9,0.9c1.7,0.5,3.4,1.1,5.3,0.9c6.9,1.1,6.7,0.9,6.4-5.9c-0.7-15.8,0.1-31.5,5.8-46.5
		c0.1-0.5,0.2-1.1,0.4-1.6c3.4-5.4,5.4-11.6,8.8-17.1c14.5,14.5,25.4,31.4,33.1,50.5c5.5,13.5,7.8,27.7,10.8,41.8
		c0.4,1.9,0.7,3.9,1.8,5.5c0.7,9.2,3.5,17.9,5,27c0.3,1.6,0.4,3.1,0.7,4.7c-3.2,2.7-7,2.5-10.8,2.3
		C424.1,347,422.9,346.6,421.7,347.1z"/>
	<path class="st66" d="M379.3,201.3c1.4,1.5,2,3.3,2.1,5.4c0.5,1.9-1.1,2.7-2.3,2.9c-8.8,1.9-16.9,6.1-25.7,8.1
		c-2.2-3.9-2.4-8-1.6-12.3c0.6-1.2,1.5-1.6,2.7-1.1c1.2,1.3,1.3,2.8,0.8,3.5C363.4,207.7,370.4,201.2,379.3,201.3z"/>
	<path class="st67" d="M379.3,201.3c-7,2-13.4,5.9-20.7,7.2c-4.1,0.8-4.7-0.5-4.1-3.9c2.8-2.7,6.8-2.4,9.9-4.1
		c2.2-0.6,3.8-2.2,5.7-3.4c2.3-0.9,4-3.3,6.9-2.5c1,0.5,1.6,1.3,1.2,2.5C378.6,198.5,378.9,199.9,379.3,201.3z"/>
	<path class="st68" d="M353.4,217.5c3.9-2.9,8.5-3.8,12.9-5.5c5-2,10.6-2.2,15.2-5.3c1,0.8,1,2,1.1,3.2c0.2,3.9-3.2,4-5.5,4.6
		c-5.9,1.6-11.7,3.2-17.3,5.7c-1.6,0.7-3.5,1-4.6,2.6c-0.4,0.3-0.9,0.5-1.5,0.5c-1.3-0.7-1.6-2-1.9-3.3
		C351.8,218.8,352.3,217.9,353.4,217.5z"/>
	<path class="st69" d="M354.5,222.9c0-1.5,0-2.8,2-3.2c6.1-1.4,11.4-4.9,17.7-5.8c2.9-0.4,6.6-0.7,8.4-4c1.4,1.6,2.4,3.3,1.1,5.4
		c0.4,1-0.2,1.5-0.9,2c-2.3,0.8-4.6,1.9-7.1,2c-5.4-0.9-10,1.7-14.8,3.4C358.7,223.3,356.7,224.8,354.5,222.9z"/>
	<path class="st70" d="M389.9,141.4c0.4-0.3,0.7-0.7,1.1-1c3.2,0.7,6.4,1.5,9.7,2.2c0.4,0.2,0.5,0.4,0.4,0.6
		c-0.1,0.2-0.3,0.3-0.4,0.3c0.1,6.1,0.1,12.3-1.8,19.2C398.1,154,396.8,146.5,389.9,141.4z"/>
	<path class="st71" d="M400.7,143.5c0-0.3,0-0.6,0-0.9c0.7,0,1.5-0.1,2.2-0.1c0.7-0.6,1.3-0.6,2-0.1c3.6,3.6,7.6,6.6,9.3,11.8
		c3.2,9.9,0,18.7-9.2,23.7c-0.4,0.4-0.7,0.4-1.1,0c5.5-4.4,10.1-9.2,9.8-17.1C413.3,151.9,409.5,146.4,400.7,143.5z"/>
	<path class="st72" d="M406,137c5.1-3.4,7.9,0.8,11.7,3.1C412.3,141.8,407.2,140.3,406,137L406,137z"/>
	<path class="st12" d="M378.2,197.1c-0.4-0.7-0.8-1.4-1.2-2.2c-0.3-0.2-0.5-0.5-0.3-0.7c0.1-0.2,0.2-0.3,0.3-0.3
		c4.6-2.4,8.8-5.4,11.9-9.7c1-0.2,1.5,0,1.1,1.1C387.4,190.7,383,194,378.2,197.1z"/>
	<path class="st73" d="M382.5,216.5c0.4-0.4,0.8-0.8,1.2-1.2c0.3,0.1,0.7,0.1,1,0.2c-0.9,6.4-4.1,11.9-7.7,17.1
		c-0.5,0.4-1,0.3-1.4-0.2C376.4,226.3,380.2,221.8,382.5,216.5z"/>
	<path class="st74" d="M403.9,177.8c0.4,0,0.7,0,1.1,0c-1.8,2.6-5.2,1.6-7.4,3.3c-0.9,0.1-1.6-0.4-2.1-1c0,0-0.3,0-0.3,0
		C397.8,178.3,400.8,177.8,403.9,177.8z"/>
	<path class="st75" d="M396.3,185.8c-0.5,2.3-1,4.6-1.4,6.8c-0.5-0.1-1.1-0.2-1.6-0.3C394.4,190.1,393.7,187.6,396.3,185.8z"/>
	<path class="st74" d="M391,181c1.2-1.9,2.3-3.8,3.6-6c1.2,2.1-0.7,3.4-0.4,4.9c-0.7,0.7-1.4,1.4-2.1,2.1
		C391.4,182,391.3,181.4,391,181z"/>
	<path class="st76" d="M407,126.5c0,2.2,0.7,4.5-1.4,6.7C404.6,130.3,405.9,128.4,407,126.5z"/>
	<path class="st77" d="M466.2,301.2c-3.6,1.6-7.2,1.6-10.7,0C459.1,300.5,462.6,300.5,466.2,301.2z"/>
	<path class="st78" d="M404.9,142.3c-0.7,0-1.4,0.1-2,0.1c0.5-2.2,1-4.4,1.5-6.5c0.2-0.7,0.9-1.1,1.5-0.4c0.3,0.3,0.1,1,0.1,1.5
		c0,0,0,0,0,0C404.9,138.6,405.1,140.5,404.9,142.3z"/>
	<path class="st79" d="M391,181c0.4,0.4,0.7,0.7,1.1,1.1c-0.7,1.1-1.4,2.2-2.1,3.2c-0.4-0.4-0.7-0.7-1.1-1.1
		C389.6,183.2,390.3,182.1,391,181z"/>
	<path class="st80" d="M395.5,180c0.9-0.1,1.8-0.1,2.1,1c-0.3,0.9-0.5,2.5-1.9,1.9C394.7,182.5,395.4,181.1,395.5,180z"/>
	<path class="st72" d="M421.1,136.1c0.9,0.1,1.6,0.3,1.3,0.9c-0.3,0.5-1,0.9-1.6,1.1c-0.5,0.2-1.2-0.2-0.9-0.8
		C420.1,136.7,420.8,136.3,421.1,136.1z"/>
	<path class="st31" d="M173.2,152.1c3.8,2.4,7.1-0.4,10.5-1.1c1.2-1.2,2.8-1.5,4.3-1.9c1-0.3,2.1-0.4,3.2-0.5c3,0.1,6.6-2.8,9,1.4
		c0.1,0.2,0.5-0.7,0.8-1.1c1.5-1.8,3.3-2.6,5.7-1.9c3.4,0.1,4.8,2.4,6,5.2c4,9.4,4.6,19.4,5.5,29.3c0.9,10.9,1.8,21.6,5.7,32
		c0.5,1.4,0.5,2.8,0.7,4.2c-0.7,9.3-1.3,18.5-2,27.8c0.1,0.6,0,1.1-0.4,1.5c-2.5,1.7-5.5,1.9-8.3,2.6c-2.4,0.4-4.8,1-7,2
		c1.8-0.7,3.7-1.4,5.6-1.7c0.9-0.1,1.7-0.3,2.6-0.6c2.4,0.1,4.6-1.6,7.1-0.9c0.4,0.4,0.7,0.8,1,1.3c0.6,1.9,0.5,3.8,0.1,5.7
		c-0.5,1.5-1.2,3.3-2.9,3.2c-3.2-0.2-2.5,2.6-3.6,3.9c-11.6,2-23.1,3.9-34.7,5.9c-1.7,0.3-3.4,1.2-5.1-0.2c-1-2.9-1.6-5.8-0.1-8.8
		c-0.2-3.5-3.4-6.1-3.3-9.7c-0.2-4.5-1.2-8.8-1.8-13.2c-0.8-5.5,0.7-7.9,6-9.7c2-0.7,4.2-0.9,6.3-1c2.1-0.1,4.2,0,6.3,0
		c-5.2,0-10.2-0.6-15.2-2.1c-3.1-0.9-5.5-2.6-6-6c-3-20.1-6.6-40-8.9-60.2c1-3.3,4.3-3,6.5-4.4c0.5-0.2,1-0.4,1.5-0.5
		C169.9,152.4,171.5,152.2,173.2,152.1z"/>
	<path class="st81" d="M161.1,156.2c3.2,20.3,6.5,40.5,9.4,60.8c0.5,3.1,1.8,4.3,4.5,5c4.1,1,8.3,2.1,12.6,2
		c2.6-0.1,5.3-0.1,7.5,3.2c-4.5,0-8.3-0.1-12.2,0c-8.6,0.3-10.4,2.7-9.2,11c0.6,4.2,1.9,8.4,1.3,12.7c-3.5,1.1-6.2,5.1-10.6,3
		c-0.3-0.7-0.7-1.5-1-2.2c-1.8-2.2-2-4.7-1.1-7.4c-4.1-24.3-8.3-48.5-12.4-72.8c-1.2-6.9-2-13.7-3-20.6c2.9-1.6,5.2,0.8,7.8,1.3
		C156.6,153.8,160.1,153.1,161.1,156.2z"/>
	<path class="st82" d="M178.5,259.4c-2.8,2.5,0.7,6.1-1.5,8.7c-3.5,3.3-6.7,3.2-9.5-0.8c-0.9-1.3-2-2.5-3.2-3.6
		c-3.2-2.9-3.7-5.7,0-8.6C170.1,253.2,174.4,255.9,178.5,259.4z"/>
	<path class="st83" d="M223.4,316.2c0-0.7,0-1.4,0-2.2c0-14.8,0.1-29.5,0.1-44.3c0.8,0,1.4,0.3,1.7,1c1,2.2,0.7,4.6,0.7,6.9
		c0,36.8,0,73.5,0,110.3c0,2.6,0.6,5.4-1.4,7.7c-1.9-1.7-1.1-4-1.1-6.1c-0.1-23-0.1-46-0.1-69C222.3,319,222.3,317.6,223.4,316.2z"
		/>
	<path class="st84" d="M216.8,262.4c-1.6-3.7-2-6.4,3.6-4.8c0.3,0.1,0.9-0.8,1.4-1.3c4.3,1.6,7.6-2.2,11.7-2.2
		c6,2.3,6.2,3.6,1.1,8.9c-2.7,2.3-5.8,3.3-9.3,3c-0.8,0-1.6-0.2-2.4-0.5c-0.8-0.3-1.2-1-1.6-1.7
		C220.1,262.7,218.5,262.5,216.8,262.4z"/>
	<path class="st85" d="M154.7,153.3c-2.6-0.8-5.2-1.6-7.8-2.4c-0.3-1.1-0.7-2.2-1-3.3c4.4-3,9.4-3.9,14.4-4.8c0.6,0.1,1,0.4,1.4,0.9
		c1.1,2.6,2.2,5.2,0,7.8C159.6,153.3,157.4,154.1,154.7,153.3z"/>
	<path class="st86" d="M161,143.4c-5.1,1.4-9.9,3.6-15.2,4.2c-0.3-1-0.7-1.9-1-2.9c2.2-4,6.6-2.8,9.8-4.5c2.3-0.9,4.6-1.8,6.6-3.2
		c0.6,0,1.2,0,1.8,0c0.7,1.3,1.4,2.6,1.1,4.2C163.7,142.8,162.6,143.5,161,143.4z"/>
	<path class="st87" d="M178.5,259.4c-4.9-1-8.9-4.8-14.2-4.3c0-0.4,0-0.8,0.1-1.1c3.9,0.4,6.4-4.4,10.6-3
		C175.2,254.1,179.2,255.8,178.5,259.4z"/>
	<path class="st88" d="M162.3,244.3c0.4,2.5,0.7,4.9,1.1,7.4c-2.2-0.7-4.4-1.2-6.5-2.1c-1.3-0.5-2.8-1.3-2.5-3
		c0.3-1.8,2-2.3,3.7-2.3C159.4,244.3,160.9,244.4,162.3,244.3z"/>
	<path class="st89" d="M221.5,263.9c0.3,0.3,0.6,0.6,0.9,0.8c4.1,3.2,9.4,3.4,14,5.3c-0.7,3.6-3.8,2-5.8,2.8c-1.1,0.1-2-0.2-3-0.7
		c-1.1-0.5-2.1-1.1-3-2c-0.4-0.1-0.8-0.2-1.2-0.3C220.5,268.6,220.9,266.3,221.5,263.9z"/>
	<path class="st42" d="M146.1,400c5.5,0.5,7.4,2.8,5.9,8c-3.3,11.3-9.8,20.1-20.7,25.3c-0.9,0.4-1.9,0.7-2.8,1.1
		c-1.1,0.7-2.1,0.7-2.9-0.4c-10.3-2.2-18.3-8.1-24.9-16c-0.2-0.7-0.5-1.3-0.7-2c-1-2.4-1.9-5,0.5-6.9c2.6-2,5.5-1.3,7.9,0.5
		c5.5,4,10.1,9,14.4,14.3c1,1.2,2,2.5,3,3.7c0.7,0.5,1.4,0.6,2.2,0.5c1.1-0.3,1.6-1.1,2-2.1c2.4-5.2,3.5-11,7.4-15.5
		c1.1-1.9,2.2-3.7,3.2-5.6C141.2,402,143,400.2,146.1,400L146.1,400z"/>
	<path class="st90" d="M129.8,377.3c2.3-5.9,5.9-10,12.9-9.6c3.4,3,4.3,6.8,1.2,10c-4.5,4.5-8,10.5-14.8,12.3
		c-0.7,0.3-1.4,0.6-2.2,0.7c-0.5,0.1-1-0.1-1.4-0.4c-6.3-3.6-11.6-8.3-14.7-14.9c-1.3-2.8-2.5-6,0.9-8.1c3.2-1.9,5.8,0.3,7.9,2.6
		c2,2.1,3.1,4.7,4.1,7.4c3.3-0.3,0.1-3.5,2.1-4.4c1.2,0,1.7,0.9,1.9,1.9c0.2,1.7,0,3.5,0.5,5.1C128.4,378.7,129.1,378,129.8,377.3z"
		/>
	<path class="st91" d="M126.8,349.4c-1-7.8,0.3-15.2,5.3-21.5c1.8-0.4,3.6-1.2,5.3,0.4c0.2,0.3,0.5,0.6,0.7,0.9
		c2.9,4.7,1.6,12-3.3,17.1c-1,1-1.9,2.1-2.9,3.1l0.1-0.1c-0.8,1.6-1.3,3.3-3.3,3.7C126.4,352.6,127.9,350.4,126.8,349.4z"/>
	<path class="st92" d="M225.4,396.9c-0.2-0.1-0.5-0.3-0.7-0.3c0-0.3-0.1-0.7-0.1-1c0-41.8,0.1-83.7,0.1-125.5c1.1,0.1,2.4-0.1,3.2,1
		c-0.6,3.9-0.6,7.8-0.6,11.8c0,35,0,70,0,105C227.3,390.9,228,394.3,225.4,396.9z"/>
	<path class="st93" d="M130.2,427.6c0.3-0.1,0.6-0.1,0.8,0.1c-0.7,1.3-2.1,1.6-3.4,2.1c-1-1.9-0.1-3.9-0.4-5.9
		c-0.2-1.9,0.4-3.9-0.4-5.8c-0.3-2.3-0.8-4.6-0.2-6.9c-1.2-3.7,0.3-7.6-0.9-11.3c0-0.4,0-0.7,0-1.1c1.1-2.8-0.1-5.8,0.7-8.6
		c0.5-0.3,0.9-0.7,1.4-1c0,6.2,0,12.4,0,18.7c1,2.6-0.1,5.5,0.9,8.1c0.1,1.9,0.2,3.9,0.3,5.8C130,423.6,128.5,425.9,130.2,427.6z"/>
	<path class="st83" d="M146.2,399.9c-1.8,1.7-3.7,3.4-5.5,5.1c-0.9-1.6-3.3-3-1.4-5.1C141.4,397.7,143.9,398.8,146.2,399.9z"/>
	<path class="st48" d="M127.9,361.9c-0.1,4.4-0.2,8.8-0.3,13.3c-0.2,0.5-0.5,0.6-0.9,0.1c-0.3-0.7-0.6-1.4-0.9-2.2
		c-0.9-0.6-0.8-1.4-0.4-2.2c0.1-0.3,0.2-0.7,0.3-1c1.1-3.7-0.2-7.6,0.8-11.3c0.1-1.6,0.1-3.2,0.2-4.8
		C129.8,356.1,127.9,359.1,127.9,361.9z"/>
	<path class="st94" d="M140.9,330.5c1.7-2.4,3-5.6,7-4.6C145.6,327.4,143.2,328.9,140.9,330.5z"/>
	<path class="st95" d="M127.9,361.9c-0.6-2.7,0.9-5.6-1.1-8.1c0-1.4,0-2.9,0-4.3c0.7,1.1,1.4,2.1,2.1,3.2
		C128.8,355.7,129.1,358.9,127.9,361.9z"/>
	<path class="st95" d="M125.7,399.9c2,3.6,0.6,7.6,0.9,11.3C125.5,407.5,125.6,403.7,125.7,399.9z"/>
	<path class="st95" d="M126.6,358.5c-0.2,3.8,1.1,7.6-0.8,11.3C125.5,366,125.6,362.2,126.6,358.5z"/>
	<path class="st96" d="M126.5,390.1c-0.1,2.9,1.1,5.9-0.7,8.6c-0.1-2.8-0.2-5.7-0.2-8.5C125.8,390.2,126.1,390.2,126.5,390.1z"/>
	<path class="st83" d="M137.3,328.3c-1.7-1-3.5-0.4-5.3-0.4C134,326.6,135.7,326.1,137.3,328.3z"/>
	<path class="st97" d="M127.6,423.8c-0.2-0.3-0.4-0.5-0.7-0.7c0-1.7,0-3.4,0-5.1C128.4,419.8,127.7,421.9,127.6,423.8z"/>
	<path class="st98" d="M627.3,454.4c-0.5,1.5-1.4,2.5-1.9,0.3c-0.4-1.7-0.6-3.9,0.9-5.6C627.1,450.8,625.3,453,627.3,454.4z"/>
	<path class="st99" d="M658.6,491.2c-1.4,1.1-3.2,1.6-4.5,0.3c-0.6-0.5,0.7-1.2,1.6-1.3C656.7,490.5,657.6,490.8,658.6,491.2z"/>
	<path class="st100" d="M224.7,217.6c-4.7-7-5.5-15.2-6.7-23.2c-1.7-11.4-1.4-23-4.2-34.3c-0.8-3.1-2.2-6-3.1-9.1
		c-0.8-2.6-2.4-3.3-4.7-3.4c0-0.8,0.3-1.4,1.2-1c1.1-0.1,2.2-0.2,3.2-0.2c4.5-1.1,9.3-0.4,13.4-3.2C228,168,228.1,192.8,224.7,217.6
		z"/>
	<path class="st101" d="M304.9,218.3c0.8-0.6,1.6-1.2,2.4-1.8c0.7-0.9,1.6-1.6,2.6-2.2c1.2-0.7,2.3-1.7,3.9-1.7c0.5,0,1,0.2,1.4,0.4
		c5.7,5.2,11.1,10.8,16.6,16.2c1.8,1.8,3.4,3.6,2.4,6.4c-2.8,2.4-6,3.2-9.6,3.2c-5.8-3.3-9.2-9.1-13.9-13.6
		C308.5,223.3,305.3,221.8,304.9,218.3z"/>
	<path class="st102" d="M304.9,218.3c5.8,5.1,11.3,10.5,16.2,16.4c1,1.2,1.8,2.6,3.3,3.3c-0.4,2.9-3,2.5-4.8,3
		c-1.8,0.6-3.7,1-5.6,1.6c-1.2,0.2-2.1-0.2-2.8-1.1c-2.9-6.5-8.4-10.7-13.3-15.5c-0.9-0.9-2.8-1-2.6-3
		C298.6,221.4,301.8,219.9,304.9,218.3z"/>
	<path class="st103" d="M295.4,223c7.1,3.2,10.6,10.5,16.5,15.1c1,0.8,0,1.9-0.4,2.9c-0.9,1.7-2.5,2.1-4.2,2.4
		c-1.1,0.1-2.2,0-3.3-0.3c-5.1-0.7-8.3-4.2-11.2-8.1c-2.5-3.2-5.1-6.2-7.6-9.4c-0.2-1.4,0.5-2.2,1.8-2.6c1.6-0.3,3-0.1,4.4,0.7
		C292.8,223.5,294.1,223.3,295.4,223z"/>
	<path class="st104" d="M235.2,240.9c2.8-1.2,5.4-2.7,8.4-3.1c5.2,4.1,9.2,9.4,14.2,13.7c0.7,0.6,0.8,1.5,0.7,2.5
		c-1.9,3.2-4.3,5.8-8.1,6.8c-4.6-3.6-7.6-9.1-13-11.7C232.7,247,232.2,245.3,235.2,240.9z"/>
	<path class="st105" d="M254.6,236.9c4.1,0.2,7.6-2.1,11.6-2.3c6.1,1.3,12.2,7.3,12.8,12.6c-4.8,2.5-9.8,3.2-15.1,2.4
		C260.5,245.6,255.8,242.5,254.6,236.9z"/>
	<path class="st106" d="M279.3,246.4c-4.2-4.1-7.5-9.3-13.1-11.9c2.9-1.1,5.8-2.1,8.7-3.2c0.6-0.5,1.3-0.7,2.1-0.4
		c1.6,1.7,3.3,3.1,5.9,2.5c2.4,4.1,7.4,6.2,8.5,11.2c-0.4,0.8-1.1,1.3-1.9,1.6C286.1,246.9,282.7,249,279.3,246.4z"/>
	<path class="st107" d="M254.6,236.9c2.5,4.3,7.8,6.6,8.7,12.1c-0.7,2.9-1.8,5.3-5.5,4.8c-3.4-3.5-6.9-7-10.2-10.6
		c-1.5-1.6-2.6-3.6-3.9-5.4C247.1,235.4,250.8,235.6,254.6,236.9z"/>
	<path class="st108" d="M310.4,214.9c-1,0.5-2.1,1-3.1,1.5c0-2.5-0.1-5-0.1-7.5c-1.3-2,0.3-4.5-1-6.5c0-0.4,0-0.7,0-1.1
		c0.1-4.4-0.3-8.8-0.3-13.2c0-2.3-0.7-5.1,2.3-6.4c1.4,0.1,2.5,0.7,3.1,2c1.7,9.2,0.5,18.5,0.6,27.7
		C311.9,212.8,311.2,213.9,310.4,214.9z"/>
	<path class="st62" d="M235.2,240.9c-0.5,3-2.5,6.7,3.3,6.6c0.4,2-0.1,3.4-2.4,3.5c-2.4-1.1-4.8,0.1-7.3,0c-2.2-0.1-4.6,0.6-6.3-1.6
		c-0.1-0.2-0.2-0.5-0.3-0.7c-0.5-0.8-0.5-1.5,0.1-2.2c0.2-0.4,0.3-0.7,0.5-1.1C226.9,243.8,230.7,241.4,235.2,240.9z"/>
	<path class="st109" d="M308.3,182.1c-2.7,5,0.1,10.3-1,15.5c-0.3,1.3,0.3,2.9-1.1,3.9c-2.1-5.1-2.4-10.7-3.2-16.1
		c-0.3-3.1-2.2-6.7,2.2-8.7l0,0c0.9,0.9,2.2,1,2.9,2C308.7,179.8,309.3,180.9,308.3,182.1z"/>
	<path class="st110" d="M305.1,176.7c-1.7,2.6-2.2,5.6-2.2,8.7c-2.9-6.5-2.7-13.6-4.1-20.4C301.7,168.5,303.7,172.4,305.1,176.7z"/>
	<path class="st111" d="M307.2,178.9c-0.7-0.7-1.4-1.4-2.1-2.2c6.5-1.6,11.4-6.3,17.3-8.9c2.4-1.1,4.2-4.5,7.7-2.8c0,0,0,0,0,0
		C323.3,171.2,315.7,175.8,307.2,178.9z"/>
	<path class="st112" d="M291.5,223.8c-1.6,0-3.1,0.1-4.7,0.1c-2.9-0.3-1,3.7-3.5,3.8c-0.8,0.2-1.6,0.1-2.2-0.5
		c-0.4-0.8-0.3-1.5,0.3-2.2C284,220.9,287.9,220.4,291.5,223.8z"/>
	<path class="st113" d="M277.1,231.4c-0.8,0-1.5,0-2.3-0.1c0.9-2.5,1.7-5,4.4-6.2c0.9,0.8,1,1.8,0.7,2.8
		C279.4,229.5,278.8,230.9,277.1,231.4z"/>
	<path class="st114" d="M279.2,228.3c0-1,0-2,0-3.1c0.7-0.1,1.4-0.2,2.1-0.2c0,0.7,0,1.5,0.1,2.2c1,1.6,1.7,3.6-0.8,4.1
		C279.1,231.6,278.4,229.9,279.2,228.3z"/>
	<path class="st115" d="M294.3,113.5c0.1-2.1,1.3-3.4,3.2-4.2C297.4,111.4,296.1,112.6,294.3,113.5z"/>
	<path class="st109" d="M306.1,202.5c1.9,1.9,0.7,4.3,1,6.5C305.4,207,306.4,204.7,306.1,202.5z"/>
	<path class="st116" d="M367.5,181.9c3.4,3,4.6,7.5,7.5,10.8c-0.9,2.9-2.7,1.1-4,0.5c-10.9-4.9-21.6-10.2-32-15.9
		c-2.7-1.5-5.6-2.3-8.2-3.9c-0.6-0.5-1.1-1.2-1.4-2c-0.1-0.6,0.2-1,0.8-1.2c0.8-1.2,1.2-2.6,2.6-3.3c6.1,0.9,11.4,4,16.8,6.5
		C355.7,176.2,361.2,179.8,367.5,181.9z"/>
	<path class="st117" d="M330.8,172.4c8.9,3.1,16.8,8.3,25.3,12.3c6.2,2.9,12,6.7,18.9,7.9c0.7,0.4,1.3,0.8,2,1.2c0,0.3,0,0.7,0,1
		c-2.6,0.2-4,2.6-6.4,3.2c-0.6-0.4-1.4-0.1-2-0.5c-11.3-6.6-24-10.5-35.4-17.1c-1.5-0.8-2.3-2.2-3-3.7c-0.4-1.3-0.5-2.6,0.1-3.9
		C330.4,172.8,330.6,172.6,330.8,172.4z"/>
	<path class="st118" d="M335.2,162.8c1.3-1.9,2.2-4.1,4.3-5.4c5,1.2,9.4,3.5,13.8,6.1c2.1,1.2,3.9,3.1,6.7,2.4
		c2,2.1,2.4,4.9,3.2,7.5c1,2.1-0.2,2.8-1.9,2.3c-6-2-12.7-2.4-17.6-6.7C341,166.7,336.2,167.3,335.2,162.8z"/>
	<path class="st119" d="M335.2,162.8c8.4,5.2,17.4,9.2,26.9,12c0.9,0.3,1-0.7,1.1-1.4c2.3,2.4,2.8,5.7,4.4,8.5
		c-3.3,3.2-5.1-0.9-7.2-1.9c-9.3-4.1-18.3-8.7-27.4-13.1C333.2,165.3,333.8,163.9,335.2,162.8z"/>
	<path class="st120" d="M359.9,165.9c-0.2,1.8-1.5,3-2.8,1.7c-5.1-4.7-12.2-6-17.6-10.2c1.4-2.2,3.2-4,5.3-5.5
		c2.6,0.8,5.1,1.8,7.1,3.5c2.6,2.2,3.7,0.9,4.8-1.3C357.8,158,358.8,162,359.9,165.9z"/>
	<path class="st121" d="M330.3,170.3c-0.1,0.4-0.3,0.7-0.4,1.1c-3.5,4.3-8.7,6.1-13.1,9.1c-1.4,0.9-2.8,1.7-4.3,2.3
		c-0.6,0.3-1.3,0.4-2,0.3c-0.9,0-1.7-0.2-2.1-1c-0.4-1.1-0.7-2.1-1.1-3.2c7.6-4.6,15.2-9.2,22.8-13.8
		C330.1,166.8,330.2,168.5,330.3,170.3z"/>
	<path class="st122" d="M356.7,154.1c-0.1,1.6-0.2,3.1-0.4,5.7c-3.8-3.6-8.7-4.1-11.6-7.9c0.7-0.8,1.3-1.8,2.2-2.3
		c3-1.8,5.7-6.3,8.8-4.9C358.1,145.8,356.3,150.8,356.7,154.1z"/>
	<path class="st17" d="M247,59.8c-1.6-1.2-0.8-3.1-1.2-4.6c1.1-1.7,2.2-3.4,3.3-5.1c0.9-3.2,4.1-3,6.3-4
		c10.4-4.6,20.3-10.2,30.6-15.1c1.2-0.6,2.4-1.6,4-1.2c1.1,1.2,1.4,2.6,1.3,4.2c-1.3,2.3-3.2,4-5.7,5.1c-12.5,5.7-23.8,13.6-37,17.7
		C246.9,57.3,247.2,58.6,247,59.8z"/>
	<path class="st123" d="M289.9,29.8c-6,4.7-13.4,6.8-19.9,10.7c-6.6,3.9-13.9,6.7-21,9.7c0.4-2.5,0.8-5,1.2-7.5
		c5.2-1,8.9-5.2,13.9-6.6c7.2-2,13.9-4.6,19.9-9.3C287.5,23.9,288.7,27.3,289.9,29.8z"/>
	<path class="st124" d="M264.2,36c-2.8,2-5.6,4.1-8.5,6.1c-1.6,1.1-3.4,2-5.4,0.6c-1.4-6.2-1.4-6.2,5-6.3
		C258.2,36.3,261.2,36.1,264.2,36z"/>
	<path class="st17" d="M292.1,39.5c-0.3,0-0.7,0-1,0c0-1.8,0.1-3.7,0.1-5.5C292.3,35.7,292.2,37.6,292.1,39.5z"/>
	<path class="st125" d="M188,150.2c-1.3,1.1-2.8,0.7-4.3,0.8c0.7-3.6,2.9-7,3.5-10.3c0.8-4.5,4.5-9.1,1.4-14.3
		c-1.6-2.7,0.3-5.7,2.1-7.1c2.8-2.1,3.7-4.8,4.5-7.8c1.4,3.3,3.5,2,5.5,0.8c2.3-1.6,3.7-0.7,4.3,1.7c1,4.1,2.2,8.2,5.6,11.1
		c2.1,1.8-1.6,4.5,0.9,6.3c-2.8,0-5.3,0.8-7.6,2.5c-0.9,0.6-2.3,0.8-2.5,1.9c-0.7,4.1-4,6-6.8,8.4c-0.8,1.5-1.7,2.9-3.1,3.9
		C190.8,149.2,188.7,148.4,188,150.2z"/>
	<path class="st126" d="M173.2,152.1c-1.1,2.3-2.6,2.7-4.5,1c-2.2-1.4-2.3-4-3.1-6.1c-0.4-1.5-1.4-2.9-0.4-4.5
		c2.5-3.5-0.8-6.5-0.8-9.7c3.1,2.6,6.3,5.1,10.8,4.3c0,0.4-0.1,0.7-0.1,1.1c-1.4,2.8,0.2,6-1,8.8
		C174.6,148.8,173.7,150.4,173.2,152.1z"/>
	<path class="st127" d="M174.1,147c0.3-3-1.2-6.1,1-8.8C175.1,141.1,175.3,144.1,174.1,147z"/>
	<path class="st128" d="M268.5,90.9c-4.4,2.1-9.6,0.7-13.9,3.2c0.5-3.2-1.1-6.7,1.1-9.7C259.5,87.5,263.7,89.8,268.5,90.9z"/>
	<path class="st129" d="M283.5,113.5c-8.2,8.2-23.2,8.7-31,1.1C262.7,111.3,273,109.8,283.5,113.5z"/>
	<path class="st130" d="M283.5,113.5c-7.5-0.6-14.9-0.4-22.4-0.1c-3,0.1-5.5,2.7-8.7,1.1c-1.5-1-2.2-2.5-2.4-4.2
		c6.8,0.7,13.5-1.5,20.2-1c6,0.4,11.9-1,17.7,0.2C287.1,111.5,285.2,112.3,283.5,113.5z"/>
	<path class="st131" d="M164.3,132.8c-1.3-0.7-2.7-1.2-4.3-1.1c1.6-2.8,2.4-6.1,5.8-9.2C165.2,126.7,164.8,129.7,164.3,132.8z"/>
	<path class="st132" d="M191.1,147.7c0.8-1.3,1.6-2.6,2.5-3.8c2.4-2.1,4.8-4,8-1.7c2.8,0.4,4.3,2.3,5.7,4.5c-0.4,0.3-0.8,0.6-1.2,1
		c-4.5,3.5-10,0.8-14.8,2.1C190.5,149.1,190.5,148.4,191.1,147.7z"/>
	<path class="st133" d="M201.6,142.2c-3-0.8-5.5,0.4-8,1.7c4.9-1.9,5-8.8,10.5-10C202.2,136.3,201.9,139.3,201.6,142.2z"/>
	<path class="st134" d="M161.2,137.1c-1.5,2.4-3.9,3.2-6.6,3.2C156.5,138.5,158.7,137.5,161.2,137.1z"/>
	<path class="st135" d="M165.2,142.5c0.4,1.4,0.9,2.8,1.3,4.2c0.6,0.7,0.5,1.5,0.2,2.3c-5,1.3-3.9-3.4-5.5-5.5c0,0-0.1-0.1-0.1-0.1
		c1-0.7,2.1-1.4,3.1-2.2C164.5,141.7,164.8,142.1,165.2,142.5z"/>
	<path class="st136" d="M538.2,335.5c-1.3-1.1-1-2.6-1-4c0-22.9,0-45.7,0-68.6c0-0.8,0.2-1.6,1-2.3
		C538.2,285.5,538.2,310.5,538.2,335.5C538.2,335.4,538.2,335.5,538.2,335.5z"/>
	<path class="st32" d="M578,295.9c1.5,0,2.3,0.9,2.5,2.3c0.2,1-0.5,1.7-1.6,1.6c-1.3-0.2-2.3-1.2-2.6-2.4
		C576,296.1,577,295.9,578,295.9z"/>
	<path class="st137" d="M461.9,478.2c0-1.1,0-2.2,0-3.3c-1-6.6,0.1-13.3-0.5-20c-0.1-0.5-0.2-1.1-0.3-1.7c2-6.7,4.3-13.2,9.6-18.1
		c1.7,2,0.9,4.4,0.9,6.6c-0.2,22.1-0.5,44.1-0.8,66.2c-1.4,0.1-2.8,0-4.2,0.2c-3.4,0.5-4.1-1.1-4.1-4.2
		C462.3,495.4,463.3,486.8,461.9,478.2L461.9,478.2z"/>
	<path class="st138" d="M471.9,379.1c1.2,11.6-0.3,23.3-0.2,34.9c0,5.2,1.1,10.6-1.1,15.7c-0.5,4.9-3.1,8.8-5.4,12.9
		c-0.9,1.7-2.4,2.7-4.1,0.5c-0.7-6.6-0.1-13.2-0.3-19.8c0-0.9,0-1.8,0-2.8c0-0.9,0-1.8,0-2.7c1.3-5.9,0.7-11.9,0.6-17.8
		c-0.1-0.5-0.2-1.1-0.2-1.6C463.8,391.4,466.4,384.4,471.9,379.1z"/>
	<path class="st139" d="M461.9,398.9c1.1,6.4,1.2,12.8-0.1,19.2c-3.3-0.6-4-2.6-3-5.5c2-6,1-12.2,1-18.2c0.2-17.8,0-35.6-0.1-53.3
		c0-1.1-0.5-2.6,1.2-3.2c1.9,2.1,1.4,4.7,1.5,7.1c0.1,14.1-0.1,28.1,0.1,42.1c0-0.1,0.2,0.4,0.2,0.4s0.5-0.1,0.5-0.1
		c0.6-0.8,1-1.9,2.2-2.3c2.3-4.1,4.7-8.2,7-12.2c0.5,2.1,0.4,4.2-0.4,6.2C468.6,385.7,465.2,392.3,461.9,398.9
		c-1.2,4.4,0,9-0.6,13.5C461.8,407.9,460.8,403.3,461.9,398.9z"/>
	<path class="st140" d="M461.8,420.2c0,0.7,0.1,1.4,0.1,2.2c-0.8,7.1-1.2,14.1,0.2,21.2c3.8-1.7,3.8-5.9,5.9-8.8
		c1.1-1.5,1.8-3.4,2.7-5.1c2.8,1.8-0.6,3.6,0.1,5.5c-2.7,6.2-6.8,11.7-8.7,18.2c-1.6,4.8,0.1,9.8-0.4,12.4c0.3-2.6-0.9-7.6,0.4-12.5
		c1,7.2,1,14.4-0.1,21.5c-1.7-1.6-2.5-3.7-3.1-5.9c2-6,0.8-12.2,1-18.4c0.4-10.5,0-21-0.1-31.5C460.9,418.5,461.3,419.5,461.8,420.2
		z"/>
	<path class="st59" d="M538.1,427c0,26.2,0,52.4,0,78.7c-0.2,0-0.4,0-0.5,0c0-26.3,0-52.6,0-78.9C537.7,426.9,537.9,426.9,538.1,427
		z"/>
	<path class="st51" d="M423.2,452.4c-1.8-3-2.1-6.3-2.1-9.7c0-28.9,0-57.9,0-86.8c0-3.4,0.3-6.4,3.3-8.5c3.8,1.2,2.7,4.5,2.7,7.1
		c0.2,16.5,0.2,33,0,49.5c0,3.7,2.1,7.2,0.5,11C426.9,427.5,425.2,440,423.2,452.4z"/>
	<path class="st141" d="M427.6,414.9c-4.4-20.6-1.2-41.4-2.2-62c-0.1-1.9,0.7-4-1.1-5.5c-0.9-0.1-1.7-0.1-2.6-0.2
		c4.6-1.6,9.5-1.8,14.3-2.3c-1.1,10.2-2.1,20.5-3.2,30.7c-1.4,12.3-2.8,24.7-4.3,37C428.5,413.3,427.9,414.1,427.6,414.9z"/>
	<path class="st142" d="M461.8,420.2c-0.7-0.3-1.4-0.7-2.1-1c-7-13.4-14.1-26.8-21.1-40.3c-0.5-1-1.7-2.4-0.1-3.2
		c1.6-0.8,2,1.1,2.5,2.1c5.9,11.6,11.8,23.2,17.8,34.8c0.2,2.3,1,4.2,3,5.5C461.8,418.8,461.8,419.5,461.8,420.2z"/>
	<path class="st143" d="M465.3,385.1c-0.5,1.2-1,2.5-1.5,3.7c-1.8-0.1-1.8-1.5-1.8-2.7c0-15.6-0.3-31.3,0.1-46.9
		c0-0.6,0.4-1,0.6-1.5c2.2,1.4,1.3,3.5,1.3,5.4c0.1,11.8,0.1,23.5,0,35.3C464.1,380.7,464,383.1,465.3,385.1z"/>
	<path class="st83" d="M463,390.3c-3.5,0.5-2-2.3-2-3.6c-0.1-16.1-0.1-32.3,0-48.4c0-0.2,0-0.4,0-0.5c0.3-0.3,0.6-0.3,1-0.1
		c1.2,1.8,0.6,3.8,0.6,5.7c0.1,13.7,0,27.4,0,41.1C462.5,386.5,462.3,388.4,463,390.3z"/>
	<path class="st144" d="M463,390.3c-1.9-1.5-1-3.7-1-5.5c-0.1-15.7-0.1-31.4-0.1-47.1c0.3-0.1,0.6-0.1,0.9,0
		c0.1,15.1,0.1,30.3,0.3,45.4c0,1.9-0.7,3.9,0.8,5.6C463.5,389.3,463.3,389.8,463,390.3z"/>
	<path class="st145" d="M276,406c-4.1-9.3-1.4-19.2-2.1-28.8c-0.2-2.7,0.2-5.4-2.1-7.5c-2-2-0.4-4.2-0.3-6.3c0.4-1.5,1-3.1,1.4-4.6
		c0.8-2.8,1.2-5.7,1.9-8.5c0.5-1.6,0.9-3.2,1.2-4.9c1.2-2.1,0.2-5.9,4.4-5.7c1.1,1.1,1.4,2.5,1.4,3.9c0.4,12.8-0.3,25.6,0.8,38.3
		c-1.8,7.2-3.7,14.5-5.5,21.7C276.9,404.6,277,405.6,276,406z"/>
	<path class="st39" d="M282.6,382.1c-4.3-11.9-1.5-24.2-2.3-36.2c-0.1-2.1,0.7-4.3-0.9-6.1c-0.7-0.6-0.9-1.3-0.8-2.2
		c0.4-2.9,1-5.7,1.7-8.5c0.4-1.5,0.9-3,1.3-4.5c0.8-2.6,1-5.3,1.8-7.9c0.6-1.4,1.1-2.7,2.9-2.8c1.7,1,1.7,2.6,1.6,4.2
		c-0.1,6.7,0.5,13.4,0.4,20.1c-0.1,5.3-0.6,10.7,1.7,15.7C287.1,363.2,286.2,373,282.6,382.1z"/>
	<path class="st75" d="M291.2,538.3c-2.6-0.4-2.2-2.4-2.2-4.1c0-18,0.1-36.1-0.1-54.1c0-3,2.8-4.6,2.3-7.4c2.3,6.3,4,12.9,5.3,19.5
		c-3.2,4.3-2.1,9.3-2.1,14c-0.1,8.7-0.1,17.4,0,26.1c0,1.7-0.6,3.6,1.1,5C294.3,538.6,292.6,538.1,291.2,538.3z"/>
	<path class="st146" d="M290.1,353.9c-4.3-0.7-3.3-4.1-3.3-6.8c0-10.2,0-20.4-0.1-30.7c0-0.8-0.6-1.6-0.9-2.4
		c-0.7-0.5-0.9-1.3-1-2.1c0.2-1.9,0.7-3.6,1.1-5.5c0.7-2.5,1.4-5,1.9-7.6c0.8-2.8,1.4-5.6,2.2-8.4c0.4-1.3,0.9-2.5,2.1-3.4
		c2.3-0.1,2.4,1.8,3,3.2c0.2,0.8,0.2,1.6,0.1,2.3c-0.4,1.7-0.6,3.5-0.9,5.3c-0.3,1.9,0.1,3.9-0.3,5.8c-0.1,12-0.3,24-0.1,36
		c0,0.7-0.1,1.4-0.5,2C290.8,345.3,292.5,350.1,290.1,353.9z"/>
	<path class="st38" d="M293.2,341.6c-2-11.6-0.7-23.2-1-34.8c0-1.7-0.5-3.6,1.5-4.7c1.7-0.1,3.5-0.3,4.1,1.9
		c-1.3,7.1-1.8,14.1-0.2,21.2C294.7,330.3,295.9,336.5,293.2,341.6z"/>
	<path class="st147" d="M297.7,325.2c-3.2-3.7-3.3-17.8-0.1-22c0.5-1.2,1.5-1.8,2.8-2c2.7,0.1,3.9,1.3,2.6,4
		C300.2,311.7,300.6,318.9,297.7,325.2z"/>
	<path class="st148" d="M302.9,305.3c0.3-2.7-1.5-3.2-3.6-3.2c-0.6-6,0.2-11.6,5.6-15.5c1-0.5,2-1,3.1-0.8c0.5,0.3,0.7,0.8,0.3,1.3
		C306.1,293.1,305.6,299.5,302.9,305.3z"/>
	<path class="st149" d="M308.3,287.2c-0.2-0.2-0.3-0.4-0.2-0.7c-0.6-0.8-0.1-1.4,0.6-1.9c2.9-1.6,6.4-2.1,8.4-5.2
		c3,0.4,4.9,2.2,6.1,4.8c0.2,2.8-0.4,5.2-3.2,6.5c-2.6-0.4-3.3-5.9-7.2-2.6C311.1,288.6,309.7,287.7,308.3,287.2z"/>
	<path class="st91" d="M225.4,396.9c0.1-40.1,0.1-80.1,0.2-120.2c0-2-1.3-4.9,2.2-5.7c0.8,0,1.1,1.3,2.1,0.7c2,0.4,4.9-1.6,5.7,2.1
		c-1.8,2.9-1.9,6-1.9,9.3c-0.1,37.7,0.1,75.4-0.1,113c0,4.3,1.4,8.4,1,12.8c-0.2,2,0.3,4.4-2.6,4.9c-1.9-4-3.9-7.9-5.8-11.9
		C225.4,400.3,225.3,398.6,225.4,396.9z"/>
	<path class="st150" d="M232,522.1c0,0.3,0,0.5,0,0.8c-0.4,0.6-1,0.9-1.8,0.9c-3.8-1.2-3-4.4-3-7.1c-0.1-13.9-0.1-27.9-0.1-41.8
		c0-5.7-0.3-11.4-0.6-17.1c1-10.1,2.3-20.1,4.4-30c4,1.5,3.2,5.2,3.5,8.1c0.5,5,0.2,10,0.2,15c0,14.1-0.1,28.2,0.1,42.3
		c0,3-0.2,6.1,0.8,9c0.2,0.5,0.4,1.1,0.6,1.7c0.6,2.2-0.8,4.3-0.4,6.6c-0.3,1.8-1.1,3.5-1.2,5.3C233.5,517.7,233.9,520.3,232,522.1z
		"/>
	<path class="st151" d="M235.4,503.9c-2.5-1.9-2.3-4.6-2.3-7.3c0-19.2,0-38.4,0-57.7c0-3.9-0.4-7.7-2.1-11.3
		c-0.4-4.7,1.9-9.2,1-13.9c1.6-1.1,1-2.8,1.1-4.3c1.2-4,0.1-8.1,0.6-12.1c0.3-1.9-0.9-5,2.9-4.9c1.8,2.5,1.3,5.5,1.3,8.3
		c0,27.7,0,55.4,0,83.3c0.7-0.7,1.1-1.3,1.7-1.7c0.7-0.3,1.2-0.1,1.5,0.5c0.7,1.7,0.5,3.5,0.1,5.2c-0.6,2.9-2,5.6-2.7,8.5
		c-0.1,1.3,0,2.7-0.6,3.9C237.1,501.6,237.8,503.9,235.4,503.9z"/>
	<path class="st152" d="M226.5,457.7c1.7,3.9,2.3,8.1,2.3,12.3c0,16.1,0,32.1,0,48.2c0,1.9-1,4.5,2.3,5.1c1.3,2.7,0.5,5-1.2,7.3
		c0,0.5,0,0.9,0,1.4c-0.1,1.5,0.2,3.1-2.1,3.1c-3.6,1-2.2-1.9-2.2-3.2c-0.1-13.7,0-27.3-0.1-41c0-4-0.6-8-2.2-11.7
		c-1.4-1.5-1.2-3.3-0.8-5.1c1.1-1.8,1.2-3.8,2-5.7C225.1,464.9,225.8,461.3,226.5,457.7z"/>
	<path class="st153" d="M223.6,474c-0.1-1.2-0.1-2.4-0.2-3.7c0-0.9,0.3-1.5,1.1-1.9C224.6,470.4,224.7,472.3,223.6,474z"/>
	<path class="st154" d="M135.2,475.1c-0.9,1.1-2.2,0.8-3.3,1c-13.8-0.8-23.7-8-30.8-19.3c-2.7-4.3-1-6.9,4-6.7
		c4.9,0.2,8.7,2.6,12.2,5.9C123.6,462.1,128.2,469.8,135.2,475.1z"/>
	<path class="st155" d="M324.6,295.2c0.1,0.3,0,0.5-0.2,0.6c-1.5-1.7-2.9-3.4-4.4-5.2c1-2.2,2.6-4.2,2.3-6.8
		c1.2-0.5,2.3-0.2,3.4,0.3C329.2,288.2,326.2,291.7,324.6,295.2z"/>
	<path class="st156" d="M225.6,544.7c1.7-1.4,1.1-3.7,2-5.4c0.4-0.4,0.8-0.4,1.2,0c-0.3,2.2-0.6,4.3-0.9,6.5
		C226.1,547.5,225.6,546.6,225.6,544.7z"/>
	<path class="st157" d="M264.2,397.6c0,0.4,0,0.8,0,1.2c-1.4,1.6-2.2,3.5-3.3,5.3c-2.1,2.3-3.1,0.3-3.9-1.2
		c-1.2-2.3-0.9-4.9-0.9-7.4c0-37.1,0-74.2,0-111.3c0-2.5,0.1-5-0.8-7.4c2-2.6,4.7-1.8,7.3-1.6c2.6,1.1,5.8,0.1,8.1,2.1
		c-0.2,2.7-2.5,2.3-4.2,2.9c-3,1.3-1.8,4-1.8,6.1c-0.1,27.1-0.1,54.2,0,81.3c0,3.6,0,7.1-0.6,10.7c-0.3,2.1-0.6,4.3,1.2,6
		c1.7,3.1-0.4,5.8-0.9,8.7C264.3,394.6,263.8,396.1,264.2,397.6z"/>
	<path class="st48" d="M265.3,487.8c0-10.2,0-20.4,0-30.8c-3,0.8-2.7,3.3-4.4,4.2c-1.7-0.3-1-1.6-1-2.5c-0.1-11.6,0-23.3-0.1-34.9
		c0-0.8-0.6-1.6-0.9-2.4c-0.4-0.4-0.7-0.8-0.8-1.3c0-1.9,0.4-3.7,0.7-5.5c0.9-2.1,0.4-5,3.3-6.1c0.3,5,0.8,9.9,0.9,14.9
		c0.2,5.3,0,10.7,0,16c0,4.9-0.8,9.9,2.6,14.3c0.8,1.1,0.6,3.1,0.6,4.6c0.1,8.2,0.1,16.3,0,24.5
		C266.3,484.5,266.9,486.4,265.3,487.8z"/>
	<path class="st158" d="M263.3,393.4c0.8-2.8,1.6-5.6,2.5-8.4c0.4-0.3,0.7-0.3,1,0.1c0.1,0.6,0.1,1.3,0.4,1.8c0.1,0.3,0.1,0.7,0,1
		c-0.7,1.8-1.4,3.6-2.1,5.5C264.5,394,263.9,394,263.3,393.4z"/>
	<path class="st159" d="M260.8,402c1.2-1,1.5-2.9,3.4-3.2c-0.6,2.5-0.7,5.2-2.1,7.5c-0.5,0.4-1,0.3-1.5-0.2
		C260.3,404.7,260.4,403.4,260.8,402z"/>
	<path class="st158" d="M261.2,406.3c0.3,0,0.6,0,0.9,0c0,0.7,0.1,1.4,0.1,2.1c-2,1.7-0.6,4.6-2.3,6.4c-0.4,0.4-0.9,0.5-1.5,0.4
		C257.1,411.6,258.2,408.6,261.2,406.3z"/>
	<path class="st160" d="M263.3,393.4c0.6,0,1.2,0,1.8,0c0.6,1.6-0.3,2.8-0.9,4.2C262.3,396.5,263.8,394.8,263.3,393.4z"/>
	<path class="st161" d="M272.8,363.4c-0.3,2.1-0.6,4.3-0.9,6.4c-0.5,1.1-1,2.1-1.5,3.2c-0.6,0.3-1,0.1-1.4-0.4
		c-0.3-0.5-0.5-1-0.6-1.6c-0.2-2.9,0.1-5.6,2-7.9C271.3,362.8,272.1,362.7,272.8,363.4z"/>
	<path class="st160" d="M269.9,373l0.5,0c-0.1,2.6-0.6,5.2-1.9,7.5c-0.4,0.4-0.9,0.5-1.5,0.4C265.2,377.3,266,374.6,269.9,373z"/>
	<path class="st160" d="M267.4,380.6c0.4,0,0.8,0,1.1,0c0.4,2.3-0.8,4.3-1.3,6.4c-0.3-0.7-0.5-1.4-0.8-2
		C265.1,383.1,265.4,381.7,267.4,380.6z"/>
	<path class="st162" d="M393.2,314c4.8-5.8,3.6-13.2,5.2-19.8c1.3-5.1,1.7-10.5,2.6-16.6c3,4.9,2,9.7,2.7,14.1
		c2.3,14.9,3.8,29.9,5.7,44.9c0.3,2.5,0.8,4.9,1,7.4c0.2,2.2,1.5,3.1,3.4,3.5c-0.1,0.3-0.2,0.5-0.4,0.8c-2.2,0.1-4.6-0.3-6.6,1
		c-2.2,2.3-4.9,1.5-7.5,1.1c-7.4-1.5-7.7-1.9-7.8-9.4c0-7.1-0.3-14.2,0.2-21.3C391.9,317.7,392.1,315.8,393.2,314z"/>
	<path class="st43" d="M399.8,349.6c2.3-0.1,4.6-0.2,7-0.3c1.5,0.2,2.7,0,2.7,2.6c-0.2,38.5-0.2,77-0.2,115.5
		c-1.6,0.7-3.3,1-4.8-0.3c-1.7-2.8-1.2-5.9-1.2-8.9c0-31.9,0-63.7,0-95.6c0-3,0.2-6.1-0.7-9c-0.4-1.1-1.3-1.7-2.3-2.2
		c-0.4-0.3-0.7-0.7-0.9-1.2C399.5,350,399.7,349.8,399.8,349.6z"/>
	<path class="st163" d="M383.5,469.5c-0.7,0-1.5,0-2.2,0c-1.4-0.8-3.6,0-4.2-2.2c-0.9-2.4-0.7-4.9-0.7-7.4c0-32.4,0-64.8,0-97.2
		c0-2-0.1-3.9,0.3-5.9c0.6-3.2,2.1-4.9,5.6-3.4c2.5,2.7,1.8,6,1.8,9.2c0.1,31.4,0,62.9,0.1,94.3c0,3.5-0.6,7.3,3,9.7
		c0.5,0.5,0.7,1.2,0.6,1.9C386.3,468.6,384.7,468,383.5,469.5z"/>
	<path class="st164" d="M395.4,468.4c-0.7,0-1.5,0-2.2,0c-1-0.5-1.8-1.2-2.1-2.3c-0.7-1.9-0.6-3.9-0.6-5.8c0-33.4,0-66.8,0-100.2
		c0-3.8-0.6-8.3,5-9.2c4.1,0.8,2.7,4.1,2.7,6.4c0.1,23.5,0.1,47,0.1,70.5c0,10.3,0,20.6,0,31c0,2.5,0.2,5-0.6,7.4
		C397.1,467.2,396.3,467.9,395.4,468.4z"/>
	<path class="st48" d="M395.4,468.4c0.3-0.3,0.7-0.7,1-1c1.2-1.1,2.7-1.4,4.3-1.4c1.6-0.1,3.1,0.3,4.3,1.4c1.4,0,2.9,0,4.3,0
		C404.8,469.5,400,467.9,395.4,468.4z"/>
	<path class="st48" d="M392.1,467.4c0.3,0.3,0.7,0.7,1,1c-1.8,0-3.6,0-5.3,0c0-0.4,0-0.7,0-1.1c0.2-0.2,0.4-0.4,0.6-0.6
		C389.7,466.2,391,466.4,392.1,467.4z"/>
	<path class="st165" d="M365,545.9c-1.4-0.1-2.7-0.1-4.1-0.2c-1.5-5.9,0.5-11.7,0.9-17.5c0.7-12.1,1.5-24.1,2.4-36.2
		c0.1-1.4-0.1-2.9,0.9-4.1c3.1-0.7,3.7,1.8,4.9,3.7c0.1,0.6-0.1,1.1-0.5,1.5c-2.1,2.2-0.5,4.7-0.7,7.1c-0.6,7.8-0.9,15.6-2,23.4
		c-0.8,5.6-0.3,11.5-0.6,17.3C366.2,542.6,366.8,544.6,365,545.9z"/>
	<path class="st166" d="M369.5,493.2c0-0.4,0-0.7,0-1.1c2.3-1.5,3.7,0.4,5,1.7c11.6,12.2,22.3,25.3,33.1,38.3c1,1.3,1.8,2.7,2.1,4.3
		c-0.5,0.3-1,0.6-1.5,0.8c-4.8-2.8-7.9-7.4-11.5-11.4c-5-5.5-9.6-11.3-14.5-16.9c-0.4-0.4-1.3-0.4-2-0.6
		C375.6,504,373.9,497.6,369.5,493.2z"/>
	<path class="st167" d="M409.7,536.3c-10-11.8-19.7-23.7-30-35.2c-3-3.3-5.2-7.7-10.1-9c-1.3-1.3-2.7-2.5-3.3-4.3
		c-1.7-1.3-3-2.9-4.1-4.7c-0.6-1.1-0.6-2.6-2.3-2.8c0.6-3.8-2.4-6.3-3.5-9.5c1.4-1.5,2.9-1.4,4.5-0.1c-1.6,1.2-1.7,2.3-0.1,3.7
		c6.4,5.4,10.2,13.1,16.2,18.8c8.7,8.3,15.1,18.5,23.7,27c4.3,4.2,8.3,9.4,11.6,14.8C411.8,535.9,410.8,536.2,409.7,536.3z"/>
	<path class="st168" d="M363.1,482.4c0.8,2,3.3,2.9,3.2,5.4c-0.7,10.2-1.2,20.4-2.2,30.5c-0.9,9.1-0.6,18.4-3.1,27.3
		c-2.5,0-5-0.1-7.5-0.1c0.2-0.3,0.4-0.7,0.6-1c2.1-0.9,2.8-2.6,2.9-4.7c0.9-11.7,1.8-23.4,2.3-35.2c0.3-6.1,1.5-12,1.3-18.1
		C360.6,484.9,360.5,482.7,363.1,482.4z"/>
	<path class="st152" d="M222.2,483.3c0.4-1.2,0.7-2.4,1.1-3.6c-0.1,2,0.9,4.2-0.9,5.9C222.3,484.9,222.2,484.1,222.2,483.3z"/>
	<path class="st169" d="M228.8,539.3c-0.4,0-0.8,0-1.2,0c0.1-1.4,0.1-2.9,0.2-4.3c1.3-0.6,1.5-2,2.1-3.1
		C231.6,534.7,229.6,536.9,228.8,539.3z"/>
	<path class="st170" d="M229.9,530.5c0.4-2.4,0.8-4.8,1.2-7.3c0.4,0,0.6-0.1,0.9-0.4C233.6,526,233,528.6,229.9,530.5z"/>
	<path class="st171" d="M232,522.1c0.4-2.2,0.6-4.5,1.9-6.4c0.4-0.5,0.8-0.4,1.2,0C233.8,517.7,236,521.3,232,522.1z"/>
	<path class="st169" d="M235.5,510.3c-1.7-1.8,0.6-3.6-0.1-5.4c0.6-0.6,1.2-0.6,1.8,0c0.8,2-1.2,3.5-1.2,5.3
		C235.9,510.3,235.7,510.3,235.5,510.3z"/>
	<path class="st169" d="M237.2,505c-0.6,0-1.2,0-1.8,0c-0.2-0.3-0.2-0.7,0-1c2.1-0.3,0.1-2.9,1.9-3.3c0.4-0.4,0.8-0.4,1.2,0
		C238.8,502.3,238,503.6,237.2,505z"/>
	<path class="st156" d="M238.4,500.7c-0.4,0-0.8,0-1.2,0c0.1-1.4,0.2-2.8,0.3-4.2c0.7-0.6,1.3-0.7,2,0c0,0.7,0.1,1.4,0.1,2.1
		C239.2,499.2,238.8,499.9,238.4,500.7z"/>
	<path class="st172" d="M235.5,510.3c0.2,0,0.4,0,0.6,0c0.6,1.9-1,3.5-0.9,5.3c-0.4,0-0.8,0-1.2,0
		C233.8,513.7,234.4,511.9,235.5,510.3z"/>
	<path class="st42" d="M143.6,458.7c0.9-7.2,2.6-14,8-19.3c1.8-1.8,3.9-3.5,6.6-2.5c3,1.2,2.4,4,2.2,6.5
		c-0.8,9.7-4.6,18.1-11.4,25.2c-2.9,2.5-5.3,5.7-9.2,6.7c-0.1-0.5-0.1-1-0.2-1.6C139.1,468.2,140.4,463.1,143.6,458.7z"/>
	<path class="st173" d="M360.9,470.7c-1.5,0-3,0.1-4.5,0.1c-2.5-0.1-4.9-0.2-7.4-0.3c-0.3-0.6-0.2-1,0.3-1.4c0.5-0.3,1-0.5,1.5-0.6
		c1.9-0.3,3.8-0.2,5.7-0.3c1.9,0,3.7,0,5.5-0.6c1.3-0.3,2.7-0.4,4-0.5c1.1,0,2.2,0,3.2,0c1.4,0,2.7,0,4,0.3c0.5,0.1,1,0.4,1.5,0.7
		c0.4,0.5,0.4,0.9,0.1,1.4c-2.5,0.3-5,0.6-7.6,0.9c-1.1,0-2.1,0.1-3.2,0.1C363.1,470.6,362,470.6,360.9,470.7z"/>
	<path class="st174" d="M374.9,469.6c0-0.4,0-0.7,0-1.1c1.1-0.9,2.2-0.8,3.2,0c1.1,0,2.4-0.2,3.2,1
		C379.2,469.5,377,469.5,374.9,469.6z"/>
	<path class="st175" d="M252.4,495.3c-2.4-1.9-2.1-4.6-2.2-7.3c-0.4-8,1.3-16.1-2.1-23.8c-0.4-0.4-0.7-0.8-0.8-1.4
		c-0.1-3,1-5.8,1.8-8.6c1-2.7,1.1-5.7,2.1-8.4c0.7-1.7,1-3.5,1.4-5.3c0.9-1.8,0.1-4.5,2.8-5.3c2.1,3.7,1.1,7.8,1.2,11.6
		c0.4,9,0.1,18.1,0.1,27.2c2.9,0.2,1.4-3.3,4.2-3.4c-0.6,4.3,2.4,8.7-0.8,13c-0.2-0.7-0.3-1.4-0.7-2c-0.5-1.1-0.8-2.8-2.3-2.5
		c-1.5,0.3-1.3,1.9-1.3,3.1C255.5,486.7,254.3,491.1,252.4,495.3z"/>
	<path class="st176" d="M255.4,435.1c-1.9,1.4,0.2,4.1-1.9,5.5c-0.5,0.4-1,0.3-1.5-0.2c-1.4-2.6-0.8-4.9,0.8-7.1
		c1.2-1,2-0.4,2.5,0.8C255.5,434.5,255.5,434.8,255.4,435.1z"/>
	<path class="st70" d="M255.4,434.1c-0.5-0.3-1.1-0.7-1.6-1c-1.3-1.7-0.4-3,0.5-4.4c0.8-0.4,1.5-0.5,2.2,0.2
		C256.2,430.6,255.8,432.4,255.4,434.1z"/>
	<path class="st161" d="M258.8,420.2c0.1,0.4,0.2,0.7,0.3,1.1c-0.5,1.1-0.9,2.1-1.4,3.2c-0.7,0.7-1.5,0.6-2.2,0
		c-0.9-1.8-0.2-3.2,1.1-4.5C257.3,419.6,258,419.6,258.8,420.2z"/>
	<path class="st177" d="M255.9,424.5c0.6,0,1.1,0,1.7,0c-0.4,1.4-0.7,2.9-1.1,4.3c-0.6,0-1.1,0-1.7,0
		C253.2,426.9,254.2,425.6,255.9,424.5z"/>
	<path class="st178" d="M461.9,478.2c0,9.6,0,19.2,0,28.8C461.5,497.4,459.5,487.7,461.9,478.2L461.9,478.2z"/>
	<path class="st156" d="M239.5,496.4c-0.7,0-1.3,0-2,0c1.2-2.4,0.9-5.6,3.3-7.5l0.5,0C241.4,491.5,240.8,494,239.5,496.4z"/>
	<path class="st179" d="M240.7,483.5c0-0.4,0-0.7,0-1.1c0.5-2.4,0.3-5.1,2.6-6.8c0.5-0.1,1,0.1,1.4,0.4l0.4-0.1
		c-0.8,2.5-0.7,5.3-2.3,7.6C242.1,484.1,241.4,484.1,240.7,483.5z"/>
	<path class="st12" d="M240.7,483.5c0.7,0,1.3,0,2,0c0.2,2-0.4,3.7-1.3,5.4l-0.5,0C240.8,487.1,240.8,485.3,240.7,483.5z"/>
	<path class="st56" d="M143.6,458.7c-1.4,5-2.7,10-4.1,15c-2.8-2.7-2.6-6.4-3.3-9.7c-1.2-6-3.1-11.9-3.1-18.1
		c3.3,2.8,5.1,6.7,7.5,10.1C141.5,457.1,141.8,458.7,143.6,458.7z"/>
	<path class="st180" d="M247.8,463.1c0.1,0.4,0.3,0.8,0.4,1.1c-1,2-0.5,4.6-2.2,6.4c-0.6,0.6-1.3,0.6-2.1,0.3
		c-0.3-0.4-0.5-0.9-0.4-1.4c1.2-2.1,0.8-5,3-6.7C246.9,462.7,247.4,462.8,247.8,463.1z"/>
	<path class="st176" d="M244,470.7c0.7,0,1.3,0,2,0c0.3,2-0.4,3.7-1.3,5.4l-0.4,0l-0.4,0C242.4,474.2,242.2,472.4,244,470.7z"/>
	<path class="st181" d="M324.4,284.9c-0.7-0.4-1.4-0.7-2.2-1.1c-1.8-1.4-3.6-2.7-5.4-4.1c-1.9,0.1-3.7-1-5.7-0.9
		c-1.3,0-2.5,0-3.7-0.3c-0.5-0.1-1-0.3-1.4-0.6c-1.3-1.2-1.9-2.9-3.2-4.1c-3.4-4.2-4.2-9.8-7.3-14.1c-2.2-4.7-6-8.6-5.9-14.2
		c0.5-0.4,1-0.8,1.5-1.2c4-2.7,8.5-2.3,12.9-2.1c1,0,2-0.1,2.9-0.1c3.2,1.2,5.3,3.7,7.4,6.2c1.8,2.9,4.7,4.9,6.7,7.6
		c2.8,3.8,4.4,2.6,6.6-0.5c5.2-7.2,10.9-14,17.4-20.1c1.4-1.3,2.6-3,4.7-3.4c3.9,1.5,1.1,4.9,1.9,7.2c0,0.6,0,1.2,0,1.8
		c-1.2,10.8-2.4,21.6-3.2,32.4c-0.2,2.2-0.5,4.2-2,6c-2,2.3-4.3,4.3-7.1,5.7c-1.8-0.3-3.6-0.6-5.3-0.9c-0.4,0.3-0.9,0.6-1.3,0.8
		c-0.5,0.2-1,0.2-1.5,0.3C328.9,285.9,326.7,284,324.4,284.9z"/>
	<path class="st182" d="M339.1,356.5c1-11.6,1.9-23.1,3-34.7c0.5-5.1,1.1-10.2,1.7-15.3c1.1-1,1.2-3.3,3.7-2.2
		c4.1,1.8,8.6,2.6,12.3,5.4c-0.5,2-2.4,3.5-2.2,5.7c0,2,2.1,2.8,2.5,4.6c-0.8,1.8-0.9,3.7-1.3,5.6c-0.8,4.6,0.9,9.3-2.2,13.8
		c-1.8,2.7,1.5,9.1,4.8,11.1c0.9,0.6,1.9,1,1.8,2.3c-0.4,0.8-1,1.4-1.8,1.7c-5.7,1.3-11.6,0.1-17.4,0.8c-0.7,0.2-1.5,0.4-2.2,0.6
		C341,356.2,340.1,356.4,339.1,356.5z"/>
	<path class="st183" d="M377,233.5c-5.3,13.6-5.6,27.9-6.3,42.1c-0.1,2.6,0.7,5.2,0.9,7.8c0.5,5.8-0.1,6.3-5.5,5
		c-1.4-0.3-2.7-0.8-4-1.2c-0.8-0.7-1.8-1.1-2.4-2c-3.7-5.8-2.8-11.6-0.2-17.4c0.9-1.1,1.4-2.3,0.6-3.7c-4.4-5-2.6-10.4-0.9-15.7
		c0.4-1.1,0.4-2.3,0.2-3.4c-1.1-1.9-2.6-3.6-2.6-5.9c0-1.3,0.4-2.5,0.7-3.7c2.2-6,3.6-1.3,5.1,0.4c0.7,0.9,1.4,1.8,2.4,2.4
		c1.2,0.7,2.4,0.7,3.7,0.6c1.1-0.1,1.9-0.7,2.7-1.4c0.8-0.7,1.5-1.5,2.3-2.3C374.5,234.1,375.4,233,377,233.5z"/>
	<path class="st184" d="M357.7,238.9c0,2.5,1.8,3.9,3.2,5.5c-1.7,1.4-1.5,2.8,0,4.2c-3.5,5.2-3.1,11.8,0.9,15.2
		c-1.7,1.1-1.6,2.6-0.9,4.2c-3.1,4.4-3.1,13.1,0,16.8c-0.4,1-1.3,1.2-2.3,1.2c-4.4,2.7-8.7-1-13.1-0.1c-1.5-2-1-4.3-0.8-6.5
		c4.3-4.6,1.8-10.5,2.9-15.8c1.7-7.7,1.7-15.7,2.4-23.6C352.7,239.7,355.1,238.9,357.7,238.9z"/>
	<path class="st185" d="M373.8,315.1c3.2,0.7,6.4,1.4,9.7,2.2c1.1,1,2.2,2.1,2.1,3.6c-0.9,10.4,1.1,20.9-1.2,31.2
		c-1.6,1-3.5,0.6-5.1,1.2c-5,1.2-10,1.8-14.9-0.2c-1-1.9,0.7-2,1.7-2.6c3.2-0.7,6.3-0.3,8.5,0.5c-1.1-0.2-2-1.8-2.1-3.7
		c-0.5-9.9,0.5-19.9,0.1-29.8C372.6,316.5,373.1,315.7,373.8,315.1z"/>
	<path class="st186" d="M366.3,351.6c-0.9,0-1.7,0.2-2.1,1.2c-0.3,0.2-0.7,0.2-1.1,0.1c-7.4-1.1-7.1-7.3-8.3-12.5
		c-0.1-0.5-0.3-1.3,0-1.5c4.9-4.6,2.4-10.5,2.3-15.7c-0.1-2.7,2.4-2.3,2.6-3.9c-1.2-1.1-1.5-2.9-2.9-3.9c0.1-2.3,0.4-4.6,3.1-5.4
		c2.6,0.8,5.5,1.1,7.5,3.2c0.1,12.2-1.4,24.4-0.4,36.7C367.1,350.4,366.8,351,366.3,351.6z"/>
	<path class="st187" d="M384.6,351.5c-0.5-1.1-1.2-2.1-0.9-3.5c1.6-8.3-0.9-16.7,0.8-25.1c0.3-1.8-0.6-3.8-1-5.7
		c3.8,0.5,6.8-1,9.7-3.2c0,8.1,0.1,16.2,0,24.4c-0.1,5.2-1.1,10.8,6.7,11.2c0,0-0.1,0-0.1,0c-1.5,1.5-3.7,0.5-5.3,1.7
		c-1.1,0.4-2.1,0.7-3.1,1.3C388.9,353.1,386.6,353.5,384.6,351.5z"/>
	<path class="st188" d="M366.3,351.6c-2-6.3-0.9-12.7-1-19.1c0-5.5,0.6-11.1,0.6-16.6c0-1.5,0.1-2.4,1.5-2.9
		c1.8,1.7,4.7,0.2,6.4,2.1c0,10.2,0.1,20.4,0,30.6c0,2.6,0,4.9,3.2,5.9C373.4,351.6,369.9,351.6,366.3,351.6z"/>
	<path class="st189" d="M344.8,279.5c2.4,1.9,0.8,4.3,0.8,6.5c-2.1-0.3-4.1-0.7-6.2-1C341.2,283.2,343,281.4,344.8,279.5z"/>
	<path class="st190" d="M332.1,284.2c0.3-0.1,0.6-0.1,0.9,0c1.1,1.7,0.7,3.4,0.2,5.2c-1.1,2.5-2.2,5-3.3,7.5
		c-0.8-0.3-1.6-0.5-2.3-0.8C329.1,292.1,329.8,287.8,332.1,284.2z"/>
	<path class="st191" d="M358.6,286.1c0.5-0.9,1.4-1.1,2.3-1.2c0.4,0.8,0.7,1.5,1.1,2.3C360.5,288.1,359.3,287.9,358.6,286.1z"/>
	<path class="st192" d="M377,233.5c-1.1,0.9-2.2,1.8-3.4,2.8c-2.3-2.8-0.1-3.3,2-3.8c0.4,0,0.9,0,1.3,0
		C377,232.8,377,233.2,377,233.5z"/>
	<path class="st193" d="M333.1,289.3c-0.1-1.7-0.1-3.4-0.2-5.2c0.4,0,0.8,0,1.2,0C333.8,285.9,334.7,287.8,333.1,289.3z"/>
	<path class="st194" d="M311.7,182.2c1.4-0.8,2.7-1.5,4.1-2.3c4.7,3.6,10.8,5.3,14,10.9c1.3,2.4,3.3,4.2,6.1,4.7
		c4.4,2.6,8.3,6.2,13.6,7.2c1.5,0.3,2.4,1.5,2.9,2.9c0.3,3.9,0.7,7.9,1,11.8c-0.3,0.7-0.7,1.5-1,2.2c0.2,2-0.3,3.6-2.3,4.5
		c-6.3-6.2-11.5-13.4-18.9-18.3c-3.5-2.3-6.7-5.5-11.4-5c-3-1.9-3.1-5.8-5.7-8C313.2,189.4,311.1,186.1,311.7,182.2z"/>
	<path class="st195" d="M352.4,205.7c-5.9-2.9-12.7-4.3-17.2-9.7c-3.3-1.4-4.6-4.2-4.9-7.6c0.7-3.8,3.5-4.8,6.4-3.4
		c9,4.3,18.3,8.1,26.8,13.4c1,0.6,2.2,1.4,1.7,3c-3.3,1.9-7,2.8-10.7,3.2C353.6,204.7,352.8,204.8,352.4,205.7z"/>
	<path class="st196" d="M365.2,201.4c-8.8-6.8-19.5-9.9-29-15.4c-2.4-1.4-4.2,0.2-5.2,2.6c-2.2-1.6-1.8-3.9-1.7-6.2
		c0.2-1.9-0.2-4.1,1.5-5.6c3.3,4.2,8.2,6,12.9,7.8c5.3,2.1,10.5,4.6,15.9,6.7c3.7,1.4,7.8,3.8,11,6.9
		C368.6,199,367.7,201.5,365.2,201.4z"/>
	<path class="st197" d="M354.5,222.9c5,0.1,8.7-3.4,13.4-4.5c2.9-0.6,5.4-1.5,8.1,0c-1.2,3.2-4.5,3.7-7,4.9
		c-2.7,1.3-5.5,2.3-8.1,3.7c-0.7,0.4-1.4,0.7-2.1,1.1c-2.4,0.9-4.6,3-7.5,1.4c-0.3-0.5-0.5-1-0.5-1.5c0.6-1.9-0.6-4.7,2.7-5.2
		C353.8,222.9,354.1,222.9,354.5,222.9z"/>
	<path class="st198" d="M353.4,222.9c-1.9,1.3-0.2,4-2,5.4c-1.2-0.7-1.4-1.9-1.7-3.1c-0.1-0.5,0.1-1,0.3-1.4
		c0.8-1.4,1.6-2.8,2.4-4.1C353.6,220.5,353.4,221.7,353.4,222.9z"/>
	<path class="st199" d="M359.8,226.1c5.4-2.6,10.8-5.1,16.2-7.7c2.2-0.6,4-2.4,6.5-2c-0.1,6.3-4.5,10.7-6.8,16c-1.1,1.1-3,1.7-2,3.8
		c-0.5,0.6-1,1.1-1.5,1.6c-2.2,0.7-4.5,1.5-6.9,0.9c-1.5-0.6-2.5-1.8-3.6-3c-0.5-2.3-2.1-4.2-2.6-6.6
		C358.9,228.1,359.2,227.1,359.8,226.1z"/>
	<path class="st200" d="M222.5,249.4c3.5,0.7,6.9,0.6,10.3-0.5c1.5-0.5,3.7-1.4,3.4,1.8c-0.3,2.1-1.1,3.7-3.4,4.1
		c-1.8,1.1-3.6,2.4-5.5,3.2c-2,0.7-4.3,1.2-5.3-1.7C222.1,254,222.3,251.7,222.5,249.4z"/>
	<path class="st201" d="M154.7,153.3c2.1-0.8,4.3-1.6,6.4-2.4c1.6-1.2,3.2-2.2,5.3-1.4c0.6,1.2,1.7,2.2,1.3,3.7
		c-1.2,3.2-4.6,1.3-6.6,2.9C159.1,154.9,156.4,155.4,154.7,153.3z"/>
	<path class="st202" d="M222.2,246.5c0,0.7,0,1.5-0.1,2.2c-2.4,0.4-4.9,0.7-7.3,1.1c-1.1,0.4-1.3-0.1-1.1-1.1
		C216.6,247.9,219.4,247.2,222.2,246.5z"/>
	<path class="st203" d="M213.8,248.6c0.4,0.4,0.7,0.7,1.1,1.1c-2.6,1.8-5.7,1-8.5,2C208.6,250,211.1,249.1,213.8,248.6z"/>
	<path class="st204" d="M167.7,153.3c-0.4-1.1-0.9-2.1-1.3-3.2c-0.5-0.5-0.5-0.9,0.1-1.3c0-0.7,0-1.4,0-2.1c1.5,1.9,1.4,4.3,2.2,6.4
		C168.4,153.2,168,153.3,167.7,153.3z"/>
	<path class="st205" d="M191.1,147.7c0,0.7,0.1,1.4,0.1,2c-1.1,0.1-2.1,0.3-3.2,0.4C187.8,147.8,189.8,148.2,191.1,147.7z"/>
	<path class="st206" d="M232.7,254.9c1.1-1.4,2.3-2.7,3.4-4.1c1.4-0.6,1.6-2.1,2.3-3.2c4.3,4,9.3,7.2,11.8,12.8
		c-1.5,5.3-7.7,9.6-14,9.6c-5.5,0.5-10.5-0.3-13.9-5.3c0.7,0,1.4,0,2.1,0c3.9,2.3,6.9,0.3,9.7-2.2c0.1-0.3,0-0.8,0.3-1
		C239,257.9,237,256.1,232.7,254.9z"/>
	<path class="st207" d="M234.2,262.5c-2.6,3.6-5.4,6.2-9.7,2.2C228,265.4,231.1,263.8,234.2,262.5z"/>
	<path class="st208" d="M166.5,148.8c0,0.4-0.1,0.9-0.1,1.3c-2-1.3-3.5,0.9-5.3,0.8c2.1-2.5-0.8-5,0-7.4
		C163.4,144.8,162.7,149.1,166.5,148.8z"/>
	<path class="st0" d="M236.3,270c5.7-1.7,10.2-5.2,14-9.6c2.5-2.2,5-4.4,7.5-6.6c1.8-1.6,3.7-3.2,5.5-4.8c5.4-0.5,10.8-1.2,16-2.5
		c3.5-0.3,6.9-0.6,10.4-0.8c2.3,4.6,4.6,9.2,6.9,13.8c1.2,2.3-0.2,3.9-1.4,5.6c-1.3,1.6-3.1,2.6-4.6,3.8c-4.2,2-6.2,6.5-10,9
		c-5.9,0.8-11.7-0.9-17.6-1.1c-2.4,0-4.9,0-7.3-0.1c-0.4,0.4-0.8,0.6-1.3,0.7c-0.5,0-1,0-1.5-0.1c-2-0.5-4.1-0.3-6.1-0.3
		c-3.7,0.2-6.9-1.2-10.2-2.5c-0.5-0.3-0.9-0.7-1.2-1.2c-1.6-1.2-3.6-1-5.4-1.3C231.8,270.2,234.7,272.3,236.3,270z"/>
	<path class="st95" d="M128.7,415.9c-1.8-2.5-0.6-5.4-0.9-8.1C128.9,410.4,128.8,413.2,128.7,415.9z"/>
	<path class="st97" d="M130.2,427.6c-2.3-1.6-1.1-3.9-1.2-5.9C129.4,423.7,129.8,425.7,130.2,427.6z"/>
	<path class="st209" d="M341.6,231.4c-2.1,1.9-4.8,2.6-7.4,3.3c-4.4-6.3-9.7-11.7-15.5-16.7c-1.7-1.4-3-2.8-3.9-4.8
		c1.5-3,4.2-3.8,7.3-4c3.3,0.5,5.7,2.7,7.9,5c3.3,3.4,6.8,6.7,10.1,10.1C342,226.4,343.3,228.6,341.6,231.4z"/>
	<path class="st210" d="M322.3,210c-2.8,0.5-5.2,1.8-7.5,3.3c-0.4,0-0.7-0.1-1.1-0.1c-3-7-1.5-13.7,1.2-20.4c4,1,2.8,5.5,5.1,7.6
		C322.1,203.3,326.3,205.7,322.3,210z"/>
	<path class="st211" d="M314.9,192.8c-0.4,6.8-0.8,13.6-1.2,20.4c-1.1,0.6-2.1,1.2-3.2,1.7c0-10.6,0-21.2,0-31.8
		c0.4-0.3,0.9-0.6,1.3-0.9C312.9,185.7,315.3,188.8,314.9,192.8z"/>
	<path class="st212" d="M313.2,241.8c0,2.3,0,4.6-0.1,6.9c-2.3-1.9-4.5-3.9-6.1-6.5c1.5-0.4,3-0.9,4.5-1.3
		C312.1,241.2,312.6,241.5,313.2,241.8z"/>
	<path class="st213" d="M304.1,242.3c-4.2,1.2-8.5,2.2-12.9,2.1c-2.7-3.7-7.6-5.7-8.6-10.8c0.3-1,1.2-1.8,1.7-2.7
		c1-1.5-0.1-3.6,1.5-4.8c4.6,0.2,5.2,4.9,7.5,7.4C296.5,237.1,299.5,240.5,304.1,242.3z"/>
	<path class="st214" d="M285.8,226.1c-1.1,1.6,2.1,4.1-1.1,5.3c-1.5-1.1-2.3-2.4-1.1-4.2c1.4-0.8-0.3-4.6,3.2-3.2
		C285.9,224.4,285.8,225.2,285.8,226.1z"/>
	<path class="st215" d="M283.6,227.2c0.4,1.4,0.8,2.8,1.1,4.2c-0.1,1.4-0.8,2.2-2.2,2.2c-3.7,4-4.6,1.1-5.4-2.2
		c0.7-1.1,1.4-2.1,2.1-3.2c0.2,1,0.3,2.6,1.6,2.2c1.3-0.4,0.4-2.2,0.7-3.3C282.2,227.2,282.9,227.2,283.6,227.2z"/>
	<path class="st216" d="M330.9,183.2c-1.2,1.8,0.3,3.6,0.2,5.4c1.4,2.5,2.8,4.9,4.2,7.4c-3.4,1.2-4.8-1.7-6-3.6
		c-1.9-3.1-3.6-5.5-7.5-6.6c-2.3-0.6-3.9-3.8-5.9-5.8c4.5-3.2,9.1-6.1,14-8.6c0.3,0.4,0.7,0.7,1,1.1c0,0,0,0,0,0
		C330,176,329.9,179.6,330.9,183.2z"/>
	<path class="st116" d="M330.9,183.2c-1.6-3.6-1.6-7.2,0-10.7c0,1.4,0,2.9,0,4.3C330.9,178.9,330.9,181,330.9,183.2z"/>
	<path class="st178" d="M462.1,443.6c-0.3,0.1-0.6,0.1-0.9,0.2c-0.1-7.1-1.4-14.3,0.7-21.4C462.8,429.4,462.4,436.5,462.1,443.6z"/>
	<path class="st83" d="M461.9,398.9c0,4.9,0,9.9,0,14.8C461.3,408.7,459.8,403.7,461.9,398.9L461.9,398.9z"/>
	<path class="st178" d="M462,453.4c0,5.3,0,10.6,0,15.8C461.4,464,459.5,458.6,462,453.4C462,453.4,462,453.4,462,453.4z"/>
	<path class="st158" d="M276,350.5c-0.2,3-0.8,5.9-2.1,8.6c-0.7,0.6-1.4,0.6-2.2,0.2c-0.9-3.5,0-6.4,2.7-8.8
		C275,350.3,275.5,350.3,276,350.5z"/>
	<path class="st217" d="M279.3,337.6c0,0.7,0.1,1.4,0.1,2.2c-0.8,2.1-1.6,4.3-2.5,6.4c-0.7,0.7-1.4,0.6-2.2,0
		c-0.5-3.4,0.2-6.4,3-8.7C278.3,337.3,278.8,337.3,279.3,337.6z"/>
	<path class="st158" d="M271.9,359.1c0.7,0,1.4,0,2,0c0,1.5-0.1,3-1.2,4.3c-0.6,0-1.2,0-1.8,0C269.7,361.6,270.5,360.3,271.9,359.1z
		"/>
	<path class="st218" d="M275.1,346.2c0.6,0,1.2,0,1.8,0c0.3,1.6,0.2,3-0.9,4.3c-0.3,0-0.6,0-0.9-0.1c-0.2-0.2-0.4-0.3-0.6-0.5
		C273.9,348.5,273.8,347.3,275.1,346.2z"/>
	<path class="st218" d="M279.3,337.6c-0.3,0-0.6,0-0.9,0c-2.6-3.3-1.2-6,1.3-8.6c0.6-0.3,1.1-0.3,1.7,0
		C281.2,332,280.7,334.9,279.3,337.6z"/>
	<path class="st217" d="M284.5,317.3c-1.4,2.3-0.2,5.3-2,7.5c-0.5,0.4-1,0.3-1.4-0.1c-0.8-1.2-0.8-2.6-0.6-4
		c0.3-1.4,0.8-2.6,1.9-3.6C283,316.6,283.8,316.6,284.5,317.3z"/>
	<path class="st219" d="M281.3,324.7c0.4,0,0.8,0,1.2,0c0.1,1.6,0,3-1.1,4.3c-0.4,0-0.7,0-1.1,0C277.8,327,279.1,325.7,281.3,324.7z
		"/>
	<path class="st219" d="M284.5,317.3c-0.6,0-1.1,0-1.7,0c-1.3-2.3-0.2-4,1.4-5.5c0.5-0.2,1-0.2,1.5,0.1c0,0.7,0.1,1.4,0.1,2.1
		C285.4,315.1,284.9,316.2,284.5,317.3z"/>
	<path class="st220" d="M306,286.9c-5.6,3.6-4.7,10-6.6,15.1c-0.6,0.4-1.2,0.8-1.8,1.1c-1.3-0.4-2.8,0.2-3.8-1.2
		c0.3-1.5-2.3-2.6-0.5-4.3c1.3-1.5-0.2-3.6,1-5.2c0.1-0.7,0.1-1.4,0.2-2.1c0.3-5.3,2.8-8.9,7.9-10.6c0.5,0,1,0.2,1.4,0.4
		c1.1,0.6,0.3,3.2,2.7,2.7c0.3,0.4,0.5,0.9,0.6,1.4C307.1,285.3,306.9,286.3,306,286.9z"/>
	<path class="st38" d="M302.9,280.7c-4.9,1.5-5.8,6.4-8.4,9.8c-0.7-1.1-1.4-2.2-2.1-3.3c-1.7-1.7-0.4-3.4-0.2-5.2
		c0.4-1.5,0.8-3.1,1.7-4.4c0.4-0.4,0.8-0.7,1.3-0.9c2.3-0.6,4.6-0.7,6.9,0C304,277.7,302.4,279.4,302.9,280.7z"/>
	<path class="st218" d="M290.9,290.4c0,3-0.9,5.9-2.2,8.6c-0.4,0.4-0.9,0.5-1.4,0.3c-1.8-3.6-0.3-6.4,2.1-8.9
		C289.9,290.2,290.4,290.2,290.9,290.4z"/>
	<path class="st219" d="M290.9,290.4c-0.3,0-0.7,0-1,0c-2.9-3.5-0.3-6,1.7-8.6c0.5-0.3,1-0.2,1.5,0c0.9,1.9-1.5,3.4-0.7,5.4
		C291.9,288.3,291.4,289.4,290.9,290.4z"/>
	<path class="st217" d="M287.8,299c0.3,0,0.6,0,1,0c-0.1,2.7-0.4,5.3-2,7.5c-0.5,0.4-1,0.3-1.4-0.2
		C284.4,303.3,285.1,300.8,287.8,299z"/>
	<path class="st219" d="M285.7,306.5c0.3,0,0.7,0,1,0c0.2,1.9,0.1,3.7-1,5.4c-0.4,0-0.8,0-1.1,0
		C282.6,309.4,282.8,308.3,285.7,306.5z"/>
	<path class="st38" d="M294.3,292.6c0,1.8,0.4,3.7-1,5.2C293.5,296,292.6,294,294.3,292.6z"/>
	<path class="st221" d="M306,286.9c0.1-1,0.1-2,0.2-2.9c0.9-1.2,0.2-2.5,0.4-3.8c-0.1-0.4-0.1-0.9,0-1.3c0.1-0.4,0.3-0.8,0.7-1.1
		c1.4-0.1,2.9-0.1,4.3-0.2c1.7,3.2,1.5,5.8-2.1,7.4c-0.4,0.5-0.8,1-1.2,1.5C307.4,286.7,306.7,286.8,306,286.9z"/>
	<path class="st222" d="M309.4,285.1c0.1-1.9,3.9-3.4,0.4-5.6c0.6-0.6,1.1-1.2,1.7-1.9c2.2-0.3,4,0.5,5.4,2.1c0.1,1.7,2.5,5-2.4,3.4
		C312.5,282.5,312.1,287,309.4,285.1z"/>
	<path class="st223" d="M235.3,273.1c0.4-0.1,0.7-0.1,1,0.2c2.3,1.4,1.8,3.7,1.7,5.8c-0.2,29,0.2,58-0.2,87c-0.1,4.3,0.5,8.5,1,12.7
		c0,4.7,0,9.3-2.6,13.5c-1.7,4.1-1.4,8.5-2.1,12.7c-0.3,1.5,0.4,3.2-1.1,4.4c-2.3-43.1-0.5-86.3-1.1-129.5
		C231.9,276.9,232.3,274.5,235.3,273.1z"/>
	<path class="st224" d="M236.3,392.3c0.4-4.3,0.7-8.6,1.1-12.9c1-6.7-0.1-13.6,1.7-20.3c0.4-1.6-0.6-4.7,3.1-4.1
		c1.6,2.6,1.6,5.4,1.6,8.3c-0.7,33.5-0.1,66.9-0.3,100.4c0,2,0.2,3.9,0.6,5.8c0,0.4,0,0.7,0,1.1c0,1.8,0,3.6-0.1,5.3
		c-2.2,1.6-0.3,5.2-3.2,6.4c-2.3,1.6-0.2,5.1-4.3,7.4C236.1,456.8,236.4,424.6,236.3,392.3z"/>
	<path class="st45" d="M340.5,354.7c0.6,0,1.1,0,1.7-0.1c3.5-0.8,7.1-0.3,10.6-0.3c2,1.9-0.7,2.5-1.1,3.8c-1.4,1.9-1.1,4.1-1.1,6.2
		c0,13.6,0.1,27.1,0,40.6c-0.1,9.1,0.1,18.1-0.8,27.2c-1.1,10.6,1,21.2,0.1,31.9c0.5,1.8,1.2,3.6,0.3,5.5c-0.4,0-0.7,0-1.1,0
		c-2.9,0.3-0.8-2.6-2.1-3.2c-2-21.9-3.7-43.9-4.4-65.9c-1.3-4.4,0.4-9.1-1-13.5c-0.4-1.2-0.6-2.4-0.1-3.7c-1.1-3,0.2-6.2-0.9-9.2
		c-0.3-1.9-0.7-3.9-0.2-5.8C339.8,363.8,339.6,359.3,340.5,354.7z"/>
	<path class="st225" d="M363.1,482.4c-2.4,4.9-1.6,10.5-1.8,15.5c-0.7,14-2.1,27.9-2.4,41.8c-0.1,3.6-0.8,5.5-4.8,4.7
		c2-21.4,3.9-42.8,5.9-64.2C362.4,479,362.3,481.4,363.1,482.4z"/>
	<path class="st193" d="M332.1,284.2c-0.3,4.4-0.7,8.8-4.5,11.8c-1-0.3-2-0.5-2.9-0.8c-0.4-2.7,0.8-5.2,1.4-7.7
		c0.4-1.6-0.1-2.3-1.5-2.6C326.8,283.2,329.5,284.1,332.1,284.2z"/>
	<path class="st226" d="M341.6,387c2.2,4.4,0.6,9,1,13.5C341.3,396,341.6,391.5,341.6,387z"/>
	<path class="st226" d="M340.5,354.7c0,4.5,0,9-0.1,13.5c-1.5-3.8-0.6-7.9-1.3-11.7C339.5,355.9,339.2,354.7,340.5,354.7z"/>
	<path class="st226" d="M340.6,374.1c1.9,2.9,0.6,6.1,0.9,9.2C340.4,380.3,340.5,377.2,340.6,374.1z"/>
	<path class="st227" d="M347,466.4c0.7,1.1,1.4,2.1,2.1,3.2c0,0.3,0,0.6,0,0.9C345.2,470.7,347.4,467.9,347,466.4z"/>
	<path class="st164" d="M271.9,359.1c-0.3,1.4-0.6,2.9-0.9,4.3c-0.5,2.9-1.1,5.7-1.6,8.6c-3.1,1-3.6-1.5-4.3-3.5
		c-0.7-1.9-0.4-3.9-0.4-5.8c0-25.5,0-50.9,0-76.4c0-2.6-0.4-5.4,1.6-7.6c1.5-0.1,3.1,0.5,4.3-0.9c0.7-0.5,1.2-0.4,1.7,0.3
		c1.3,2.3,1.1,4.8,1.1,7.3c0,19.9,0.1,39.9,0,59.8c0,1.9-0.5,4,1.4,5.4l0.4-0.1C274.1,353.3,273,356.2,271.9,359.1z"/>
	<path class="st228" d="M254.6,276.4c0.4,0,0.7,0.1,1.1,0.1c1.8,1.1,3.6,2,2.3,4.8c-0.6,1.3-0.2,3.2-0.2,4.8c0,36.9,0,73.9,0,110.8
		c0,1.8,0,3.6,0.3,5.3c0.1,0.7,0.2,2.1,1.3,1.8c0.6-0.1,0.9-1.3,1.4-2.1c0.1,1.4,0.2,2.8,0.4,4.3c-0.8,2.9-1.6,5.7-2.4,8.6
		c0.6,2.6-0.5,4.3-2.7,5.5c-1.1,1.5-1.8,0.5-2.3-0.4c-1.1-2.1-0.9-4.5-0.9-6.8c0.1-42.5-0.2-85,0.2-127.5
		C253,282.6,252.3,279.2,254.6,276.4z"/>
	<path class="st93" d="M266.4,278.6c0,28.7,0,57.5,0,86.2c0,2.8-0.6,5.9,3,7.1c0.1,0.4,0.3,0.7,0.4,1.1c-2.1,2.1-3,4.6-2.5,7.5
		c-0.3,1.4-0.6,2.9-1,4.3c-0.2,0.1-0.4,0.1-0.6,0.1c-2.9,1.8-3.7-0.1-3.6-2.4c0.1-3.9,0.9-7.7,1-11.6c0.1-29.1,0-58.1,0.1-87.2
		C263.2,281.6,262.2,278.4,266.4,278.6z"/>
	<path class="st229" d="M271.8,277.7c-0.4,0-0.7,0-1.1,0c-2.5-0.6-5.3,0.2-7.7-1.1c6.5,0,13-0.1,19.5-0.1c2.4-2,5-1.3,7.8-0.9
		c-2.7-2.5-2-5.1-0.2-7.7c1.4-1.1,2.9-2.2,4.3-3.2c2.3,3.4,1,8,3.5,11.4c-0.5,1.8-2.6,0.3-3.4,1.6l-0.1,0c-0.5,0.4-1,0.7-1.6,1
		c-4.6,0.8-9.3,0.2-14,0.4c-1.8-0.1-3.7,0.1-5.5-0.4C272.8,278.4,272.2,278.1,271.8,277.7z"/>
	<path class="st158" d="M256.8,419.2c1.7-0.9,1-3,1.9-4.3c0.4,0,0.8,0,1.1,0c0.3,1.9-0.4,3.7-1.2,5.4c-0.6,0-1.2,0-1.8,0
		C256.3,420,256.2,419.6,256.8,419.2z"/>
	<path class="st230" d="M391.7,351.4c0.8-0.3,1.7-0.7,2.5-1c1.7-0.7,3.4-0.6,5.1,0c1.2,0.1,2.3,0.1,3.5,0.2
		c-0.9,35.9-0.1,71.8-0.4,107.6c0,3.2,0.6,6.5-1.7,9.3c-1.4,0-2.9,0-4.3,0c0.1-38,0.2-76.1,0.3-114.1c0-1.3-0.5-1.5-1.4-1.7
		C394.1,352.2,392.9,352.5,391.7,351.4z"/>
	<path class="st231" d="M400.7,467.4c0-36.7,0-73.4,0-110.2c0-2.5-0.4-5.1,2.1-6.7c2.6,2.1,2.2,5.1,2.2,7.9c0,36.3,0,72.7,0,109
		C403.6,467.4,402.1,467.4,400.7,467.4z"/>
	<path class="st162" d="M399.4,350.4c-1.7,0-3.4,0-5.1,0c1.6-1.7,3.6-0.8,5.5-0.9C399.7,349.8,399.5,350.1,399.4,350.4z"/>
	<path class="st48" d="M387.8,467.4c-4.9,0.6-5.4-2.2-5.4-6.2c0.1-35.8,0-71.7,0-107.5c0.2-0.2,0.5-0.5,0.7-0.7
		c5.9-1.6,6.4-1.3,6.4,4.3c0,34.3,0,68.6,0,103C389.5,462.8,389.6,465.3,387.8,467.4L387.8,467.4z"/>
	<path class="st232" d="M363.1,352.8c0.4,0,0.7,0,1.1-0.1c5.3-0.1,10.5-0.2,15.8-0.2c1.2-0.3,2.5-1,2.5,1.2c0,0,0,0,0,0
		c-4.5-0.7-4.3,2.2-4.3,5.3c0,36.5,0,73,0,109.5c-1.1,0-2.2,0-3.2,0c0,0-0.5,0-0.5,0l-0.5,0c-2.2-2.6-1.7-5.7-1.7-8.7
		c0-32,0-64-0.1-96c0-2.6,1.1-5.8-1.9-7.7c-0.9-0.1-1.8-0.1-2.7-0.3c-1.9-0.7-4.3-0.3-5.7-2.2C362.2,353.3,362.6,353.1,363.1,352.8z
		"/>
	<path class="st93" d="M382.4,353.7c-0.6-0.9-1.6-1-2.5-1.2c1.5-0.3,3.1-0.7,4.6-1c2.4,0,4.8-0.1,7.2-0.1c1.2,0.1,2.4,0.1,3.5,0.2
		c-3,1.2-3.2,3.6-3.2,6.4c0.1,36.5,0.1,72.9,0.1,109.4c-1.4,0-2.9,0-4.3,0c0-37.4,0.1-74.7,0-112.1
		C387.8,349.6,384.1,354.6,382.4,353.7z"/>
	<path class="st233" d="M361.7,353.6c1.8,0.6,4-0.6,5.6,1.2c-0.4,0.5-0.9,0.8-1.4,1c-1.4,0.5-3,0.4-4.3,1c-1.9,1.5-1.1,3.7-1.1,5.5
		c-0.1,33.1,0,66.1,0,99.2c0,2.1-0.6,4.3,1.2,6.1c0.1,0.3,0.3,0.6,0.4,0.9c-1.5,1.8-3.6,0.8-5.4,1c-3.4-0.8-3.6-3.5-3.7-6.3
		c-0.1-5-0.1-10-0.1-15c0-24.1,0-48.1,0-72.2c0-7.1-0.2-14.2,0.6-21.3c-3.7,0-7.5-0.1-11.2-0.1C348.6,353.3,355.2,353.7,361.7,353.6
		z"/>
	<path class="st227" d="M353.4,354.8c0.7,0.4,2.8-0.6,1.9,1.1c-1.3,2.5-0.8,4.9-0.8,7.3c-0.1,33.2,0,66.3,0,99.5
		c0,2.5-0.5,5.1,2.1,6.7c-2.1,0-4.3,0-6.4,0.1c-0.7-1.3-1.2-2.7-1.1-4.3c0.6-35.3,0.6-70.5,0.6-105.8c0-1.2-0.3-2.5,0.5-3.6
		C351.4,355.8,352.6,356.1,353.4,354.8z"/>
	<path class="st174" d="M369.5,354.8c3.5-2.4,4.3-0.5,4.3,2.7c0,6.1,0,12.1,0,18.2c0,30.9,0,61.8,0,92.7c-1.4,0-2.9,0-4.3,0
		c-1.8-1.9-1.6-4.3-1.6-6.6c0-33.5,0-67,0-100.5C367.9,359.1,367.7,356.7,369.5,354.8z"/>
	<path class="st224" d="M362,354.8c1.4,0,2.9,0,4.3,0c1.8,1.9,1.6,4.3,1.6,6.6c0,33.5,0,67,0,100.6c0,2.3,0.2,4.7-1.6,6.6
		c-1.4,0-2.9,0-4.3,0c-1.8-1.9-1.6-4.3-1.6-6.6c0-33.5,0-67,0-100.6C360.4,359.1,360.2,356.7,362,354.8z"/>
	<path class="st234" d="M366.3,468.5c0-37.9,0-75.8,0-113.7c0.3,0,0.7,0,1,0c0.7,0,1.5,0,2.2,0c0,37.9,0,75.8,0,113.7
		C368.5,468.5,367.4,468.5,366.3,468.5z"/>
	<path class="st70" d="M252.1,446c-0.7,2.9-0.6,5.9-2.1,8.6c-0.5,0.2-0.9,0.1-1.3-0.3c-0.3-0.4-0.4-0.9-0.6-1.4
		c-0.3-2.7,0-5.2,2.5-6.9C251.1,445.7,251.6,445.7,252.1,446z"/>
	<path class="st177" d="M249.5,454.5l0.5,0c0,3-0.9,5.8-2.2,8.5l-0.4,0.1C244.5,459.6,245.1,457.2,249.5,454.5z"/>
	<path class="st177" d="M252.1,446l-0.5,0c-3-1.3-1.6-3.3-0.8-5.2c0.4-0.4,0.9-0.5,1.4-0.2c0.4,0,0.8,0,1.2,0.1
		C253.7,442.6,253.1,444.3,252.1,446z"/>
	<path class="st175" d="M252.3,440.5c-0.3,0-0.6,0.1-0.8,0.1c-3.1-0.4-3.1-3-3.6-5.1c-0.5-2.1-0.2-4.3-0.2-6.4
		c0-35.3-0.1-70.5,0-105.8c0-2.9,0-5.7-0.8-8.5c0.3-11.7,2.1-23.3,4.2-34.8c0.3-1.6,0.8-3.1,2.6-3.8c0.4-0.2,0.7-0.1,1,0.1
		c0,46.6,0,93.2,0.2,139.8c0,0.5-3.2,5.5,2.1,2.9c0,0.3,0.1,0.7,0.1,1c0.5,1.6-2.1,2.5-1.1,4.3c0.6,1.7-2.1,2.5-1.1,4.3
		c-0.3,1.4-0.7,2.9-1,4.3C252.4,435.4,252.8,438.1,252.3,440.5z"/>
	<path class="st54" d="M249.5,454.5c-1.9,2.6-3.8,5.2-2.1,8.6c-2.7,1.3-0.5,5.3-3.4,6.4c-4.2,0.9-2.2-2.5-2.2-3.7
		c-0.1-19.7-0.1-39.3-0.1-59c0-13.2-0.5-26.5-0.1-39.7c0.1-4.2-0.3-8.3,0.1-12.4c-2.7-4,0-7.9,0-11.9c0.7-2,0.5-4.1,1-6
		c0.3-1.3,0.5-3.4,2.8-2c1.9,2.8,2.1,6,2.1,9.3c0,34.5-0.1,68.9,0.1,103.4c0,2.1-0.5,4.3,1.4,6C249.2,453.8,249.3,454.2,249.5,454.5
		z"/>
	<path class="st235" d="M297.5,276.5c-5-2.9-2.7-7.7-3.2-11.8c0.7-1.8,1.5-3.6,2.2-5.3c3.4,4.2,4.6,9.6,7.4,14.2
		C303.6,278.5,300.4,277.1,297.5,276.5z"/>
	<path class="st236" d="M349.3,232.6c0.7-1,1.4-2,2.2-3.1c2.4-0.8,4.8-1.5,7.1-2.3c0.8,0.6,0.6,1.4,0.6,2.2c-0.1,2-1.1,3.7-1.3,5.7
		c-1.2,4-3.3,6.3-7.7,3.9C349.4,236.9,351.8,234.4,349.3,232.6z"/>
	<path class="st237" d="M297.5,276.5c2.8,0.5,5-0.4,6.4-2.9c1.5,0.8,1.9,2.2,2.2,3.7c-0.9,1.3-2,1.2-3.2,0.4c-2.8,0-5.6,0-8.5,0
		C295.1,276.2,296.4,276.6,297.5,276.5z"/>
	<path class="st238" d="M350.2,239c3.9,0.8,6.2-0.8,7.4-4.5c0.7,0.1,0.7,0.8,1,1.2c-0.3,1.1-0.6,2.1-0.9,3.2c-2.2,2-4.6,3.1-7.5,1.2
		C350.2,239.7,350.2,239.3,350.2,239z"/>
	<path class="st239" d="M302.9,277.6c1.1-0.1,2.1-0.2,3.2-0.4c0.4,0.2,0.7,0.4,1.1,0.5c-0.1,0.2-0.1,0.5-0.1,0.7
		c-0.7,1.1-1,2.8-2.9,2.3c-0.4,0-0.9-0.1-1.3-0.1C301.3,279.6,301.5,278.6,302.9,277.6z"/>
	<path class="st240" d="M356.8,315.2c3.5-0.6,3.2,1.7,2.9,3.9C355.9,319.9,356.7,317.3,356.8,315.2z"/>
	<path class="st241" d="M358.6,235.7c-0.3-0.4-0.7-0.8-1-1.2c0.2-1.8-0.3-3.8,1-5.4c0.7,0.4,0.8,0.9,0.5,1.6
		c0.3-0.5,0.2-1.3,0.9-1.6c1.2,2,1.8,4.1,2.1,6.3c0.4,0.5,0.4,1-0.1,1.4c-0.4-0.6-0.8-1.1-1.3-1.6c-0.5-0.5-0.4-1.9-1.5-1.5
		C358.8,233.8,358.8,235,358.6,235.7z"/>
	<path class="st242" d="M361,268.1c-1.6-0.2-2.4-1.2-2.2-2.8c0.3-1.9,1.7-1.8,3.1-1.4C362,265.4,362.2,266.9,361,268.1z"/>
	<path class="st243" d="M360.9,248.6c-1.6,0.1-2.9-0.4-2.9-2.1c0-1.8,1.2-2.3,2.8-2.1C360.9,245.8,360.9,247.2,360.9,248.6z"/>
	<path class="st244" d="M365.2,238c2.3,0.6,4.6-1.1,6.9-0.1c-0.9,0.7-1.8,1.3-2.7,2c-1.3-0.7-2.9,0-4.2-0.6
		c-0.3-0.3-0.4-0.5-0.3-0.8C365,238.1,365.1,238,365.2,238z"/>
	<path class="st245" d="M365.2,238c0,0.3,0,0.6,0,0.9c-0.3,0.4-0.7,0.4-1,0c-0.7-0.7-1.5-1.4-2.2-2.1c0-0.5,0.1-1,0.1-1.4
		C363.1,236.3,364.2,237.1,365.2,238z"/>
	<path class="st241" d="M364.2,239c0.3,0,0.7,0,1,0c1.4,0.2,3-0.5,4.2,0.9C367.6,240,365.7,240.6,364.2,239z"/>
	<path class="st246" d="M360.8,340.9c0,1.7-0.6,2.8-2.1,2.9c-1.2,0.1-2-0.4-2.1-1.8c-0.1-1.6,0.4-2.9,2.2-3
		C360.1,339.1,360.4,340.2,360.8,340.9z"/>
	<path class="st247" d="M322.3,210c2.5-4-2.1-6.3-2.3-9.6c1.4-0.3,2-2.3,4.2-1c9.2,5.4,16.4,13.1,24.1,20.2c1,1,1.2,2.8,1.8,4.2
		c0.1,0.4,0.1,0.8,0.2,1.2c-2.2,3-4.9,5.4-8.6,6.5c0.2-3-1-5.2-3.3-7.1C332.9,219.7,328.8,213.5,322.3,210z"/>
	<path class="st248" d="M360,229.1c-0.2,0.5-0.3,1.3-0.5,1.3c-0.9,0.1-0.6-0.9-0.9-1.3c0-0.6,0-1.3,0-1.9c0.4-0.4,0.8-0.7,1.1-1.1
		C359.8,227.1,359.9,228.1,360,229.1z"/>
	<path class="st249" d="M236.7,265.8c-0.4,2-1.4,2.6-3,3C234,267,235,266.4,236.7,265.8z"/>
	<path class="st96" d="M242.7,343c-0.4,3.9-0.7,7.9-1.1,11.8c-2.8,7-1.6,14.6-3.2,21.8c-0.2,1-0.1,2.1-1.1,2.9
		c-2.1-34.9-1.1-69.8-0.6-104.6c0-0.5-0.3-1-0.5-1.5c3.8-0.3,6.9,2.7,10.7,2.1c0.3,0.7,0.2,1.3-0.4,1.8c-2.6,1.3-2.3,3.7-2.3,6
		c-0.1,13.7,0.1,27.5,0,41.2C244.4,330.7,243.3,336.8,242.7,343z"/>
	<path class="st250" d="M247,276.5c0-0.3,0-0.7,0-1c2.2,0,4.4-0.2,6.5,0.9c-2.5,8.5-3,17.4-4.3,26.1c-0.5,3.8-1.7,7.6-1.2,11.6
		c-0.6,0.3-1.1,0.3-1.6-0.2c-1.9-2-2-4.5-2-7c-0.1-7.9-0.1-15.7,0-23.6C244.5,280.7,244.6,278.1,247,276.5z"/>
	<path class="st251" d="M290,267.9c-0.1,2.7-1.1,5.6,1.9,8.6c-3.7,0-6.5,0-9.4,0C282.1,271.1,287.3,270.5,290,267.9z"/>
	<path class="st252" d="M271.8,277.7c0.4,0,0.7,0,1.1,0c1.9,0.8,3.9,0.2,5.9,0.4c1.3,0.3,3-0.8,4,1c-1.5,3.3-2,6.8-1.9,10.4
		c0.3,10.3-0.4,20.7,0.4,31c0,1.4,0,2.8,0,4.2c-1.1,1.3-1.1,2.8-1,4.4c-1.1,2.7-2.7,5.4-1.9,8.6c-1.1,2.9-2.2,5.7-3.3,8.6
		c-0.1,1.5-0.2,2.9-0.3,4.4c-3.7,1.2-3.1-1.5-3.1-3.5C271.8,323.9,271.8,300.8,271.8,277.7z"/>
	<path class="st97" d="M281.3,320.5c-2.6-0.5-1.9-2.6-2-4.3c0-10.7,0.1-21.5-0.1-32.2c-0.1-2.9,1.3-4.1,3.3-5.3
		c3-1.1,6.1-0.4,9.2-0.4c1.6,1.1,0.8,2.4,0.3,3.6c-0.8,2.8-3,5.3-2.2,8.6c-1,2.8-2.8,5.4-2.1,8.6c-0.7,2.5-1.4,5-2.1,7.5
		c-1.8,1.5-0.9,3.6-1.1,5.4c-0.6,1.8-1.2,3.6-1.7,5.3C283.1,318.7,281.8,319.4,281.3,320.5z"/>
	<path class="st253" d="M304.2,280.8c1-0.8,2-1.5,2.9-2.3c0,0.4,0.1,0.8,0.1,1.3c0.4,1.4-0.5,2.3-1.1,3.2
		C303.2,284.2,304.1,282.2,304.2,280.8z"/>
	<path class="st254" d="M306.1,283c0.4-1.1,0.7-2.2,1.1-3.2c1.8,1.9,0,3-1.1,4.2C306.1,283.7,306.1,283.4,306.1,283z"/>
	<path class="st255" d="M292.1,281.9c-1.7-0.8,0.6-1.4,0.2-2.1c0.5-0.6,0.2-1.6,0.9-2.1c0.4,0,0.8,0,1.2,0c0.2,1.6-0.5,2.9-1.3,4.2
		C292.7,281.9,292.4,281.9,292.1,281.9z"/>
	<path class="st226" d="M350.2,355.9c0,34.2,0,68.4,0,102.7c0,2.3,0.2,4.7-1.1,6.8c-1.4-1-1.1-2.5-1.1-3.9c1.1-34,1.2-68,1.1-102.1
		C349.1,358,349,356.7,350.2,355.9z"/>
	<path class="st239" d="M293.1,277.7c-0.3,0.7-0.6,1.4-0.9,2.1c-3-2.3-6.5-0.7-9.7-1.1c-1.4,0-2.9,0-4.3,0c-0.3-0.2-0.5-0.4-0.4-0.6
		c0.1-0.2,0.2-0.3,0.3-0.3C283.2,277.7,288.1,277.7,293.1,277.7z"/>
	<path class="st97" d="M278.2,277.8c0,0.3,0,0.6,0,0.9c-1.8-0.2-3.8,0.7-5.3-0.9C274.6,277.7,276.4,277.8,278.2,277.8z"/>
	<path class="st173" d="M362,354.8c0,37.9,0,75.8,0,113.7c-4.2,0.2-3.2-3-3.2-5.2c0-31.4,0-62.8,0-94.1c0-3.6,0.1-7.1,0-10.7
		C358.7,356.1,359.3,354.6,362,354.8z"/>
	<path class="st256" d="M247,314c0.4,0,0.7,0,1.1,0c0.9,2.9,1.1,5.9,1.1,8.9c0,36.2,0,72.4,0,108.6c0,3.2-0.1,6.4,2.2,9
		c0.7,1.7-1.6,3.6,0.2,5.3c-2.3,2-2.5,4.7-2.6,7.5c-4.4,1.2-3-2.1-3-4c-0.1-27.3,0-54.7-0.1-82c0-11,0.9-22.1-1-33.1
		C243.8,327.4,243.3,320.5,247,314z"/>
	<path class="st257" d="M247,314c-0.7,6.8-1.4,13.6-2.2,20.4c-2.6,2.4,0.4,6.2-2.1,8.6c0-20.6,0.1-41.2-0.1-61.8
		c0-3.2,0.6-5.2,4.3-4.7c1,0,2,0,3.1,0c-4,0.5-4.4,3.1-4.2,6.3C246.6,293.2,244.8,303.7,247,314z"/>
</g>
</svg>
