<svg xmlns="http://www.w3.org/2000/svg" xmlns:xlink="http://www.w3.org/1999/xlink" width="677.535" height="560.086" viewBox="0 0 677.535 560.086">
  <defs>
    <linearGradient id="linear-gradient" x1="0.5" y1="1" x2="0.5" gradientUnits="objectBoundingBox">
      <stop offset="0" stop-color="gray" stop-opacity="0.251"/>
      <stop offset="0.535" stop-color="gray" stop-opacity="0.122"/>
      <stop offset="1" stop-color="gray" stop-opacity="0.102"/>
    </linearGradient>
    <linearGradient id="linear-gradient-3" x1="0.5" y1="1" x2="0.5" y2="0" xlink:href="#linear-gradient"/>
  </defs>
  <g id="undraw_Hello_qnas" transform="translate(3.535)">
    <path id="Pfad_8" data-name="Pfad 8" d="M166.936,651.941c0,33.864,20.132,45.69,44.965,45.69.578,0,1.153-.006,1.725-.022,1.15-.025,2.291-.075,3.416-.156,22.414-1.585,39.827-14.019,39.827-45.512,0-32.589-41.639-73.713-44.78-76.766l-.006,0c-.119-.119-.181-.178-.181-.178S166.936,618.074,166.936,651.941Z" transform="translate(404.307 -201.385)" fill="#1d8981"/>
    <path id="Pfad_9" data-name="Pfad 9" d="M220.3,692.45,203.854,669.47l16.488,25.5.044,2.638c1.15-.025,2.291-.075,3.416-.156l-1.772-33.88.013-.262-.031-.05-.166-3.2,16.529-25.567L221.8,657.66l-.041.678-1.341-25.6,14.151-26.417-14.323,21.92-1.394-53.068-.006-.181v.178l.231,41.849-14.085-16.591,14.144,20.195.372,22.92-13.154-21.995,13.21,25.37.206,12.741-19.095-30.617,19.166,35.064Z" transform="translate(397.546 -201.385)" fill="#f2f2f2"/>
    <g id="Gruppe_5" data-name="Gruppe 5" transform="translate(39.109 205.039)" opacity="0.7">
      <path id="Pfad_10" data-name="Pfad 10" d="M939.914,357.958V349.8h40.779v37.72a7.952,7.952,0,0,1-7.952,7.952H947.866a7.952,7.952,0,0,1-7.952-7.952v-8.359a10.6,10.6,0,0,1,0-21.2Zm0,17.127V362.036a6.525,6.525,0,1,0,0,13.049Z" transform="translate(-929.312 -349.802)" fill="url(#linear-gradient)"/>
    </g>
    <path id="Pfad_11" data-name="Pfad 11" d="M978.784,362.4a9.68,9.68,0,1,1-9.681,9.68,9.68,9.68,0,0,1,9.681-9.68Zm0,15.638a5.957,5.957,0,1,0-5.958-5.957,5.957,5.957,0,0,0,5.958,5.957Z" transform="translate(-927.76 -147.932)" fill="#2ac7bb"/>
    <path id="Pfad_12" data-name="Pfad 12" d="M978.784,362.4a9.68,9.68,0,1,1-9.681,9.68,9.68,9.68,0,0,1,9.681-9.68Zm0,15.638a5.957,5.957,0,1,0-5.958-5.957,5.957,5.957,0,0,0,5.958,5.957Z" transform="translate(-927.76 -147.932)" fill="#2ac7bb" opacity="0.1"/>
    <path id="Pfad_13" data-name="Pfad 13" d="M819.725,276.563H782.493v34.4a7.3,7.3,0,0,0,7.3,7.3h22.635a7.3,7.3,0,0,0,7.3-7.3Z" transform="translate(-731.47 -69.538)" fill="#2ac7bb"/>
    <path id="Pfad_14" data-name="Pfad 14" d="M967.106,352.455v34.44a7.26,7.26,0,0,0,7.26,7.26h-3.723a7.26,7.26,0,0,1-7.26-7.26v-34.44Z" transform="translate(-909.381 -145.431)" opacity="0.1"/>
    <path id="Pfad_15" data-name="Pfad 15" d="M969.53,315.053a2.174,2.174,0,0,1,1.644.835c.489.885-.4,1.884-1.2,2.492a16.019,16.019,0,0,0-4.079,3.8,4.76,4.76,0,0,0-.224,5.261c1.448,1.963,4.9,2.385,5.236,4.8.215,1.551-1.127,2.875-2.485,3.653-3.354,1.921-7.677,2.434-10.106,5.44-1.005-2.066-3.253-3.261-5.493-3.771s-4.568-.472-6.84-.818a2.365,2.365,0,0,1-1.887-1c-.635-1.289,1.175-2.834.55-4.128-.476-.985-1.872-.908-2.892-1.3-1.661-.642-2.345-2.779-1.874-4.5a8.466,8.466,0,0,1,3.2-4.159,35.871,35.871,0,0,1,12.9-5.962c2.134-.583,4.639-1.5,6.856-1.586A34.263,34.263,0,0,1,969.53,315.053Z" transform="translate(-888.622 -135.787)" fill="#eee"/>
    <line id="Linie_11" data-name="Linie 11" x2="77.85" y2="242.534" transform="translate(342.231 257.518)" fill="none" stroke="#e0e0e0" stroke-miterlimit="10" stroke-width="8"/>
    <g id="Gruppe_6" data-name="Gruppe 6" transform="translate(271.866 0)" opacity="0.7">
      <path id="Pfad_16" data-name="Pfad 16" d="M351.224,603.26c9.576.555,18.107,8.578,18.107,8.578l4.125-10.233.337.11c-2.015-8.822-43.017-190.673-1.972-206.351,31.539-12.047,64.993-26.954,91.2-26.394V326.009H426.279v-1.531H397.188c-5.577-3.983,2.526-6.722,11.583-8.434a8.275,8.275,0,0,1-.971-1.369l-46.592-83.593s-10.718-17.607-3.828-26.028,16.842,21.435,16.842,21.435L412.5,281.608s38.632-40.266,63.208-60.29a43.018,43.018,0,0,1,9.148-6.914c4.486-3.035,7.882-4.608,9.557-3.991.017.006.031.017.048.023a42.886,42.886,0,0,1,11.435-1.554h3.062V202.6a49.112,49.112,0,0,1-30.337-28.746,55.166,55.166,0,0,1-4.372-48.034,3.187,3.187,0,0,1-1.289-.446c-1.386-.893-1.524-2.845-1.39-4.488a34.1,34.1,0,0,1,17.308-26.663c3.879-2.121,8.321-3.582,11.181-6.953,2.458-2.9,3.49-6.947,6.464-9.311,3.533-2.808,8.637-2.325,12.972-1.072a47.2,47.2,0,0,1,13.54,6.389c4.69,3.212,8.922,7.338,14.321,9.116,3.836,1.263,8,1.238,11.857,2.425a19.915,19.915,0,0,1,12.813,12.5,26.011,26.011,0,0,1,1.1,9.767,54.8,54.8,0,0,1,5.5,12.51c.289.156.579.309.865.47l-.839-.377a55.107,55.107,0,0,1-15.527,56.209A49.07,49.07,0,0,1,539.579,202.6v7.6a57.888,57.888,0,0,1,18.789,7.695l.008-.01s.489.3,1.325.865l.251.17c5.665,3.845,24.647,17.893,24.006,33.074q.038.875-.01,1.756a58.369,58.369,0,0,1,1.564,13.387V377.3A54.1,54.1,0,0,1,573.9,410.856c15.975,3.581,26.156,9,26.156,15.057a4.905,4.905,0,0,0,0,1.531c0,10.781-32.218,19.521-71.961,19.521-4.805,0-9.5-.129-14.041-.373l-44.906,36.353,71.961,115.6s23.732,18.373,5.359,24.5-55.885,10.718-55.885,10.718-6.124-10.718,2.3-15.311,19.9-2.3,19.9-2.3l-1.531-9.187S386.471,499.787,412.5,463.041c4.98-7.03,9.959-14.284,14.982-21.424l-19.643,1.79-4.47,168.245-.559-.182c1.122,3.305,9.059,28.25-8.533,24.029-18.832-4.519-53.1-20.459-53.1-20.459S341.648,602.7,351.224,603.26Zm75.055-289.5,36.746-10.668V271.655l-39.939,42.4C425.05,313.855,426.279,313.76,426.279,313.76Z" transform="translate(-341.177 -75.892)" fill="url(#linear-gradient)"/>
    </g>
    <ellipse id="Ellipse_2" data-name="Ellipse 2" cx="53.896" cy="53.897" rx="53.896" ry="53.897" transform="translate(401.367 20.223)"/>
    <path id="Pfad_17" data-name="Pfad 17" d="M580.518,319.75l-41.132,43.663a8.036,8.036,0,0,1-12.868-1.6l-45.559-81.739,12.726-4.491,37.428,53.9s70.265-73.237,80.1-69.616S580.518,319.75,580.518,319.75Z" transform="translate(-186.636 -122.117)" fill="#ecb81f"/>
    <line id="Linie_12" data-name="Linie 12" x2="60.634" y2="157.198" transform="translate(472.48 348.842)" fill="none" stroke="#bdbdbd" stroke-miterlimit="10" stroke-width="5"/>
    <line id="Linie_13" data-name="Linie 13" x1="60.634" y2="157.198" transform="translate(381.904 348.842)" fill="none" stroke="#bdbdbd" stroke-miterlimit="10" stroke-width="5"/>
    <ellipse id="Ellipse_3" data-name="Ellipse 3" cx="70.365" cy="19.088" rx="70.365" ry="19.088" transform="translate(387.144 330.877)" fill="#b84733"/>
    <ellipse id="Ellipse_4" data-name="Ellipse 4" cx="70.365" cy="19.088" rx="70.365" ry="19.088" transform="translate(387.144 329.38)" fill="#f55f44"/>
    <line id="Linie_14" data-name="Linie 14" x1="66.39" y2="20.458" transform="translate(420.728 383.379)" fill="none" stroke="#bdbdbd" stroke-miterlimit="10" stroke-width="5"/>
    <line id="Linie_15" data-name="Linie 15" x2="66.39" y2="20.458" transform="translate(427.9 383.379)" fill="none" stroke="#bdbdbd" stroke-miterlimit="10" stroke-width="5"/>
    <path id="Pfad_18" data-name="Pfad 18" d="M277.018,182.016H256.129a41.919,41.919,0,0,0-41.92,41.92V334.723h119.77V238.978a56.962,56.962,0,0,0-56.962-56.962Z" transform="translate(179.672 -45.766)" fill="#ecb81f"/>
    <path id="Pfad_19" data-name="Pfad 19" d="M333.979,386.016H214.209v65.125h66.622a53.148,53.148,0,0,0,53.148-53.148V386.016Z" transform="translate(179.672 -97.059)" fill="#35363a"/>
    <path id="Pfad_20" data-name="Pfad 20" d="M520.1,306.312,446.859,375.9H366.014v-10.48l69.616-20.211,59.55-73.539S522.222,288.375,520.1,306.312Z" transform="translate(-8.063 -125.118)" opacity="0.05"/>
    <path id="Pfad_21" data-name="Pfad 21" d="M520.1,304.312,446.859,373.9H366.014v-10.48l69.616-20.211,59.55-73.539S522.222,286.375,520.1,304.312Z" transform="translate(-8.063 -124.615)" fill="#ecb81f"/>
    <path id="Pfad_22" data-name="Pfad 22" d="M602.249,394.908s-38.925,2.994-28.445,10.48h28.445Z" transform="translate(-244.298 -156.105)" fill="#fda57d"/>
    <path id="Pfad_23" data-name="Pfad 23" d="M658.739,273.376s-9.731-29.194-16.468-20.96,3.743,25.451,3.743,25.451Z" transform="translate(-351.691 -119.909)" fill="#fda57d"/>
    <path id="Pfad_24" data-name="Pfad 24" d="M333.979,386.016v3.494l-119.77.249v-3.743Z" transform="translate(179.672 -97.059)" opacity="0.05"/>
    <path id="Pfad_25" data-name="Pfad 25" d="M609.766,532.465,529.2,539.807,524.83,704.321l-28.843-9.39s-43.137-186.391-2-202.1,85.6-36.4,112.144-19.539S609.766,532.465,609.766,532.465Z" transform="translate(-189.283 -174.233)" fill="#35363a"/>
    <path id="Pfad_26" data-name="Pfad 26" d="M545.166,486.908S501,509.365,495.012,534.816" transform="translate(-129.576 -179.237)" opacity="0.1"/>
    <path id="Pfad_27" data-name="Pfad 27" d="M543.776,532.065l-62.878,50.9L551.263,696l-29.194,8.234S400.053,599.435,425.5,563.5s50.9-77.85,82.342-78.6S543.776,532.065,543.776,532.065Z" transform="translate(-81.028 -178.731)" fill="#35363a"/>
    <path id="Pfad_28" data-name="Pfad 28" d="M433.672,251.016l-15.72,26.948-3.743-7.486Z" transform="translate(-69.733 -63.115)" opacity="0.05"/>
    <path id="Pfad_29" data-name="Pfad 29" d="M457.408,766.908s23.205,17.966,5.24,23.954S408,801.342,408,801.342s-5.989-10.48,2.246-14.971,19.463-2.246,19.463-2.246l-1.5-8.983Z" transform="translate(12.827 -249.639)" fill="#333"/>
    <path id="Pfad_30" data-name="Pfad 30" d="M659.217,780.2S669.41,808.47,651,804.051s-51.92-20.006-51.92-20.006.46-12.061,9.824-11.519,17.706,8.387,17.706,8.387l4.034-10.006Z" transform="translate(-324.34 -250.645)" fill="#333"/>
    <rect id="Rechteck_11" data-name="Rechteck 11" width="29.942" height="44.914" rx="14.971" transform="translate(438.795 110.051)" fill="#fda57d"/>
    <path id="Pfad_31" data-name="Pfad 31" d="M438.983,224.908a14.971,14.971,0,0,1,14.971,14.971v5.087a47.912,47.912,0,0,1-29.942,0v-5.087a14.971,14.971,0,0,1,14.971-14.971Z" transform="translate(14.783 -113.36)" opacity="0.05"/>
    <ellipse id="Ellipse_5" data-name="Ellipse 5" cx="47.908" cy="47.908" rx="47.908" ry="47.908" transform="translate(405.858 36.692)" fill="#fda57d"/>
    <path id="Pfad_32" data-name="Pfad 32" d="M469.058,168.128s-11.977,3.087-18.714-10.526-11.977-21.038-39.674-12.994-33.268,9.025-34.6,1.419c-.91-5.2,8.939-17.823,15.267-25.3a17.723,17.723,0,0,1,13.51-5.822h31.273l18.714,8.663,14.223,12.375,2.994,16.706Z" transform="translate(32.616 -85.702)" opacity="0.05"/>
    <path id="Pfad_33" data-name="Pfad 33" d="M469.058,166.128s-11.977,3.087-18.714-10.526-11.977-21.038-39.674-12.994-33.268,9.025-34.6,1.419c-.91-5.2,8.939-17.823,15.267-25.3a17.723,17.723,0,0,1,13.51-5.822h31.273l18.714,8.663,14.223,12.375,2.994,16.706Z" transform="translate(32.616 -85.199)"/>
    <ellipse id="Ellipse_6" data-name="Ellipse 6" cx="4.866" cy="9.731" rx="4.866" ry="9.731" transform="translate(491.943 71.126)" fill="#fda57d"/>
    <path id="Pfad_34" data-name="Pfad 34" d="M469.97,133.8c1.11-6.266,2.2-12.847.18-18.881A19.473,19.473,0,0,0,457.621,102.7c-3.775-1.16-7.843-1.136-11.594-2.371-5.279-1.738-9.417-5.773-14-8.914a46.155,46.155,0,0,0-13.24-6.248c-4.239-1.225-9.23-1.7-12.685,1.048-2.908,2.311-3.918,6.272-6.321,9.1-2.8,3.3-7.14,4.725-10.933,6.8a33.345,33.345,0,0,0-16.925,26.071c-.131,1.607,0,3.516,1.359,4.389a4.853,4.853,0,0,0,2.73.5c19.147-.274,38.317-.548,57.386-2.306,5.928-.546,11.867-1.237,17.816-1.011a58.279,58.279,0,0,1,26.233,7.4" transform="translate(30.316 -77.979)"/>
    <rect id="Rechteck_12" data-name="Rechteck 12" width="115.342" height="49.082" rx="24.541" transform="translate(558.658 483.023)" fill="#774c3c"/>
    <path id="Pfad_35" data-name="Pfad 35" d="M725.315,486.321A1.124,1.124,0,1,1,726.4,485.2,1.124,1.124,0,0,1,725.315,486.321Z" transform="translate(-482.394 -178.525)" fill="url(#linear-gradient-3)"/>
    <line id="Linie_16" data-name="Linie 16" x1="77.85" y2="277.037" transform="translate(0.316 257.518)" fill="none" stroke="#e0e0e0" stroke-miterlimit="10" stroke-width="8"/>
    <rect id="Rechteck_13" data-name="Rechteck 13" width="420.397" height="16.382" transform="translate(0 249.405)" fill="#e0e0e0"/>
    <rect id="Rechteck_14" data-name="Rechteck 14" width="68.868" height="9.731" rx="4.866" transform="translate(247.912 245.541)" fill="#535461"/>
    <g id="Gruppe_7" data-name="Gruppe 7" transform="translate(103.695 137.045)" opacity="0.7">
      <rect id="Rechteck_15" data-name="Rechteck 15" width="171.165" height="118.348" rx="28.22" fill="url(#linear-gradient)"/>
    </g>
    <rect id="Rechteck_16" data-name="Rechteck 16" width="162.145" height="116.165" rx="26.835" transform="translate(109.663 139.228)" fill="#3e3f49"/>
    <rect id="Rechteck_17" data-name="Rechteck 17" width="162.145" height="116.165" rx="26.835" transform="translate(107.417 139.228)" fill="#535461"/>
    <g id="Logo" transform="translate(168.5 178.546)">
      <path id="Pfad_1" data-name="Pfad 1" d="M-30.278-12.141l-1.833-2.166-1.4-1.654c-4.2.529-7.261,2.038-7.261,3.839,0,2.24,4.7,4.056,10.493,4.056s10.493-1.815,10.493-4.056c0-1.8-3.058-3.31-7.261-3.839l-1.4,1.654Z" transform="translate(49.783 52.078)" fill="#f8f8f8"/>
      <path id="Pfad_2" data-name="Pfad 2" d="M-34.2-66.313a6.147,6.147,0,0,1-7.861-3.636,6.069,6.069,0,0,1,3.666-7.8,6.147,6.147,0,0,1,7.861,3.636,6.069,6.069,0,0,1-3.666,7.8m20.74-14.8a9.8,9.8,0,0,0-3.334-.586,9.77,9.77,0,0,0-8.271,4.593c.135.294.292.574.4.88a12.166,12.166,0,0,1,.628,2.788c1.138-2.292,4.339-4.807,7.238-4.7a6.2,6.2,0,0,1,2.107.371A6.105,6.105,0,0,1-11-69.939a6.179,6.179,0,0,1-1.211,2.005l-14.33,16.942V-71.811a9.522,9.522,0,0,0-.588-3.526,9.64,9.64,0,0,0-3.629-4.656,9.852,9.852,0,0,0-4.057-1.6A9.759,9.759,0,0,0-36.3-81.7a9.8,9.8,0,0,0-3.334.586,9.649,9.649,0,0,0-5.828,12.4,9.576,9.576,0,0,0,1.838,3.08l17.076,20.184,17.08-20.188a9.582,9.582,0,0,0,1.834-3.076,9.649,9.649,0,0,0-5.828-12.4" transform="translate(46.048 81.703)" fill="#f8f8f8"/>
    </g>
  </g>
</svg>
