<?xml version="1.0" encoding="utf-8"?>
<!-- Generator: Adobe Illustrator 25.3.1, SVG Export Plug-In . SVG Version: 6.00 Build 0)  -->
<svg version="1.1" id="Layer_1" xmlns="http://www.w3.org/2000/svg" xmlns:xlink="http://www.w3.org/1999/xlink" x="0px" y="0px"
	 viewBox="0 0 133 136.3" style="enable-background:new 0 0 133 136.3;" xml:space="preserve">
<style type="text/css">
	.st0{enable-background:new    ;}
	.st1{fill:#111111;}
</style>
<g>
	<g class="st0">
		<path class="st1" d="M5,136l-5-20.8h4.3l3.1,14.3l3.8-14.3h5l3.6,14.5l3.2-14.5h4.2l-5,20.8h-4.4l-4.1-15.5L9.5,136H5z"/>
		<path class="st1" d="M29.1,118.9v-3.7h4v3.7H29.1z M29.1,136v-15h4v15H29.1z"/>
		<path class="st1" d="M41,136h-4v-15h3.7v2.1c0.6-1,1.2-1.7,1.7-2c0.5-0.3,1.1-0.5,1.7-0.5c0.9,0,1.8,0.2,2.6,0.8l-1.2,3.5
			c-0.7-0.4-1.3-0.7-1.9-0.7c-0.6,0-1,0.2-1.4,0.5s-0.7,0.9-0.9,1.7c-0.2,0.8-0.3,2.5-0.3,5V136z"/>
		<path class="st1" d="M48.5,136v-20.8h4.2v8.2h8.2v-8.2h4.2V136h-4.2v-9.1h-8.2v9.1H48.5z"/>
		<path class="st1" d="M78.1,131.2l4,0.7c-0.5,1.5-1.3,2.6-2.4,3.3c-1.1,0.8-2.5,1.1-4.1,1.1c-2.6,0-4.6-0.9-5.8-2.6
			c-1-1.4-1.5-3.1-1.5-5.2c0-2.5,0.7-4.4,2-5.9s3-2.1,4.9-2.1c2.2,0,4,0.7,5.3,2.2c1.3,1.5,1.9,3.7,1.9,6.8h-10c0,1.2,0.3,2.1,1,2.8
			c0.6,0.7,1.4,1,2.3,1c0.6,0,1.1-0.2,1.6-0.5S77.9,132,78.1,131.2z M78.3,127.2c0-1.2-0.3-2-0.9-2.6s-1.3-0.9-2.1-0.9
			c-0.9,0-1.6,0.3-2.2,0.9s-0.8,1.5-0.8,2.6H78.3z"/>
		<path class="st1" d="M85.5,136v-20.8h4V136H85.5z"/>
		<path class="st1" d="M91.8,121H94v-1.1c0-1.3,0.1-2.2,0.4-2.8c0.3-0.6,0.8-1.1,1.5-1.5c0.7-0.4,1.6-0.6,2.7-0.6
			c1.1,0,2.2,0.2,3.3,0.5l-0.5,2.8c-0.6-0.2-1.2-0.2-1.8-0.2c-0.6,0-1,0.1-1.2,0.4c-0.3,0.3-0.4,0.8-0.4,1.6v1.1h3v3.1h-3V136h-4
			v-11.9h-2.2V121z"/>
		<path class="st1" d="M111.9,131.2l4,0.7c-0.5,1.5-1.3,2.6-2.4,3.3c-1.1,0.8-2.5,1.1-4.1,1.1c-2.6,0-4.6-0.9-5.8-2.6
			c-1-1.4-1.5-3.1-1.5-5.2c0-2.5,0.7-4.4,2-5.9s3-2.1,4.9-2.1c2.2,0,4,0.7,5.3,2.2c1.3,1.5,1.9,3.7,1.9,6.8h-10c0,1.2,0.3,2.1,1,2.8
			c0.6,0.7,1.4,1,2.3,1c0.6,0,1.1-0.2,1.6-0.5S111.7,132,111.9,131.2z M112.2,127.2c0-1.2-0.3-2-0.9-2.6s-1.3-0.9-2.1-0.9
			c-0.9,0-1.6,0.3-2.2,0.9s-0.8,1.5-0.8,2.6H112.2z"/>
		<path class="st1" d="M133,136h-4v-7.7c0-1.6-0.1-2.7-0.3-3.2s-0.4-0.8-0.8-1.1c-0.4-0.3-0.8-0.4-1.4-0.4c-0.7,0-1.3,0.2-1.9,0.6
			c-0.5,0.4-0.9,0.9-1.1,1.5s-0.3,1.8-0.3,3.5v6.8h-4v-15h3.7v2.2c1.3-1.7,3-2.5,5-2.5c0.9,0,1.7,0.2,2.4,0.5
			c0.7,0.3,1.3,0.7,1.6,1.2c0.4,0.5,0.6,1,0.8,1.7s0.2,1.5,0.2,2.7V136z"/>
	</g>
	<g id="logo-2" transform="translate(398.375 28)">
		<path id="Pfad_1" class="st1" d="M-330.6,54.5l-3.8-4.5l-2.9-3.4c-8.7,1.1-15,4.2-15,7.9c0,4.6,9.7,8.4,21.7,8.4
			c12,0,21.7-3.7,21.7-8.4c0-3.7-6.3-6.8-15-7.9l-2.9,3.4L-330.6,54.5z"/>
		<path id="Pfad_2" class="st1" d="M-346.5,3.8c-6.6,2.4-13.8-1-16.2-7.5c-2.4-6.5,1-13.7,7.5-16.1c0,0,0.1,0,0.1,0
			c6.6-2.4,13.8,1,16.2,7.5C-336.5-5.8-339.9,1.4-346.5,3.8C-346.4,3.8-346.4,3.8-346.5,3.8 M-303.6-26.8c-2.2-0.8-4.5-1.2-6.9-1.2
			c-6.9,0-13.4,3.6-17.1,9.5c0.3,0.6,0.6,1.2,0.8,1.8c0.7,1.9,1.1,3.8,1.3,5.8c2.4-4.7,9-9.9,14.9-9.7c1.5,0,3,0.3,4.4,0.8
			c6.6,2.3,10,9.6,7.6,16.1c0,0,0,0,0,0.1c-0.6,1.5-1.4,2.9-2.5,4.1l-29.6,35v-43c0.1-2.5-0.4-5-1.2-7.3c-1.4-3.9-4.1-7.3-7.5-9.6
			c-2.5-1.7-5.4-2.8-8.4-3.3c-1-0.2-2-0.2-3.1-0.2c-2.3,0-4.7,0.4-6.9,1.2c-10.4,3.7-15.8,15.1-12.1,25.5c0,0,0,0.1,0.1,0.1
			c0.9,2.3,2.1,4.5,3.8,6.4l35.3,41.7l35.3-41.7c1.7-1.9,2.9-4,3.8-6.4c3.8-10.3-1.6-21.8-11.9-25.5
			C-303.5-26.8-303.6-26.8-303.6-26.8"/>
	</g>
</g>
</svg>
