<?xml version="1.0" encoding="utf-8"?>
<!-- Generator: Adobe Illustrator 25.3.1, SVG Export Plug-In . SVG Version: 6.00 Build 0)  -->
<svg version="1.1" id="logo" xmlns="http://www.w3.org/2000/svg" xmlns:xlink="http://www.w3.org/1999/xlink" x="0px" y="0px"
	 viewBox="0 0 39 44" style="enable-background:new 0 0 39 44;" xml:space="preserve">
<style type="text/css">
	.st0{fill:#111111;}
</style>
<g>
	<path id="Pfad_1" class="st0" d="M19.5,39.9l-1.8-2.2l-1.4-1.7c-4.2,0.5-7.3,2-7.3,3.8c0,2.2,4.7,4.1,10.5,4.1S30,42.2,30,39.9
		c0-1.8-3.1-3.3-7.3-3.8l-1.4,1.7L19.5,39.9z"/>
	<path id="Pfad_2" class="st0" d="M11.8,15.4c-3.2,1.2-6.7-0.5-7.9-3.6C2.8,8.6,4.5,5.1,7.6,4c0,0,0,0,0,0c3.2-1.2,6.7,0.5,7.9,3.6
		C16.7,10.7,15,14.2,11.8,15.4C11.9,15.4,11.9,15.4,11.8,15.4 M32.6,0.6C31.5,0.2,30.4,0,29.2,0c-3.4,0-6.5,1.7-8.3,4.6
		c0.1,0.3,0.3,0.6,0.4,0.9c0.3,0.9,0.5,1.8,0.6,2.8c1.1-2.3,4.3-4.8,7.2-4.7c0.7,0,1.4,0.1,2.1,0.4c3.2,1.1,4.8,4.6,3.7,7.8
		c0,0,0,0,0,0c-0.3,0.7-0.7,1.4-1.2,2L19.5,30.7V9.9c0-1.2-0.2-2.4-0.6-3.5c-0.7-1.9-2-3.5-3.6-4.7c-1.2-0.8-2.6-1.4-4.1-1.6
		C10.7,0,10.2,0,9.7,0C8.6,0,7.5,0.2,6.4,0.6c-5,1.8-7.6,7.3-5.9,12.3c0,0,0,0,0,0.1c0.4,1.1,1,2.2,1.8,3.1l17.1,20.2l17.1-20.2
		c0.8-0.9,1.4-1.9,1.8-3.1C40.2,8,37.7,2.4,32.6,0.6C32.6,0.6,32.6,0.6,32.6,0.6"/>
</g>
</svg>
